<svg width="30" height="30" viewBox="0 0 30 30" fill="none" xmlns="http://www.w3.org/2000/svg">
<g clip-path="url(#clip0_9_5431)">
<path d="M29.0134 10.1104L17.2935 4.38522C16.2832 3.88006 14.5656 3.88006 13.5553 4.38522L1.56601 10.1104C0.724067 10.5146 0.589355 11.0871 0.589355 11.3902C0.589355 11.6933 0.724067 12.2321 1.56601 12.67L2.54267 13.1414V18.5299C1.93647 18.7656 1.49866 19.3718 1.49866 20.0454C1.49866 20.7189 1.93647 21.3251 2.50899 21.5609L0.993489 26.3768H5.23689L3.72139 21.5609C4.32759 21.3251 4.73172 20.7189 4.73172 20.0454C4.73172 19.3382 4.29391 18.7656 3.68771 18.5299V13.714L5.47263 14.5896V21.5946C5.47263 21.6956 5.50631 21.7966 5.57367 21.8977C5.74205 22.0997 8.87409 26.3768 15.2729 26.3768C21.6716 26.3768 24.8037 22.0661 24.9384 21.8977C25.0057 21.7966 25.0394 21.6956 25.0394 21.5946V14.6233L29.0134 12.67C29.8553 12.2658 29.9901 11.6933 29.9901 11.3902C29.9564 11.0871 29.8553 10.5146 29.0134 10.1104ZM23.9617 21.4262C23.4229 22.0997 20.5266 25.3328 15.2729 25.3328C10.0191 25.3328 7.12284 22.0997 6.584 21.4262V15.0611L13.5553 18.3952C14.0605 18.6309 14.734 18.7656 15.4076 18.7656C16.1148 18.7656 16.7884 18.6309 17.2935 18.3615L23.9617 15.0948V21.4262ZM28.5419 11.727L24.5006 13.714C24.3322 13.714 24.1975 13.7813 24.1301 13.916L16.822 17.4522C16.1148 17.8227 14.734 17.8227 13.9931 17.4522L5.00114 13.1414L15.3402 11.929C15.6433 11.8954 15.8454 11.6259 15.8117 11.3565C15.778 11.0534 15.5086 10.8514 15.2392 10.885L3.2499 12.2995L2.0375 11.727C1.7344 11.5923 1.66704 11.4239 1.66704 11.4239C1.66704 11.3902 1.7344 11.2555 2.0375 11.1208L14.0268 5.36188C14.3972 5.19349 14.9024 5.09246 15.4076 5.09246C15.9464 5.09246 16.4853 5.19349 16.822 5.36188L28.5419 11.0871C28.845 11.2218 28.9124 11.3565 28.9124 11.4239C28.9124 11.4239 28.8113 11.5923 28.5419 11.727Z" fill="white"/>
</g>
<defs>
<clipPath id="clip0_9_5431">
<rect width="29.4007" height="29.4007" fill="white" transform="translate(0.589355 0.49115)"/>
</clipPath>
</defs>
</svg>
