<svg width="25" height="25" viewBox="0 0 25 25" fill="none" xmlns="http://www.w3.org/2000/svg">
<path d="M9.60914 13.2295L11.8142 15.4346L15.4893 10.2895M21.3694 12.4945C21.3694 13.6528 21.1413 14.7998 20.698 15.8699C20.2548 16.94 19.6051 17.9123 18.786 18.7314C17.967 19.5504 16.9947 20.2001 15.9246 20.6433C14.8544 21.0866 13.7075 21.3147 12.5492 21.3147C11.3909 21.3147 10.244 21.0866 9.17386 20.6433C8.10375 20.2001 7.13141 19.5504 6.31238 18.7314C5.49335 17.9123 4.84366 16.94 4.4004 15.8699C3.95715 14.7998 3.729 13.6528 3.729 12.4945C3.729 10.1553 4.65827 7.91181 6.31238 6.2577C7.96649 4.60359 10.2099 3.67432 12.5492 3.67432C14.8885 3.67432 17.1319 4.60359 18.786 6.2577C20.4402 7.91181 21.3694 10.1553 21.3694 12.4945Z" stroke="#0766E3" stroke-width="1.47003" stroke-linecap="round" stroke-linejoin="round"/>
</svg>
