<svg width="30" height="30" viewBox="0 0 30 30" fill="none" xmlns="http://www.w3.org/2000/svg">
<g clip-path="url(#clip0_9_5528)">
<path fill-rule="evenodd" clip-rule="evenodd" d="M23.0363 8.0136H6.3836C6.21133 8.0136 6.03906 7.84133 6.03906 7.66906V3.13263C6.03906 2.96036 6.21133 2.78809 6.3836 2.78809H23.0363C23.2086 2.78809 23.3809 2.96036 23.3809 3.13263V7.66906C23.3809 7.84133 23.2086 8.0136 23.0363 8.0136ZM6.72814 7.32452H22.6918V3.47716H6.72814V7.32452Z" fill="white"/>
<path fill-rule="evenodd" clip-rule="evenodd" d="M23.0363 13.9856H6.3836C6.21133 13.9856 6.03906 13.8707 6.03906 13.6411V9.16204C6.03906 8.98977 6.21133 8.8175 6.3836 8.8175H23.0363C23.2086 8.8175 23.3809 8.98977 23.3809 9.16204V13.6411C23.3809 13.8707 23.2086 13.9856 23.0363 13.9856ZM6.72814 13.2965H22.6918V9.50658H6.72814V13.2965Z" fill="white"/>
<path fill-rule="evenodd" clip-rule="evenodd" d="M23.0363 20.0151H6.3836C6.21133 20.0151 6.03906 19.8428 6.03906 19.6705V15.1915C6.03906 14.9618 6.21133 14.847 6.3836 14.847H23.0363C23.2086 14.847 23.3809 14.9618 23.3809 15.1915V19.6705C23.3809 19.8428 23.2086 20.0151 23.0363 20.0151ZM6.72814 19.326H22.6918V15.5361H6.72814V19.326Z" fill="white"/>
<path fill-rule="evenodd" clip-rule="evenodd" d="M26.9988 27.5949C26.7691 27.5949 26.6543 27.4227 26.6543 27.2504V27.1356C26.6543 26.9633 26.7691 26.791 26.9988 26.791C27.1711 26.791 27.3434 26.9633 27.3434 27.1356V27.2504C27.3434 27.4227 27.1711 27.5949 26.9988 27.5949ZM2.42169 27.5949C2.24942 27.5949 2.07715 27.4227 2.07715 27.2504V27.1356C2.07715 26.9633 2.24942 26.791 2.42169 26.791C2.65138 26.791 2.76623 26.9633 2.76623 27.1356V27.2504C2.76623 27.4227 2.65138 27.5949 2.42169 27.5949ZM26.9988 23.2882C26.7691 23.2882 26.6543 23.1734 26.6543 22.9437V17.4885H23.0366C22.8069 17.4885 22.6921 17.3162 22.6921 17.1439C22.6921 16.9716 22.8069 16.7994 23.0366 16.7994H26.9988C27.1711 16.7994 27.3434 16.9716 27.3434 17.1439V22.9437C27.3434 23.1734 27.1711 23.2882 26.9988 23.2882ZM2.42169 23.2882C2.24942 23.2882 2.07715 23.1734 2.07715 22.9437V17.1439C2.07715 16.9716 2.24942 16.7994 2.42169 16.7994H6.38389C6.61358 16.7994 6.72843 16.9716 6.72843 17.1439C6.72843 17.3162 6.61358 17.4885 6.38389 17.4885H2.76623V22.9437C2.76623 23.1734 2.65138 23.2882 2.42169 23.2882Z" fill="white"/>
<path fill-rule="evenodd" clip-rule="evenodd" d="M8.3929 6.63546C7.70382 6.63546 7.18701 6.06123 7.18701 5.42957C7.18701 4.74049 7.70382 4.16626 8.3929 4.16626C9.08198 4.16626 9.65621 4.74049 9.65621 5.42957C9.65621 6.06123 9.08198 6.63546 8.3929 6.63546ZM8.3929 4.85534C8.10578 4.85534 7.87609 5.08503 7.87609 5.42957C7.87609 5.71669 8.10578 5.94638 8.3929 5.94638C8.73744 5.94638 8.96713 5.71669 8.96713 5.42957C8.96713 5.08503 8.73744 4.85534 8.3929 4.85534Z" fill="white"/>
<path fill-rule="evenodd" clip-rule="evenodd" d="M12.5853 6.63546C11.9536 6.63546 11.3794 6.06123 11.3794 5.42957C11.3794 4.74049 11.9536 4.16626 12.5853 4.16626C13.2744 4.16626 13.8486 4.74049 13.8486 5.42957C13.8486 6.06123 13.2744 6.63546 12.5853 6.63546ZM12.5853 4.85534C12.2982 4.85534 12.0685 5.08503 12.0685 5.42957C12.0685 5.71669 12.2982 5.94638 12.5853 5.94638C12.9298 5.94638 13.1595 5.71669 13.1595 5.42957C13.1595 5.08503 12.9298 4.85534 12.5853 4.85534Z" fill="white"/>
<path fill-rule="evenodd" clip-rule="evenodd" d="M16.8346 6.63546C16.1455 6.63546 15.5713 6.06123 15.5713 5.42957C15.5713 4.74049 16.1455 4.16626 16.8346 4.16626C17.4663 4.16626 18.0405 4.74049 18.0405 5.42957C18.0405 6.06123 17.4663 6.63546 16.8346 6.63546ZM16.8346 4.85534C16.4901 4.85534 16.2604 5.08503 16.2604 5.42957C16.2604 5.71669 16.4901 5.94638 16.8346 5.94638C17.1217 5.94638 17.3514 5.71669 17.3514 5.42957C17.3514 5.08503 17.1217 4.85534 16.8346 4.85534Z" fill="white"/>
<path fill-rule="evenodd" clip-rule="evenodd" d="M21.0265 6.63546C20.3374 6.63546 19.7632 6.06123 19.7632 5.42957C19.7632 4.74049 20.3374 4.16626 21.0265 4.16626C21.7156 4.16626 22.2324 4.74049 22.2324 5.42957C22.2324 6.06123 21.7156 6.63546 21.0265 6.63546ZM21.0265 4.85534C20.682 4.85534 20.4523 5.08503 20.4523 5.42957C20.4523 5.71669 20.682 5.94638 21.0265 5.94638C21.3136 5.94638 21.5433 5.71669 21.5433 5.42957C21.5433 5.08503 21.3136 4.85534 21.0265 4.85534Z" fill="white"/>
<path fill-rule="evenodd" clip-rule="evenodd" d="M8.3929 12.6649C7.70382 12.6649 7.18701 12.0906 7.18701 11.4016C7.18701 10.7125 7.70382 10.1957 8.3929 10.1957C9.08198 10.1957 9.65621 10.7125 9.65621 11.4016C9.65621 12.0906 9.08198 12.6649 8.3929 12.6649ZM8.3929 10.8848C8.10578 10.8848 7.87609 11.1145 7.87609 11.4016C7.87609 11.6887 8.10578 11.9758 8.3929 11.9758C8.73744 11.9758 8.96713 11.6887 8.96713 11.4016C8.96713 11.1145 8.73744 10.8848 8.3929 10.8848Z" fill="white"/>
<path fill-rule="evenodd" clip-rule="evenodd" d="M12.5853 12.6649C11.9536 12.6649 11.3794 12.0906 11.3794 11.4016C11.3794 10.7125 11.9536 10.1957 12.5853 10.1957C13.2744 10.1957 13.8486 10.7125 13.8486 11.4016C13.8486 12.0906 13.2744 12.6649 12.5853 12.6649ZM12.5853 10.8848C12.2982 10.8848 12.0685 11.1145 12.0685 11.4016C12.0685 11.6887 12.2982 11.9758 12.5853 11.9758C12.9298 11.9758 13.1595 11.6887 13.1595 11.4016C13.1595 11.1145 12.9298 10.8848 12.5853 10.8848Z" fill="white"/>
<path fill-rule="evenodd" clip-rule="evenodd" d="M16.8346 12.6649C16.1455 12.6649 15.5713 12.0906 15.5713 11.4016C15.5713 10.7125 16.1455 10.1957 16.8346 10.1957C17.4663 10.1957 18.0405 10.7125 18.0405 11.4016C18.0405 12.0906 17.4663 12.6649 16.8346 12.6649ZM16.8346 10.8848C16.4901 10.8848 16.2604 11.1145 16.2604 11.4016C16.2604 11.6887 16.4901 11.9758 16.8346 11.9758C17.1217 11.9758 17.3514 11.6887 17.3514 11.4016C17.3514 11.1145 17.1217 10.8848 16.8346 10.8848Z" fill="white"/>
<path fill-rule="evenodd" clip-rule="evenodd" d="M21.0265 12.6649C20.3374 12.6649 19.7632 12.0906 19.7632 11.4016C19.7632 10.7125 20.3374 10.1957 21.0265 10.1957C21.7156 10.1957 22.2324 10.7125 22.2324 11.4016C22.2324 12.0906 21.7156 12.6649 21.0265 12.6649ZM21.0265 10.8848C20.682 10.8848 20.4523 11.1145 20.4523 11.4016C20.4523 11.6887 20.682 11.9758 21.0265 11.9758C21.3136 11.9758 21.5433 11.6887 21.5433 11.4016C21.5433 11.1145 21.3136 10.8848 21.0265 10.8848Z" fill="white"/>
<path fill-rule="evenodd" clip-rule="evenodd" d="M8.3929 18.6369C7.70382 18.6369 7.18701 18.1201 7.18701 17.431C7.18701 16.742 7.70382 16.1677 8.3929 16.1677C9.08198 16.1677 9.65621 16.742 9.65621 17.431C9.65621 18.1201 9.08198 18.6369 8.3929 18.6369ZM8.3929 16.8568C8.10578 16.8568 7.87609 17.0865 7.87609 17.431C7.87609 17.7182 8.10578 17.9478 8.3929 17.9478C8.73744 17.9478 8.96713 17.7182 8.96713 17.431C8.96713 17.0865 8.73744 16.8568 8.3929 16.8568Z" fill="white"/>
<path fill-rule="evenodd" clip-rule="evenodd" d="M12.5853 18.6369C11.9536 18.6369 11.3794 18.1201 11.3794 17.431C11.3794 16.742 11.9536 16.1677 12.5853 16.1677C13.2744 16.1677 13.8486 16.742 13.8486 17.431C13.8486 18.1201 13.2744 18.6369 12.5853 18.6369ZM12.5853 16.8568C12.2982 16.8568 12.0685 17.0865 12.0685 17.431C12.0685 17.7182 12.2982 17.9478 12.5853 17.9478C12.9298 17.9478 13.1595 17.7182 13.1595 17.431C13.1595 17.0865 12.9298 16.8568 12.5853 16.8568Z" fill="white"/>
<path fill-rule="evenodd" clip-rule="evenodd" d="M16.8346 18.6369C16.1455 18.6369 15.5713 18.1201 15.5713 17.431C15.5713 16.742 16.1455 16.1677 16.8346 16.1677C17.4663 16.1677 18.0405 16.742 18.0405 17.431C18.0405 18.1201 17.4663 18.6369 16.8346 18.6369ZM16.8346 16.8568C16.4901 16.8568 16.2604 17.0865 16.2604 17.431C16.2604 17.7182 16.4901 17.9478 16.8346 17.9478C17.1217 17.9478 17.3514 17.7182 17.3514 17.431C17.3514 17.0865 17.1217 16.8568 16.8346 16.8568Z" fill="white"/>
<path fill-rule="evenodd" clip-rule="evenodd" d="M21.0265 18.6369C20.3374 18.6369 19.7632 18.1201 19.7632 17.431C19.7632 16.742 20.3374 16.1677 21.0265 16.1677C21.7156 16.1677 22.2324 16.742 22.2324 17.431C22.2324 18.1201 21.7156 18.6369 21.0265 18.6369ZM21.0265 16.8568C20.682 16.8568 20.4523 17.0865 20.4523 17.431C20.4523 17.7182 20.682 17.9478 21.0265 17.9478C21.3136 17.9478 21.5433 17.7182 21.5433 17.431C21.5433 17.0865 21.3136 16.8568 21.0265 16.8568Z" fill="white"/>
<path fill-rule="evenodd" clip-rule="evenodd" d="M14.7098 23.1159C14.5375 23.1159 14.3652 22.9437 14.3652 22.7714V19.6705C14.3652 19.4408 14.5375 19.326 14.7098 19.326C14.882 19.326 15.0543 19.4408 15.0543 19.6705V22.7714C15.0543 22.9437 14.882 23.1159 14.7098 23.1159Z" fill="white"/>
<path fill-rule="evenodd" clip-rule="evenodd" d="M2.42154 27.4801C1.10081 27.4801 0.00976562 26.3891 0.00976562 25.0683C0.00976562 23.6902 1.10081 22.5991 2.42154 22.5991C3.7997 22.5991 4.89074 23.6902 4.89074 25.0683C4.89074 26.3891 3.7997 27.4801 2.42154 27.4801ZM2.42154 23.2882C1.50277 23.2882 0.698844 24.0921 0.698844 25.0683C0.698844 26.0445 1.50277 26.791 2.42154 26.791C3.39774 26.791 4.20166 26.0445 4.20166 25.0683C4.20166 24.0921 3.39774 23.2882 2.42154 23.2882Z" fill="white"/>
<path fill-rule="evenodd" clip-rule="evenodd" d="M26.9985 27.4801C25.6203 27.4801 24.5293 26.3891 24.5293 25.0683C24.5293 23.6902 25.6203 22.5991 26.9985 22.5991C28.3192 22.5991 29.4103 23.6902 29.4103 25.0683C29.4103 26.3891 28.3192 27.4801 26.9985 27.4801ZM26.9985 23.2882C26.0223 23.2882 25.2184 24.0921 25.2184 25.0683C25.2184 26.0445 26.0223 26.791 26.9985 26.791C27.9173 26.791 28.7212 26.0445 28.7212 25.0683C28.7212 24.0921 27.9173 23.2882 26.9985 23.2882Z" fill="white"/>
<path fill-rule="evenodd" clip-rule="evenodd" d="M17.064 26.8484H12.3553C12.183 26.8484 12.0107 26.6761 12.0107 26.5039V22.7714C12.0107 22.5991 12.183 22.4268 12.3553 22.4268H17.064C17.2363 22.4268 17.4085 22.5991 17.4085 22.7714V26.5039C17.4085 26.6761 17.2363 26.8484 17.064 26.8484ZM12.6998 26.1593H16.7194V23.1159H12.6998V26.1593Z" fill="white"/>
</g>
<defs>
<clipPath id="clip0_9_5528">
<rect width="29.4007" height="29.4007" fill="white" transform="translate(0.00976562 0.49115)"/>
</clipPath>
</defs>
</svg>
