<svg width="74" height="74" viewBox="0 0 74 74" fill="none" xmlns="http://www.w3.org/2000/svg">
<circle cx="36.8253" cy="37.0626" r="36.2609" fill="#0766E3"/>
<g clip-path="url(#clip0_8_3942)">
<path d="M55.1198 27.2624H28.3325C27.9717 27.2624 27.6792 27.5549 27.6792 27.9157C27.6792 28.2766 27.9717 28.5691 28.3325 28.5691H32.282C29.3825 30.4141 27.6419 33.6261 27.6792 37.0626C27.6419 40.4992 29.3825 43.7111 32.282 45.5562H18.5323V28.5691H25.0658C25.4266 28.5691 25.7191 28.2766 25.7191 27.9157C25.7191 27.5549 25.4266 27.2624 25.0658 27.2624H18.5323C17.8106 27.2624 17.2256 27.8474 17.2256 28.5691V45.5562C17.2256 46.2778 17.8106 46.8629 18.5323 46.8629H55.1198C55.8415 46.8629 56.4265 46.2778 56.4265 45.5562V28.5691C56.4265 27.8474 55.8415 27.2624 55.1198 27.2624ZM28.9859 37.0626C28.9859 32.3794 32.5028 28.5691 36.826 28.5691C41.1493 28.5691 44.6662 32.3794 44.6662 37.0626C44.6662 41.7458 41.1493 45.5562 36.826 45.5562C32.5028 45.5562 28.9859 41.7458 28.9859 37.0626ZM55.1198 45.5562H41.3701C44.2696 43.7111 46.0102 40.4992 45.9729 37.0626C46.0102 33.6261 44.2696 30.4141 41.3701 28.5691H55.1198V45.5562Z" fill="white"/>
<path d="M51.6803 20.2127C51.371 20.058 51.013 20.0321 50.6846 20.1409L36.6115 24.8574C36.2687 24.9721 36.0838 25.3431 36.1986 25.6858C36.3133 26.0286 36.6842 26.2135 37.027 26.0988L51.0962 21.3822L52.5401 25.6872C52.6142 25.9089 52.801 26.0743 53.0301 26.121C53.2592 26.1677 53.4958 26.0886 53.6508 25.9135C53.8058 25.7385 53.8556 25.494 53.7815 25.2723L52.3369 20.97C52.2293 20.6393 51.9925 20.3661 51.6803 20.2127Z" fill="white"/>
<path d="M36.6248 48.0271L22.5556 52.743L21.1117 48.4381C20.9971 48.0953 20.6264 47.9103 20.2836 48.0248C19.9408 48.1394 19.7558 48.5102 19.8704 48.853L21.3123 53.1539C21.4192 53.4841 21.6547 53.7571 21.9656 53.9112C22.1465 54.0011 22.3458 54.0481 22.5478 54.0484C22.6882 54.0486 22.8278 54.0265 22.9613 53.983L37.0345 49.2665C37.3773 49.1518 37.5621 48.7809 37.4474 48.4381C37.3326 48.0953 36.9617 47.9104 36.6189 48.0252L36.6248 48.0271Z" fill="white"/>
<path d="M38.7854 34.7759C38.7854 35.1367 39.0779 35.4293 39.4387 35.4293C39.7996 35.4293 40.0921 35.1367 40.0921 34.7759C40.029 33.3114 38.9302 32.1002 37.4787 31.8953V31.8358C37.4787 31.475 37.1862 31.1825 36.8253 31.1825C36.4645 31.1825 36.172 31.475 36.172 31.8358V31.8953C34.7205 32.1002 33.6217 33.3114 33.5586 34.7759C33.6217 36.2405 34.7205 37.4516 36.172 37.6565V40.8821C35.4449 40.7172 34.9131 40.0934 34.8653 39.3494C34.8653 38.9885 34.5728 38.696 34.2119 38.696C33.8511 38.696 33.5586 38.9885 33.5586 39.3494C33.6217 40.8139 34.7205 42.0251 36.172 42.23V42.2894C36.172 42.6503 36.4645 42.9428 36.8253 42.9428C37.1862 42.9428 37.4787 42.6503 37.4787 42.2894V42.23C38.9302 42.0251 40.029 40.8139 40.0921 39.3494C40.029 37.8848 38.9302 36.6736 37.4787 36.4687V33.2432C38.2058 33.4081 38.7376 34.0319 38.7854 34.7759ZM34.8653 34.7759C34.9131 34.0319 35.4449 33.4081 36.172 33.2432V36.3087C35.4449 36.1437 34.9131 35.5199 34.8653 34.7759ZM38.7854 39.3494C38.7376 40.0934 38.2058 40.7172 37.4787 40.8821V37.8166C38.2058 37.9815 38.7376 38.6053 38.7854 39.3494Z" fill="white"/>
<path d="M50.5459 44.2495H53.1593C53.5202 44.2495 53.8127 43.957 53.8127 43.5962V40.9828C53.8127 40.6219 53.5202 40.3294 53.1593 40.3294C52.7985 40.3294 52.506 40.6219 52.506 40.9828V42.9428H50.5459C50.1851 42.9428 49.8926 43.2353 49.8926 43.5962C49.8926 43.957 50.1851 44.2495 50.5459 44.2495Z" fill="white"/>
<path d="M20.4917 40.3294C20.1309 40.3294 19.8384 40.6219 19.8384 40.9828V43.5962C19.8384 43.957 20.1309 44.2495 20.4917 44.2495H23.1051C23.466 44.2495 23.7585 43.957 23.7585 43.5962C23.7585 43.2353 23.466 42.9428 23.1051 42.9428H21.1451V40.9828C21.1451 40.6219 20.8526 40.3294 20.4917 40.3294Z" fill="white"/>
<path d="M23.1051 29.8758H20.4917C20.1309 29.8758 19.8384 30.1683 19.8384 30.5291V33.1425C19.8384 33.5034 20.1309 33.7959 20.4917 33.7959C20.8526 33.7959 21.1451 33.5034 21.1451 33.1425V31.1825H23.1051C23.466 31.1825 23.7585 30.89 23.7585 30.5291C23.7585 30.1683 23.466 29.8758 23.1051 29.8758Z" fill="white"/>
<path d="M50.5459 31.1825H52.506V33.1425C52.506 33.5034 52.7985 33.7959 53.1593 33.7959C53.5202 33.7959 53.8127 33.5034 53.8127 33.1425V30.5291C53.8127 30.1683 53.5202 29.8758 53.1593 29.8758H50.5459C50.1851 29.8758 49.8926 30.1683 49.8926 30.5291C49.8926 30.89 50.1851 31.1825 50.5459 31.1825Z" fill="white"/>
</g>
<defs>
<clipPath id="clip0_8_3942">
<rect width="39.2009" height="39.2009" fill="white" transform="translate(17.2256 17.4622)"/>
</clipPath>
</defs>
</svg>
