<svg width="74" height="74" viewBox="0 0 74 74" fill="none" xmlns="http://www.w3.org/2000/svg">
<circle cx="37.2125" cy="37.0627" r="36.2609" fill="#0766E3"/>
<g clip-path="url(#clip0_8_3951)">
<path d="M43.3379 43.1878C43.3379 42.5381 43.0798 41.9149 42.6203 41.4554C42.1608 40.9959 41.5377 40.7378 40.8879 40.7378H33.0048L33.5377 36.5237C33.5407 36.4993 33.5407 36.4746 33.5377 36.4502C33.5377 33.0569 31.1366 32.1626 29.8626 32.1626C29.7251 32.1575 29.5899 32.1989 29.4788 32.28C29.3677 32.3611 29.2871 32.4772 29.2501 32.6097L26.8 41.1175C26.3885 41.9291 25.7501 42.6036 24.9625 43.0592V42.5753C24.9625 42.4129 24.8979 42.2571 24.7831 42.1422C24.6682 42.0274 24.5124 41.9628 24.35 41.9628H18.2248C18.0624 41.9628 17.9066 42.0274 17.7917 42.1422C17.6768 42.2571 17.6123 42.4129 17.6123 42.5753V56.0507C17.6123 56.2131 17.6768 56.3689 17.7917 56.4838C17.9066 56.5986 18.0624 56.6632 18.2248 56.6632H24.35C24.5124 56.6632 24.6682 56.5986 24.7831 56.4838C24.8979 56.3689 24.9625 56.2131 24.9625 56.0507V55.6403L28.4722 56.6632C28.5269 56.6725 28.5828 56.6725 28.6376 56.6632H39.0503C39.5143 56.6566 39.967 56.5184 40.3555 56.2647C40.7441 56.0109 41.0525 55.652 41.2451 55.2297C41.4376 54.8075 41.5062 54.3392 41.443 53.8795C41.3797 53.4198 41.1872 52.9874 40.8879 52.6328C41.1913 52.4502 41.4515 52.204 41.6506 51.9111C41.8497 51.6183 41.9829 51.2858 42.0411 50.9364C42.0993 50.5871 42.0812 50.2294 41.9878 49.8878C41.8944 49.5462 41.7281 49.2289 41.5004 48.9577C41.8038 48.7751 42.064 48.5289 42.2631 48.2361C42.4622 47.9432 42.5954 47.6107 42.6536 47.2614C42.7119 46.9121 42.6937 46.5543 42.6003 46.2127C42.507 45.8711 42.3407 45.5538 42.1129 45.2826C42.4814 45.0699 42.7882 44.7649 43.003 44.3976C43.2178 44.0303 43.3332 43.6133 43.3379 43.1878ZM23.7374 55.4381H18.8373V43.1878H23.7374V55.4381ZM39.0503 55.4381H28.7233L24.9625 54.3662V44.3394C26.8 43.9167 27.9087 41.7301 27.9577 41.6259C27.9746 41.5903 27.9889 41.5534 28.0005 41.5157L30.3097 33.4427C31.0264 33.602 32.3004 34.1961 32.3127 36.4134L31.7001 41.2768C31.6897 41.3623 31.6974 41.449 31.7227 41.5314C31.748 41.6137 31.7904 41.6897 31.8471 41.7546C31.9052 41.8207 31.9769 41.8735 32.0572 41.9094C32.1375 41.9454 32.2247 41.9636 32.3127 41.9628H40.8879C41.2128 41.9628 41.5243 42.0919 41.7541 42.3216C41.9838 42.5514 42.1129 42.863 42.1129 43.1878C42.1129 43.5127 41.9838 43.8243 41.7541 44.0541C41.5243 44.2838 41.2128 44.4129 40.8879 44.4129H37.8253C37.6628 44.4129 37.507 44.4774 37.3922 44.5923C37.2773 44.7071 37.2128 44.8629 37.2128 45.0254C37.2128 45.1878 37.2773 45.3436 37.3922 45.4585C37.507 45.5734 37.6628 45.6379 37.8253 45.6379H40.2753C40.6002 45.6379 40.9118 45.767 41.1416 45.9967C41.3713 46.2264 41.5004 46.538 41.5004 46.8629C41.5004 47.1878 41.3713 47.4994 41.1416 47.7292C40.9118 47.9589 40.6002 48.088 40.2753 48.088H37.2128C37.0503 48.088 36.8945 48.1525 36.7797 48.2674C36.6648 48.3822 36.6003 48.538 36.6003 48.7005C36.6003 48.8629 36.6648 49.0187 36.7797 49.1336C36.8945 49.2485 37.0503 49.313 37.2128 49.313H39.6628C39.9877 49.313 40.2993 49.4421 40.5291 49.6718C40.7588 49.9015 40.8879 50.2131 40.8879 50.538C40.8879 50.8629 40.7588 51.1745 40.5291 51.4043C40.2993 51.634 39.9877 51.7631 39.6628 51.7631H36.6003C36.4378 51.7631 36.282 51.8276 36.1671 51.9425C36.0523 52.0573 35.9877 52.2131 35.9877 52.3756C35.9877 52.538 36.0523 52.6938 36.1671 52.8087C36.282 52.9235 36.4378 52.9881 36.6003 52.9881H39.0503C39.3752 52.9881 39.6868 53.1171 39.9165 53.3469C40.1463 53.5766 40.2753 53.8882 40.2753 54.2131C40.2753 54.538 40.1463 54.8496 39.9165 55.0793C39.6868 55.3091 39.3752 55.4381 39.0503 55.4381Z" fill="white"/>
<path d="M25.5749 26.6499H26.1874V27.2625C26.1874 27.4249 26.252 27.5807 26.3668 27.6956C26.4817 27.8104 26.6375 27.875 26.7999 27.875C26.9624 27.875 27.1182 27.8104 27.2331 27.6956C27.3479 27.5807 27.4125 27.4249 27.4125 27.2625V26.6499H28.025C28.1874 26.6499 28.3432 26.5854 28.4581 26.4705C28.573 26.3557 28.6375 26.1999 28.6375 26.0374C28.6375 25.875 28.573 25.7192 28.4581 25.6043C28.3432 25.4895 28.1874 25.4249 28.025 25.4249H27.4125V24.8124C27.4125 24.65 27.3479 24.4942 27.2331 24.3793C27.1182 24.2644 26.9624 24.1999 26.7999 24.1999C26.6375 24.1999 26.4817 24.2644 26.3668 24.3793C26.252 24.4942 26.1874 24.65 26.1874 24.8124V25.4249H25.5749C25.4125 25.4249 25.2567 25.4895 25.1418 25.6043C25.0269 25.7192 24.9624 25.875 24.9624 26.0374C24.9624 26.1999 25.0269 26.3557 25.1418 26.4705C25.2567 26.5854 25.4125 26.6499 25.5749 26.6499Z" fill="white"/>
<path d="M50.6881 48.0879H50.0755V47.4754C50.0755 47.313 50.011 47.1572 49.8961 47.0423C49.7813 46.9274 49.6255 46.8629 49.463 46.8629C49.3006 46.8629 49.1448 46.9274 49.0299 47.0423C48.915 47.1572 48.8505 47.313 48.8505 47.4754V48.0879H48.238C48.0756 48.0879 47.9198 48.1525 47.8049 48.2673C47.69 48.3822 47.6255 48.538 47.6255 48.7005C47.6255 48.8629 47.69 49.0187 47.8049 49.1336C47.9198 49.2484 48.0756 49.313 48.238 49.313H48.8505V49.9255C48.8505 50.0879 48.915 50.2437 49.0299 50.3586C49.1448 50.4735 49.3006 50.538 49.463 50.538C49.6255 50.538 49.7813 50.4735 49.8961 50.3586C50.011 50.2437 50.0755 50.0879 50.0755 49.9255V49.313H50.6881C50.8505 49.313 51.0063 49.2484 51.1212 49.1336C51.236 49.0187 51.3006 48.8629 51.3006 48.7005C51.3006 48.538 51.236 48.3822 51.1212 48.2673C51.0063 48.1525 50.8505 48.0879 50.6881 48.0879Z" fill="white"/>
<path d="M43.3381 17.4622C39.7642 17.4622 36.3367 18.8819 33.8096 21.409C31.2825 23.9361 29.8628 27.3636 29.8628 30.9375C29.8628 31.0999 29.9273 31.2557 30.0422 31.3706C30.1571 31.4855 30.3129 31.55 30.4753 31.55C30.6378 31.55 30.7936 31.4855 30.9084 31.3706C31.0233 31.2557 31.0878 31.0999 31.0878 30.9375C31.0885 28.6147 31.7497 26.3399 32.994 24.3786C34.2384 22.4172 36.0148 20.85 38.116 19.8599C40.2172 18.8697 42.5566 18.4973 44.8614 18.7861C47.1662 19.075 49.3413 20.0131 51.1332 21.4912C52.9251 22.9692 54.2598 24.9262 54.9817 27.134C55.7037 29.3418 55.783 31.7093 55.2105 33.9605C54.638 36.2117 53.4373 38.2537 51.7484 39.8484C50.0596 41.4431 47.9521 42.5248 45.6718 42.9673C45.5093 42.9827 45.3597 43.062 45.2557 43.1878C45.1518 43.3136 45.102 43.4755 45.1175 43.638C45.1329 43.8004 45.2122 43.9501 45.338 44.0541C45.4638 44.158 45.6257 44.2077 45.7882 44.1923H45.9045C49.225 43.5852 52.1968 41.754 54.2318 39.0609C56.2669 36.3678 57.2171 33.009 56.8945 29.6489C56.5719 26.2888 55 23.1721 52.4897 20.9154C49.9793 18.6588 46.7135 17.4264 43.3381 17.4622Z" fill="white"/>
<path d="M48.8505 33.3876C48.8505 32.088 48.3342 30.8417 47.4152 29.9227C46.4963 29.0038 45.2499 28.4875 43.9503 28.4875H42.7253C42.4004 28.4875 42.0888 28.3584 41.8591 28.1287C41.6293 27.899 41.5003 27.5874 41.5003 27.2625C41.5003 26.9376 41.6293 26.626 41.8591 26.3962C42.0888 26.1665 42.4004 26.0374 42.7253 26.0374H47.0129C47.5003 26.0374 47.9676 25.8438 48.3123 25.4992C48.6569 25.1546 48.8505 24.6872 48.8505 24.1999C48.8505 23.7125 48.6569 23.2452 48.3123 22.9006C47.9676 22.5559 47.5003 22.3624 47.0129 22.3624H45.1754V20.5248C45.1754 20.3624 45.1108 20.2066 44.996 20.0917C44.8811 19.9768 44.7253 19.9123 44.5629 19.9123H42.1128C41.9503 19.9123 41.7946 19.9768 41.6797 20.0917C41.5648 20.2066 41.5003 20.3624 41.5003 20.5248V22.5216C40.3488 22.8226 39.3461 23.5323 38.6796 24.5184C38.0131 25.5045 37.7282 26.6994 37.8783 27.8802C38.0283 29.0609 38.6029 30.1466 39.4949 30.9347C40.3868 31.7227 41.5351 32.1592 42.7253 32.1626H43.9503C44.2752 32.1626 44.5868 32.2916 44.8166 32.5214C45.0463 32.7511 45.1754 33.0627 45.1754 33.3876C45.1754 33.7125 45.0463 34.0241 44.8166 34.2538C44.5868 34.4836 44.2752 34.6126 43.9503 34.6126H39.6627C39.1754 34.6126 38.708 34.8062 38.3634 35.1508C38.0188 35.4954 37.8252 35.9628 37.8252 36.4502C37.8252 36.9375 38.0188 37.4049 38.3634 37.7495C38.708 38.0941 39.1754 38.2877 39.6627 38.2877H41.5003V40.1253C41.5003 40.2877 41.5648 40.4435 41.6797 40.5584C41.7946 40.6733 41.9503 40.7378 42.1128 40.7378H44.5629C44.7253 40.7378 44.8811 40.6733 44.996 40.5584C45.1108 40.4435 45.1754 40.2877 45.1754 40.1253V38.1285C46.2266 37.857 47.1579 37.2442 47.8231 36.3861C48.4883 35.528 48.8496 34.4733 48.8505 33.3876ZM44.4771 37.0198C44.3299 37.0406 44.1953 37.1142 44.0984 37.2269C44.0015 37.3396 43.9489 37.4837 43.9503 37.6323V39.5128H42.7253V37.6752C42.7253 37.5128 42.6608 37.357 42.5459 37.2421C42.431 37.1272 42.2752 37.0627 42.1128 37.0627H39.6627C39.5003 37.0627 39.3445 36.9982 39.2296 36.8833C39.1148 36.7684 39.0502 36.6126 39.0502 36.4502C39.0502 36.2877 39.1148 36.1319 39.2296 36.0171C39.3445 35.9022 39.5003 35.8377 39.6627 35.8377H43.9503C44.6001 35.8377 45.2233 35.5795 45.6828 35.1201C46.1423 34.6606 46.4004 34.0374 46.4004 33.3876C46.4004 32.7378 46.1423 32.1146 45.6828 31.6552C45.2233 31.1957 44.6001 30.9376 43.9503 30.9376H42.7253C41.8019 30.9295 40.9154 30.5741 40.2422 29.9421C39.5689 29.3102 39.1582 28.4479 39.0918 27.5268C39.0254 26.6058 39.3082 25.6936 39.8838 24.9715C40.4595 24.2495 41.2859 23.7707 42.1985 23.6303C42.3457 23.6095 42.4803 23.5358 42.5772 23.4232C42.6741 23.3105 42.7268 23.1664 42.7253 23.0177V21.1373H43.9503V22.9749C43.9503 23.1373 44.0149 23.2931 44.1297 23.408C44.2446 23.5228 44.4004 23.5874 44.5629 23.5874H47.0129C47.1754 23.5874 47.3312 23.6519 47.446 23.7668C47.5609 23.8816 47.6254 24.0374 47.6254 24.1999C47.6254 24.3623 47.5609 24.5181 47.446 24.633C47.3312 24.7479 47.1754 24.8124 47.0129 24.8124H42.7253C42.0755 24.8124 41.4523 25.0705 40.9929 25.53C40.5334 25.9895 40.2753 26.6127 40.2753 27.2625C40.2753 27.9123 40.5334 28.5354 40.9929 28.9949C41.4523 29.4544 42.0755 29.7125 42.7253 29.7125H43.9503C44.8737 29.7206 45.7602 30.076 46.4335 30.7079C47.1068 31.3399 47.5175 32.2022 47.5838 33.1232C47.6502 34.0443 47.3675 34.9565 46.7918 35.6785C46.2162 36.4006 45.3898 36.8794 44.4771 37.0198Z" fill="white"/>
</g>
<defs>
<clipPath id="clip0_8_3951">
<rect width="39.2009" height="39.2009" fill="white" transform="translate(17.6123 17.4622)"/>
</clipPath>
</defs>
</svg>
