<svg width="73" height="74" viewBox="0 0 73 74" fill="none" xmlns="http://www.w3.org/2000/svg">
<circle cx="36.4376" cy="37.0627" r="36.2609" fill="#0766E3"/>
<path d="M27.2494 32.8719C26.9113 32.8719 26.6369 32.5975 26.6369 32.2594V30.0408C26.6369 29.8485 26.7264 29.6684 26.8795 29.5533C27.5043 29.0804 27.862 28.3699 27.862 27.6042V25.7667C27.862 24.4155 26.7631 23.3166 25.4119 23.3166C24.0607 23.3166 22.9618 24.4155 22.9618 25.7667V27.6042C22.9618 28.3699 23.3196 29.0804 23.9443 29.5533C24.0974 29.6684 24.1869 29.8497 24.1869 30.0421V32.2606C24.1869 32.5987 23.9125 32.8731 23.5744 32.8731C23.2363 32.8731 22.9618 32.5975 22.9618 32.2594V30.3299C22.1791 29.6304 21.7368 28.6529 21.7368 27.6042V25.7667C21.7368 23.7405 23.3857 22.0916 25.4119 22.0916C27.4381 22.0916 29.087 23.7405 29.087 25.7667V27.6042C29.087 28.6529 28.6448 29.6292 27.862 30.3299V32.2594C27.862 32.5975 27.5876 32.8719 27.2494 32.8719Z" fill="white"/>
<path d="M26.0285 31.2181C25.7443 31.2181 25.4895 31.0184 25.4294 30.7293C25.362 30.3973 25.5752 30.0739 25.9072 30.0066C27.0391 29.7726 27.8623 28.7632 27.8623 27.6043C27.8623 27.2662 28.1367 26.9918 28.4748 26.9918C28.813 26.9918 29.0874 27.2662 29.0874 27.6043C29.0874 29.3414 27.8525 30.8555 26.1522 31.2046C26.1105 31.2132 26.0701 31.2181 26.0285 31.2181Z" fill="white"/>
<path d="M29.5456 33.8323C29.4648 33.8323 29.3827 33.8163 29.3043 33.782L27.0086 32.7959C26.6974 32.6624 26.5541 32.3022 26.6876 31.991C26.8199 31.6787 27.1801 31.5378 27.4913 31.6701L29.787 32.6562C30.0981 32.7898 30.2415 33.1499 30.1079 33.4611C30.0087 33.6938 29.7821 33.8323 29.5456 33.8323Z" fill="white"/>
<path d="M21.7371 41.2474C21.6526 41.2474 21.5656 41.2302 21.4835 41.1923L19.1388 40.1265C18.4846 39.8276 18.062 39.171 18.062 38.4531V36.7552C18.062 35.0377 19.0788 33.4942 20.6517 32.8229L23.3309 31.6603C23.6445 31.5256 24.0022 31.6677 24.1369 31.9776C24.2705 32.2875 24.1284 32.6489 23.8184 32.7837L21.1368 33.9475C20.0123 34.4289 19.287 35.5302 19.287 36.7552V38.4531C19.287 38.692 19.4279 38.9125 19.646 39.0117L21.9907 40.0775C22.2982 40.2172 22.4341 40.581 22.2945 40.8885C22.1916 41.1139 21.9686 41.2474 21.7371 41.2474Z" fill="white"/>
<path d="M27.7872 26.8815C26.5671 26.8815 25.4009 26.4613 24.4147 25.6662C24.1526 25.4543 24.1109 25.0697 24.3216 24.8063C24.536 24.5429 24.9219 24.5025 25.1828 24.7144C25.9693 25.3477 26.9028 25.6895 27.8595 25.6564C27.8007 24.3555 26.7251 23.3166 25.4119 23.3166C24.0607 23.3166 22.9618 24.4155 22.9618 25.7667V26.22C22.9618 26.5581 22.6874 26.8325 22.3493 26.8325C22.0112 26.8325 21.7368 26.5593 21.7368 26.22V25.7667C21.7368 23.7405 23.3857 22.0916 25.4119 22.0916C27.4381 22.0916 29.087 23.7405 29.087 25.7667V26.1955C29.087 26.4968 28.8677 26.7528 28.5713 26.8006C28.2883 26.846 28.0433 26.8815 27.7872 26.8815Z" fill="white"/>
<path d="M49.3002 32.8719C48.9621 32.8719 48.6877 32.5975 48.6877 32.2593V30.0408C48.6877 29.8485 48.7771 29.6684 48.9303 29.5533C49.555 29.0804 49.9127 28.3699 49.9127 27.6042V25.7667C49.9127 24.4155 48.8139 23.3166 47.4627 23.3166C46.1115 23.3166 45.0126 24.4155 45.0126 25.7667V27.6042C45.0126 28.3699 45.3703 29.0804 45.9951 29.5533C46.1482 29.6684 46.2377 29.8497 46.2377 30.042V32.2606C46.2377 32.5987 45.9632 32.8731 45.6251 32.8731C45.287 32.8731 45.0126 32.5987 45.0126 32.2606V30.3312C44.2298 29.6317 43.7876 28.6541 43.7876 27.6055V25.7679C43.7876 23.7417 45.4365 22.0928 47.4627 22.0928C49.4889 22.0928 51.1378 23.7417 51.1378 25.7679V27.6055C51.1378 28.6541 50.6955 29.6304 49.9127 30.3312V32.2606C49.9127 32.5975 49.6383 32.8719 49.3002 32.8719Z" fill="white"/>
<path d="M48.0792 31.2181C47.795 31.2181 47.5402 31.0184 47.4802 30.7293C47.4128 30.3973 47.626 30.0739 47.958 30.0066C49.0899 29.7726 49.9131 28.7632 49.9131 27.6043C49.9131 27.2662 50.1875 26.9918 50.5256 26.9918C50.8637 26.9918 51.1381 27.2662 51.1381 27.6043C51.1381 29.3414 49.9033 30.8555 48.203 31.2046C48.1613 31.2132 48.1209 31.2181 48.0792 31.2181Z" fill="white"/>
<path d="M43.5092 33.7551C43.2728 33.7551 43.0461 33.6167 42.9469 33.3839C42.8134 33.074 42.9567 32.7126 43.2679 32.5791L45.3835 31.6701C45.6922 31.539 46.0536 31.6787 46.1871 31.9911C46.3207 32.301 46.1773 32.6624 45.8662 32.7959L43.7505 33.7049C43.6721 33.7392 43.5913 33.7551 43.5092 33.7551Z" fill="white"/>
<path d="M51.1375 41.2474C50.906 41.2474 50.683 41.1138 50.5801 40.8884C50.4405 40.581 50.5764 40.2171 50.8839 40.0775L53.2286 39.0117C53.4467 38.9125 53.5876 38.6932 53.5876 38.4531V36.7552C53.5876 35.5302 52.8623 34.4289 51.7414 33.9499L49.0562 32.7836C48.7462 32.6489 48.6041 32.2887 48.7377 31.9776C48.8724 31.6664 49.2277 31.5243 49.5437 31.6603L52.2253 32.8241C53.7958 33.4942 54.8126 35.0377 54.8126 36.7552V38.4531C54.8126 39.1709 54.39 39.8276 53.7358 40.1265L51.3911 41.1922C51.309 41.229 51.222 41.2474 51.1375 41.2474Z" fill="white"/>
<path d="M38.0426 25.0513C36.3006 25.0513 34.4876 24.4375 33.488 23.5384C33.2356 23.3117 33.2148 22.9246 33.4414 22.6735C33.668 22.4224 34.0588 22.4016 34.3063 22.6282C35.5142 23.7136 38.4077 24.2807 40.0651 23.3914C40.3628 23.2309 40.7352 23.3424 40.8945 23.6413C41.055 23.9402 40.9423 24.3101 40.6446 24.4706C39.8887 24.8737 38.9761 25.0513 38.0426 25.0513Z" fill="white"/>
<path d="M36.4289 36.1795C34.3965 36.1795 33.3369 34.5943 33.06 33.7551C32.9535 33.4329 33.1286 33.0875 33.4496 32.9809C33.7706 32.8755 34.1148 33.0495 34.2214 33.368C34.2471 33.4415 34.7898 34.9532 36.4289 34.9532C38.0814 34.9532 38.6633 33.395 38.689 33.3288C38.803 33.0115 39.1582 32.8461 39.4706 32.9588C39.7879 33.0716 39.9557 33.4182 39.8442 33.7367C39.8087 33.8372 38.9622 36.1795 36.4289 36.1795Z" fill="white"/>
<path d="M48.0751 41.0795C47.737 41.0795 47.4626 40.8051 47.4626 40.467V40.1252C47.4626 38.3085 46.3172 36.6841 44.6132 36.0851L39.5036 34.272C38.7686 34.016 38.2749 33.3202 38.2749 32.5423V31.0355C38.2749 30.6974 38.5493 30.423 38.8874 30.423C39.2255 30.423 39.4999 30.6974 39.4999 31.0355V32.5423C39.4999 32.7995 39.6653 33.0298 39.9103 33.1156L45.0211 34.9299C47.2139 35.7004 48.6876 37.7891 48.6876 40.1252V40.4682C48.6876 40.8063 48.4132 41.0795 48.0751 41.0795Z" fill="white"/>
<path d="M24.7995 41.0796C24.4614 41.0796 24.187 40.8052 24.187 40.467V40.1363C24.187 39.7541 24.2274 39.3707 24.3071 38.9921C24.7015 37.1264 26.0662 35.5706 27.8645 34.9287L32.9631 33.1402C33.2093 33.0544 33.3747 32.8229 33.3747 32.5656V31.0343C33.3747 30.6962 33.6491 30.4218 33.9872 30.4218C34.3254 30.4218 34.5998 30.6962 34.5998 31.0343V32.5656C34.5998 33.3423 34.1061 34.0381 33.3686 34.2966L28.2737 36.0839C26.8735 36.5825 25.8126 37.794 25.5051 39.2457C25.4427 39.5397 25.412 39.8398 25.412 40.1363V40.467C25.412 40.8064 25.1376 41.0796 24.7995 41.0796Z" fill="white"/>
<path d="M36.4377 32.5044C36.0996 32.5044 35.8252 32.23 35.8252 31.8919C35.8252 31.5537 36.0996 31.2793 36.4377 31.2793C37.7093 31.2793 40.1128 30.1278 40.1128 25.7667V23.9292C40.1128 21.903 38.4639 20.2541 36.4377 20.2541C34.4115 20.2541 32.7626 21.903 32.7626 23.9292V25.7667C32.7626 27.8787 33.3274 29.4945 34.3944 30.439C34.6479 30.6632 34.6724 31.0503 34.447 31.3038C34.2204 31.5586 33.8345 31.5795 33.5834 31.3565C32.6499 30.5308 31.5376 28.8918 31.5376 25.7667V23.9292C31.5376 21.2268 33.7353 19.0291 36.4377 19.0291C39.1401 19.0291 41.3378 21.2268 41.3378 23.9292V25.7667C41.3378 31.0968 38.1332 32.5044 36.4377 32.5044Z" fill="white"/>
<path d="M45.7701 52.1048C45.5447 52.1048 45.3291 51.9798 45.2213 51.7642C45.0719 51.4604 45.1956 51.0942 45.4994 50.9435L48.5289 49.4428C48.6992 49.3583 48.9025 49.3583 49.0716 49.4428L51.0512 50.4241L50.729 48.2386C50.7021 48.05 50.7633 47.8576 50.8981 47.7216L52.4453 46.1401L50.2648 45.769C50.0773 45.7371 49.9144 45.6183 49.825 45.4492L48.8008 43.4916L47.7755 45.4492C47.6861 45.6183 47.5231 45.7371 47.3357 45.769L45.1564 46.1401L46.7024 47.7216C46.9388 47.9642 46.9339 48.3513 46.6926 48.5877C46.45 48.8254 46.0617 48.8205 45.8265 48.5779L43.4634 46.161C43.3041 45.998 43.2478 45.7604 43.3188 45.5435C43.3899 45.3267 43.5737 45.1675 43.7991 45.1295L46.8322 44.6125L48.2594 41.8881C48.366 41.6859 48.5754 41.5598 48.8021 41.5598C49.0312 41.5598 49.2382 41.6872 49.3448 41.8881L50.7707 44.6125L53.8051 45.1295C54.0305 45.1675 54.2143 45.3279 54.2853 45.5435C54.3564 45.7592 54.3 45.998 54.1408 46.161L51.9884 48.3599L52.4367 51.4029C52.4686 51.6283 52.3743 51.8537 52.1905 51.9872C52.0067 52.122 51.7617 52.1428 51.5584 52.0399L48.8021 50.674L46.0445 52.0399C45.9551 52.0852 45.862 52.1048 45.7701 52.1048Z" fill="white"/>
<path d="M32.8558 55.4381C32.7284 55.4381 32.6022 55.3989 32.4957 55.3217C32.3119 55.1882 32.2164 54.9628 32.2494 54.7362L32.786 51.0819L30.2036 48.4408C30.0444 48.2778 29.988 48.0402 30.0591 47.8233C30.1301 47.6065 30.3139 47.446 30.5393 47.4093L34.1825 46.7894L35.8951 43.5174C36.1083 43.1131 36.7686 43.1131 36.9817 43.5174L38.6943 46.7894L42.3375 47.4093C42.563 47.4473 42.7467 47.6077 42.8178 47.8233C42.8888 48.039 42.8325 48.2778 42.6732 48.4408L40.0896 51.0819L40.6274 54.7362C40.6593 54.9616 40.5649 55.187 40.3812 55.3205C40.1974 55.4565 39.9524 55.4749 39.7491 55.3732L36.4378 53.7329L33.1278 55.3732C33.042 55.4161 32.9489 55.4381 32.8558 55.4381ZM31.8966 48.4199L33.8738 50.4425C34.0073 50.5797 34.0698 50.7708 34.0429 50.9594L33.6313 53.7562L36.1659 52.5005C36.3361 52.4148 36.5395 52.4148 36.7085 52.5005L39.2419 53.7562L38.8303 50.9594C38.8033 50.7708 38.8646 50.5784 38.9993 50.4425L40.9778 48.4199L38.1884 47.9446C38.0009 47.9128 37.838 47.7939 37.7486 47.6249L36.4378 45.1197L35.127 47.6249C35.0376 47.7939 34.8747 47.9128 34.6872 47.9446L31.8966 48.4199Z" fill="white"/>
<path d="M27.2046 52.1049C27.1127 52.1049 27.0209 52.084 26.9327 52.0412L24.1763 50.6753L21.4188 52.0424C21.2167 52.1428 20.9729 52.1232 20.7867 51.9885C20.6029 51.855 20.5074 51.6295 20.5405 51.4041L20.9888 48.3612L18.8364 46.1622C18.6772 45.9993 18.6208 45.7617 18.6919 45.5448C18.7629 45.328 18.9467 45.1675 19.1721 45.1308L22.2065 44.6138L23.6337 41.8893C23.7402 41.6872 23.9497 41.561 24.1763 41.561C24.4054 41.561 24.6125 41.6884 24.719 41.8893L26.145 44.6138L29.1781 45.1308C29.4035 45.1687 29.5873 45.3292 29.6584 45.5448C29.7294 45.7604 29.6731 45.9993 29.5138 46.1622L27.1507 48.578C26.9167 48.8206 26.5284 48.8255 26.2846 48.5878C26.0433 48.3514 26.0384 47.9643 26.2748 47.7217L27.8208 46.1402L25.6415 45.769C25.4528 45.7372 25.2911 45.6183 25.2017 45.4493L24.1776 43.4917L23.1522 45.4493C23.0628 45.6183 22.8999 45.7372 22.7124 45.769L20.5319 46.1402L22.0791 47.7217C22.2126 47.8589 22.2751 48.05 22.2482 48.2387L21.926 50.4241L23.9068 49.4429C24.0771 49.3583 24.2805 49.3583 24.4495 49.4429L27.4778 50.9435C27.7816 51.0942 27.9053 51.4605 27.7559 51.7643C27.6456 51.9799 27.4288 52.1049 27.2046 52.1049Z" fill="white"/>
</svg>
