<svg width="74" height="74" viewBox="0 0 74 74" fill="none" xmlns="http://www.w3.org/2000/svg">
<circle cx="37.0499" cy="37.0627" r="36.2609" fill="#0766E3"/>
<g clip-path="url(#clip0_8_3893)">
<path d="M35.6148 22.5361C35.6148 22.1978 35.8891 21.9236 36.2273 21.9236H46.632C46.9703 21.9236 47.2445 22.1978 47.2445 22.5361C47.2445 22.8744 46.9703 23.1486 46.632 23.1486H36.2273C35.889 23.1486 35.6148 22.8744 35.6148 22.5361ZM36.2273 27.0322H46.632C46.9703 27.0322 47.2445 26.7579 47.2445 26.4197C47.2445 26.0814 46.9703 25.8072 46.632 25.8072H36.2273C35.8891 25.8072 35.6148 26.0814 35.6148 26.4197C35.6148 26.7579 35.889 27.0322 36.2273 27.0322ZM28.4565 35.3852H22.7904C22.4522 35.3852 22.1779 35.6595 22.1779 35.9977C22.1779 36.336 22.4522 36.6102 22.7904 36.6102H28.4564C28.7947 36.6102 29.0689 36.336 29.0689 35.9977C29.0689 35.6595 28.7948 35.3852 28.4565 35.3852ZM54.6462 41.8335C54.6192 41.9865 54.6756 42.2327 54.73 42.4709C54.8224 42.8751 54.9272 43.3333 54.7612 43.7881C54.5943 44.2455 54.2169 44.5303 53.884 44.7817C53.6904 44.9278 53.4902 45.0789 53.415 45.2091C53.3391 45.3403 53.308 45.59 53.2779 45.8313C53.2264 46.2445 53.1679 46.7128 52.8562 47.0846C52.7218 47.245 52.5612 47.3619 52.3904 47.453L54.304 51.8962C54.3943 52.1057 54.3605 52.3481 54.2165 52.5251C54.0725 52.7021 53.8422 52.7843 53.6185 52.7385L50.6575 52.1321L49.0639 54.7003C48.9516 54.8811 48.7543 54.9898 48.5435 54.9898C48.5284 54.9898 48.5132 54.9893 48.4979 54.9881C48.2703 54.9712 48.0711 54.8292 47.9809 54.6197L46.3512 50.8362C45.8685 50.9183 45.433 50.7342 45.0484 50.5717C44.8286 50.4788 44.6013 50.3827 44.4568 50.3827C44.4566 50.3827 44.4565 50.3827 44.4565 50.3827C44.3028 50.3829 44.0689 50.4814 43.8427 50.5767C43.6209 50.6702 43.3815 50.7698 43.1276 50.8218L40.8579 55.6967C40.7616 55.9035 40.5583 56.0397 40.3304 56.0501C40.3211 56.0505 40.3118 56.0507 40.3025 56.0507C40.0851 56.0507 39.883 55.9351 39.773 55.746L38.2544 53.1326L35.277 53.6529C35.0531 53.6919 34.8255 53.6038 34.6865 53.4235C34.5476 53.2433 34.52 53.0009 34.6149 52.7941L36.9782 47.6435C36.6477 47.5334 36.3073 47.3851 36.0561 47.0863C35.7447 46.716 35.6864 46.2493 35.6349 45.8376C35.6045 45.5951 35.5732 45.3445 35.4957 45.2104C35.4222 45.0831 35.2241 44.9333 35.0325 44.7885C34.6979 44.5356 34.3188 44.249 34.1512 43.7867C33.9877 43.3354 34.0922 42.8808 34.1846 42.4796C34.2399 42.2392 34.2971 41.9906 34.2693 41.833C34.2415 41.6757 34.1029 41.4618 33.9688 41.255C33.8068 41.0051 33.6261 40.7256 33.5404 40.4051H21.1193C19.7728 40.4051 18.6772 39.3097 18.6772 37.9631V20.5167C18.6772 19.1702 19.7727 18.0747 21.1193 18.0747H49.0726C50.419 18.0747 51.5146 19.1702 51.5146 20.5167V32.2979C51.5729 32.3168 51.6328 32.3353 51.6923 32.3535C52.0912 32.4758 52.5434 32.6144 52.8568 32.9873C53.1682 33.3579 53.2265 33.8244 53.278 34.2359C53.3083 34.4783 53.3397 34.7289 53.4172 34.8633C53.4905 34.9903 53.6885 35.14 53.88 35.2848C54.2146 35.5378 54.5939 35.8245 54.7615 36.2868C54.9252 36.7379 54.8206 37.1926 54.7282 37.5939C54.6728 37.8343 54.6156 38.0829 54.6435 38.2404C54.6712 38.3979 54.8099 38.6118 54.944 38.8186C55.1274 39.1014 55.3352 39.4221 55.4014 39.7973V39.7972C55.5077 40.4 55.1906 40.8885 54.9358 41.281C54.8062 41.4808 54.672 41.6874 54.6462 41.8335ZM19.9023 20.5167V29.4835H20.9835C21.3196 27.9945 22.3404 26.7888 23.6875 26.1912C23.2097 25.7025 22.9144 25.0346 22.9144 24.2988C22.9144 22.805 24.1298 21.5897 25.6235 21.5897C27.1173 21.5897 28.3327 22.805 28.3327 24.2988C28.3327 25.0347 28.0374 25.7025 27.5596 26.1913C28.9066 26.7889 29.9275 27.9946 30.2634 29.4835H31.3447V19.2997H21.1193C20.4482 19.2997 19.9023 19.8456 19.9023 20.5167ZM25.6225 25.7829H25.6235C25.6235 25.7829 25.6242 25.7829 25.6245 25.7829C26.4424 25.7824 27.1077 25.1169 27.1077 24.2988C27.1077 23.4805 26.4419 22.8147 25.6235 22.8147C24.8051 22.8147 24.1394 23.4805 24.1394 24.2988C24.1393 25.1169 24.8046 25.7824 25.6225 25.7829ZM22.2501 29.4835H28.9967C28.5459 28.034 27.1993 27.0086 25.625 27.0079C25.6245 27.0079 25.624 27.0079 25.6235 27.0079C25.6229 27.0079 25.6225 27.0079 25.6219 27.0079C24.0476 27.0086 22.701 28.034 22.2501 29.4835ZM35.0293 35.2914C35.2228 35.1454 35.4229 34.9943 35.498 34.8644C35.5737 34.7334 35.6048 34.4839 35.6349 34.2426C35.6865 33.8293 35.745 33.3608 36.0567 32.9888C36.3677 32.6179 36.818 32.4788 37.2153 32.3559C37.4483 32.284 37.6893 32.2096 37.8062 32.1112C37.9202 32.0154 38.0337 31.7931 38.1434 31.578C38.2552 31.359 38.3762 31.123 38.5428 30.9158H36.2274C35.8891 30.9158 35.6149 30.6415 35.6149 30.3033C35.6149 29.965 35.8891 29.6907 36.2274 29.6907H41.6812C41.9245 29.4854 42.2028 29.3004 42.5525 29.2387C43.0392 29.1527 43.4776 29.3383 43.8645 29.5019C44.0842 29.5948 44.3114 29.6908 44.456 29.6908H44.4564C44.6101 29.6907 44.844 29.5921 45.0702 29.4969C45.4533 29.3355 45.8876 29.1527 46.3611 29.2361C46.843 29.3211 47.1901 29.6443 47.4963 29.9294C47.6728 30.0938 47.8554 30.2639 47.9952 30.3149C48.1387 30.3673 48.3906 30.3549 48.6341 30.3427C49.0493 30.3222 49.5202 30.2989 49.9393 30.5412C50.0757 30.6201 50.1903 30.7178 50.2897 30.8263V20.5167C50.2897 19.8456 49.7438 19.2997 49.0727 19.2997H32.5697V30.096C32.5697 30.4343 32.2954 30.7085 31.9572 30.7085H19.9023V37.9631C19.9023 38.6342 20.4482 39.1801 21.1193 39.1801H33.7398C33.8155 39.0415 33.8992 38.9125 33.9772 38.7924C34.1069 38.5926 34.2409 38.3861 34.2667 38.2399C34.2937 38.0874 34.2374 37.841 34.183 37.6028C34.0906 37.1985 33.9858 36.74 34.1517 36.2856C34.3187 35.8279 34.6963 35.5429 35.0293 35.2914ZM41.9011 50.5536C41.723 50.4291 41.5651 50.2824 41.4168 50.1444C41.2402 49.9799 41.0576 49.8098 40.9176 49.7586C40.7743 49.7063 40.5224 49.7188 40.279 49.7309C39.8636 49.7515 39.3929 49.7747 38.9738 49.5325C38.5533 49.2895 38.3383 48.8694 38.1485 48.4987C38.1107 48.4249 38.0724 48.3505 38.0339 48.2802L36.2145 52.2454L38.4641 51.8523C38.7172 51.8086 38.9703 51.9262 39.0992 52.1479L40.2427 54.1157L41.9011 50.5536ZM52.7147 51.3029L51.2408 47.8807C51.1878 47.9062 51.1414 47.9331 51.1067 47.9622C50.9928 48.058 50.8794 48.2802 50.7697 48.4951C50.5796 48.8676 50.3642 49.2898 49.9403 49.5347C49.5239 49.7751 49.0533 49.7517 48.6382 49.7311C48.3931 49.7188 48.1396 49.7063 47.995 49.7586C47.8591 49.8079 47.6783 49.9761 47.5034 50.1387C47.4755 50.1646 47.4472 50.1908 47.4186 50.2171L48.6418 53.0571L49.8419 51.1232C49.9772 50.9053 50.234 50.7945 50.4852 50.8462L52.7147 51.3029ZM54.195 40.01C54.1721 39.8797 54.042 39.679 53.9162 39.4849C53.7249 39.1898 53.5081 38.8555 53.4372 38.4531C53.3662 38.0505 53.4557 37.6619 53.5345 37.3191C53.5861 37.0947 53.6504 36.8156 53.6101 36.7046C53.566 36.583 53.3306 36.405 53.1413 36.2619C52.8659 36.0538 52.5538 35.8178 52.3564 35.4759C52.1549 35.1268 52.1058 34.7343 52.0624 34.388C52.0336 34.1567 51.9975 33.869 51.9189 33.7754C51.8383 33.6795 51.5582 33.5936 51.3331 33.5246C51.0009 33.4228 50.6243 33.3073 50.3189 33.0512C50.0126 32.7945 49.8326 32.4431 49.6739 32.1331C49.5669 31.9241 49.4337 31.6638 49.3262 31.6017C49.2198 31.5402 48.9287 31.5548 48.6946 31.5662C48.3463 31.5835 47.9515 31.6029 47.5751 31.4656C47.2022 31.3295 46.9149 31.0619 46.6613 30.8259C46.4885 30.6649 46.2733 30.4646 46.1482 30.4424C46.0298 30.4222 45.7616 30.5349 45.5457 30.6258C45.2234 30.7616 44.8582 30.9155 44.4578 30.9159C44.4571 30.9159 44.4565 30.9159 44.4558 30.9159C44.0629 30.9159 43.7041 30.7642 43.3873 30.6303C43.1566 30.5329 42.8954 30.4228 42.7652 30.4452C42.6351 30.4682 42.4273 30.6614 42.2438 30.832C41.9916 31.0664 41.7057 31.3323 41.3356 31.4665C40.9591 31.6029 40.5633 31.5833 40.2141 31.566C39.9802 31.5545 39.6891 31.5399 39.5853 31.5997C39.4754 31.6632 39.3418 31.9249 39.2345 32.1352C39.077 32.4438 38.8984 32.7935 38.5945 33.0491C38.2879 33.3069 37.9102 33.4237 37.5769 33.5266C37.353 33.5957 37.0745 33.6818 36.9956 33.776C36.9158 33.8711 36.8796 34.1613 36.8505 34.3944C36.8074 34.74 36.7585 35.1317 36.5585 35.4776C36.3592 35.8226 36.0448 36.0599 35.7674 36.2693C35.5794 36.4112 35.3454 36.5878 35.3024 36.7056C35.2607 36.8201 35.3252 37.1029 35.3771 37.3301C35.4549 37.6704 35.5431 38.0562 35.473 38.4529C35.4039 38.8443 35.1918 39.1711 35.0046 39.4594C34.8596 39.6826 34.6953 39.9357 34.7179 40.0637C34.7409 40.194 34.871 40.3946 34.9968 40.5887C35.188 40.8837 35.4048 41.2181 35.4758 41.6203C35.5467 42.023 35.4573 42.4115 35.3784 42.7544C35.3268 42.9788 35.2625 43.258 35.3029 43.3693C35.3468 43.4905 35.5822 43.6684 35.7712 43.8113C36.0466 44.0195 36.3588 44.2555 36.5564 44.5977C36.7579 44.9465 36.807 45.3392 36.8504 45.6856C36.8793 45.9169 36.9153 46.2047 36.9938 46.2981C37.0745 46.3941 37.3545 46.4799 37.5794 46.5489C37.9117 46.6508 38.2884 46.7663 38.594 47.0225C38.9003 47.2793 39.0802 47.6305 39.2388 47.9405C39.3459 48.1496 39.4791 48.4098 39.5867 48.472C39.6931 48.5335 39.9843 48.5191 40.2183 48.5074C40.3381 48.5015 40.4633 48.4953 40.5914 48.4953C40.8359 48.4953 41.0908 48.5179 41.3378 48.6081C41.7108 48.7444 41.998 49.0119 42.2516 49.2479C42.4244 49.4089 42.6394 49.6091 42.7646 49.6312C42.8828 49.6511 43.1511 49.5388 43.3669 49.4479C43.6891 49.3121 44.0544 49.1581 44.455 49.1577H44.4565C44.8495 49.1577 45.2085 49.3093 45.5252 49.4433C45.756 49.5408 46.0174 49.6509 46.1475 49.6285C46.2775 49.6055 46.4856 49.4122 46.669 49.2416C46.9212 49.0071 47.2071 48.7414 47.5771 48.6072C47.9537 48.4707 48.3495 48.4903 48.6987 48.5076C48.9326 48.5194 49.2237 48.5339 49.3273 48.474C49.4374 48.4104 49.571 48.1486 49.6783 47.9384C49.8358 47.6298 50.0143 47.2801 50.3182 47.0245C50.6249 46.7668 51.0025 46.65 51.3358 46.5471C51.5597 46.478 51.8383 46.3919 51.9173 46.2977C51.9969 46.2028 52.033 45.9127 52.0621 45.6797C52.1052 45.3341 52.1542 44.9423 52.3541 44.5962C52.5537 44.251 52.8681 44.0136 53.1456 43.8041C53.3335 43.6622 53.5672 43.4858 53.6101 43.3683C53.6519 43.2536 53.5874 42.971 53.5354 42.744C53.4577 42.4036 53.3695 42.0178 53.4396 41.6208C53.5086 41.2295 53.7208 40.9026 53.908 40.6142C54.0533 40.3908 54.2176 40.1376 54.195 40.01ZM51.6507 40.0367C51.6507 44.0037 48.4233 47.2309 44.4565 47.2309C40.4896 47.2309 37.2622 44.0037 37.2622 40.0367C37.2622 36.0698 40.4896 32.8425 44.4565 32.8425C48.4233 32.8425 51.6507 36.0698 51.6507 40.0367ZM50.4256 40.0367C50.4256 36.7453 47.7479 34.0675 44.4565 34.0675C41.165 34.0675 38.4873 36.7453 38.4873 40.0367C38.4873 43.3281 41.165 46.0059 44.4565 46.0059C47.7479 46.0059 50.4256 43.3281 50.4256 40.0367ZM48.6027 36.9464C49.222 37.5622 49.2253 38.5684 48.6101 39.1893C48.1286 39.6753 47.6483 40.1625 47.168 40.6497C46.367 41.462 45.5388 42.3021 44.7176 43.1233C44.4176 43.4233 44.0187 43.5885 43.5943 43.5885C43.1699 43.5885 42.7709 43.4233 42.4708 43.1233L40.3078 40.9603C40.0078 40.6603 39.8425 40.2614 39.8425 39.8369C39.8425 39.4125 40.0078 39.0136 40.3077 38.7135C40.6078 38.4135 41.0068 38.2483 41.4312 38.2483C41.8556 38.2483 42.2545 38.4135 42.5546 38.7135L43.59 39.7488L46.3572 36.9539C46.6554 36.6528 47.0531 36.4861 47.4772 36.4845C47.9018 36.4838 48.3017 36.6469 48.6027 36.9464ZM47.7388 37.8151C47.6701 37.7467 47.5807 37.7066 47.4818 37.7095C47.3855 37.7099 47.2951 37.7477 47.2276 37.816L44.0273 41.0483C43.9126 41.1641 43.7565 41.2294 43.5936 41.2298C43.593 41.2298 43.5925 41.2298 43.592 41.2298C43.4296 41.2298 43.2738 41.1653 43.1589 41.0504L41.6883 39.5798C41.6196 39.5111 41.5282 39.4732 41.4311 39.4732C41.3339 39.4732 41.2426 39.511 41.174 39.5797C41.1053 39.6484 41.0675 39.7397 41.0675 39.8369C41.0675 39.934 41.1053 40.0254 41.1739 40.094L43.3369 42.257C43.4056 42.3257 43.4969 42.3636 43.5941 42.3636C43.6913 42.3636 43.7826 42.3258 43.8512 42.2571C44.6694 41.4389 45.496 40.6005 46.2954 39.7896C46.7765 39.3016 47.2575 38.8138 47.7398 38.327C47.8805 38.1852 47.88 37.9555 47.7388 37.8151ZM28.4565 32.2822H22.7904C22.4522 32.2822 22.1779 32.5565 22.1779 32.8947C22.1779 33.233 22.4522 33.5072 22.7904 33.5072H28.4564C28.7947 33.5072 29.0689 33.233 29.0689 32.8947C29.0689 32.5565 28.7948 32.2822 28.4565 32.2822Z" fill="white"/>
</g>
<defs>
<clipPath id="clip0_8_3893">
<rect width="39.2009" height="39.2009" fill="white" transform="translate(17.4492 17.4622)"/>
</clipPath>
</defs>
</svg>
