<svg width="53" height="53" viewBox="0 0 53 53" fill="none" xmlns="http://www.w3.org/2000/svg">
<g opacity="0.6">
<g clip-path="url(#clip0_8_3852)">
<path d="M46.5818 0.696289H6.12713C2.91742 0.696289 0.31543 3.29828 0.31543 6.50799V46.9627C0.31543 50.1724 2.91742 52.7744 6.12713 52.7744H46.5818C49.7915 52.7744 52.3935 50.1724 52.3935 46.9627V6.50799C52.3935 3.29828 49.7915 0.696289 46.5818 0.696289Z" fill="#86B6FF"/>
<path d="M19.7777 24.7472L12.5503 27.2379L19.7952 29.7286V33.7924L7.56006 29.3703V25.1055L19.7952 20.6833L19.7777 24.7472Z" fill="white"/>
<path d="M28.0279 15.4659H32.8084L24.9429 38.0048H20.1362L28.0279 15.4659Z" fill="white"/>
<path d="M45.1307 25.1055V29.3703L32.8955 33.7924V29.7286L40.1405 27.2379L32.8955 24.7472V20.6833L45.1307 25.1055Z" fill="white"/>
</g>
</g>
<defs>
<clipPath id="clip0_8_3852">
<rect width="52.0781" height="52.0781" fill="white" transform="translate(0.31543 0.696289)"/>
</clipPath>
</defs>
</svg>
