<svg width="157" height="25" viewBox="0 0 157 25" fill="none" xmlns="http://www.w3.org/2000/svg">
<g clip-path="url(#clip0_9_5607)">
<path d="M11.88 2.55931C15.0309 2.55931 15.4047 2.57124 16.6497 2.62892C19.8479 2.77611 21.3417 4.31062 21.4873 7.52087C21.5443 8.77891 21.5551 9.15682 21.5551 12.3432C21.5551 15.5306 21.5433 15.9075 21.4873 17.1655C21.3407 20.3728 19.8508 21.9103 16.6497 22.0575C15.4047 22.1152 15.0329 22.1271 11.88 22.1271C8.72902 22.1271 8.35531 22.1152 7.11125 22.0575C3.90521 21.9093 2.41922 20.3678 2.27367 17.1645C2.21663 15.9065 2.20483 15.5296 2.20483 12.3422C2.20483 9.15582 2.21761 8.77891 2.27367 7.51987C2.4202 4.31062 3.91012 2.77511 7.11125 2.62793C8.35629 2.57124 8.72902 2.55931 11.88 2.55931V2.55931ZM11.88 0.408203C8.67493 0.408203 8.27368 0.422126 7.01487 0.479807C2.729 0.678707 0.347094 3.08341 0.150405 7.42142C0.0923815 8.69537 0.0786133 9.10113 0.0786133 12.3422C0.0786133 15.5833 0.0923815 15.99 0.149421 17.263C0.346111 21.597 2.72409 24.0057 7.01388 24.2046C8.27368 24.2623 8.67493 24.2762 11.88 24.2762C15.085 24.2762 15.4873 24.2623 16.7461 24.2046C21.028 24.0057 23.4158 21.601 23.6096 17.263C23.6676 15.99 23.6813 15.5833 23.6813 12.3422C23.6813 9.10113 23.6676 8.69537 23.6105 7.42241C23.4178 3.09236 21.0369 0.679702 16.7471 0.480802C15.4873 0.422126 15.085 0.408203 11.88 0.408203V0.408203ZM11.88 6.21409C8.53331 6.21409 5.81998 8.95792 5.81998 12.3422C5.81998 15.7265 8.53331 18.4713 11.88 18.4713C15.2267 18.4713 17.94 15.7275 17.94 12.3422C17.94 8.95792 15.2267 6.21409 11.88 6.21409ZM11.88 16.3202C9.70755 16.3202 7.94619 14.54 7.94619 12.3422C7.94619 10.1454 9.70755 8.3642 11.88 8.3642C14.0524 8.3642 15.8138 10.1454 15.8138 12.3422C15.8138 14.54 14.0524 16.3202 11.88 16.3202ZM18.1799 4.54035C17.3971 4.54035 16.7628 5.1818 16.7628 5.97243C16.7628 6.76306 17.3971 7.40451 18.1799 7.40451C18.9618 7.40451 19.5951 6.76306 19.5951 5.97243C19.5951 5.1818 18.9618 4.54035 18.1799 4.54035Z" fill="#0766E3"/>
</g>
<path d="M56.1354 0.408203C49.618 0.408203 44.334 5.75165 44.334 12.3422C44.334 18.9328 49.618 24.2762 56.1354 24.2762C62.6527 24.2762 67.9367 18.9328 67.9367 12.3422C67.9367 5.75165 62.6527 0.408203 56.1354 0.408203ZM59.0857 8.3642H57.758C57.2289 8.3642 57.1188 8.58399 57.1188 9.13792V10.3532H59.0857L58.8802 12.3422H57.1188V19.3037H54.1685V12.3422H52.2016V10.3532H54.1685V8.0579C54.1685 6.29863 55.084 5.3807 57.1473 5.3807H59.0857V8.3642Z" fill="#0766E3"/>
<g clip-path="url(#clip1_9_5607)">
<path d="M112.192 4.94034C111.323 5.33019 110.39 5.59273 109.41 5.71108C110.411 5.10543 111.179 4.14574 111.54 3.00206C110.604 3.56296 109.568 3.97071 108.464 4.19049C107.582 3.23875 106.322 2.64404 104.93 2.64404C101.803 2.64404 99.5061 5.59373 100.212 8.65579C96.1889 8.45192 92.621 6.5027 90.2322 3.54009C88.9636 5.74092 89.5743 8.61999 91.73 10.0779C90.9373 10.0521 90.1899 9.83229 89.5379 9.46532C89.4848 11.7338 91.0927 13.856 93.4215 14.3284C92.74 14.5154 91.9936 14.5591 91.2343 14.412C91.85 16.3572 93.6379 17.7724 95.7582 17.8122C93.7225 19.4262 91.1576 20.1472 88.5889 19.8409C90.7318 21.2303 93.2779 22.0408 96.0119 22.0408C105.003 22.0408 110.082 14.3622 109.775 7.47532C110.721 6.78415 111.543 5.92191 112.192 4.94034Z" fill="#0766E3"/>
</g>
<path d="M153.32 1.8999H136.084C135.143 1.8999 134.32 2.58517 134.32 3.52638V20.9948C134.32 21.9411 135.143 22.7844 136.084 22.7844H153.315C154.262 22.7844 154.972 21.9355 154.972 20.9948V3.52638C154.978 2.58517 154.262 1.8999 153.32 1.8999ZM140.722 19.3082H137.763V10.0057H140.722V19.3082ZM139.345 8.59133H139.323C138.377 8.59133 137.763 7.87856 137.763 6.9863C137.763 6.07773 138.393 5.38174 139.361 5.38174C140.329 5.38174 140.921 6.07261 140.942 6.9863C140.942 7.87856 140.329 8.59133 139.345 8.59133ZM151.535 19.3082H148.576V14.2218C148.576 13.0032 148.145 12.1706 147.075 12.1706C146.257 12.1706 145.773 12.73 145.558 13.275C145.477 13.4708 145.456 13.7374 145.456 14.0096V19.3082H142.497V10.0057H145.456V11.3003C145.886 10.6802 146.559 9.788 148.124 9.788C150.066 9.788 151.535 11.0826 151.535 13.8735L151.535 19.3082Z" fill="#0766E3"/>
<defs>
<clipPath id="clip0_9_5607">
<rect width="23.6027" height="23.868" fill="white" transform="translate(0.0786133 0.408203)"/>
</clipPath>
<clipPath id="clip1_9_5607">
<rect width="23.6027" height="23.868" fill="white" transform="translate(88.5894 0.408203)"/>
</clipPath>
</defs>
</svg>
