<svg width="31" height="30" viewBox="0 0 31 30" fill="none" xmlns="http://www.w3.org/2000/svg">
<g clip-path="url(#clip0_9_5451)">
<path d="M28.5491 29.0972H2.45083C2.38965 29.0973 2.32928 29.0832 2.27444 29.0561C2.21959 29.029 2.17175 28.9896 2.13464 28.9409C2.09753 28.8923 2.07216 28.8357 2.0605 28.7756C2.04884 28.7156 2.05121 28.6536 2.06743 28.5947L2.68802 26.3368C2.71108 26.2529 2.76104 26.1789 2.83023 26.1261C2.89942 26.0733 2.98402 26.0448 3.07102 26.0447H27.9289C28.0159 26.0448 28.1005 26.0733 28.1697 26.1261C28.2389 26.1789 28.2889 26.2529 28.3119 26.3368L28.9325 28.5947C28.9487 28.6536 28.9511 28.7156 28.9394 28.7756C28.9278 28.8357 28.9024 28.8923 28.8653 28.9409C28.8282 28.9896 28.7803 29.029 28.7255 29.0561C28.6707 29.0832 28.6103 29.0973 28.5491 29.0972ZM2.97209 28.3026H28.0278L27.6262 26.8394H3.37377L2.97209 28.3026Z" fill="white"/>
<path d="M16.8669 16.3874H15.6869C15.5815 16.3874 15.4804 16.3456 15.4059 16.2711C15.3314 16.1966 15.2896 16.0955 15.2896 15.9901C15.2896 15.8848 15.3314 15.7837 15.4059 15.7092C15.4804 15.6347 15.5815 15.5928 15.6869 15.5928H16.8669C16.9722 15.5928 17.0733 15.6347 17.1478 15.7092C17.2223 15.7837 17.2642 15.8848 17.2642 15.9901C17.2642 16.0955 17.2223 16.1966 17.1478 16.2711C17.0733 16.3456 16.9722 16.3874 16.8669 16.3874Z" fill="white"/>
<path d="M26.8666 26.8406H4.13266C4.02729 26.8406 3.92623 26.7987 3.85172 26.7242C3.77721 26.6497 3.73535 26.5487 3.73535 26.4433V15.9901C3.73535 15.8848 3.77721 15.7837 3.85172 15.7092C3.92623 15.6347 4.02729 15.5928 4.13266 15.5928H8.96788C9.07325 15.5928 9.17431 15.6347 9.24882 15.7092C9.32333 15.7837 9.36519 15.8848 9.36519 15.9901C9.36519 16.0955 9.32333 16.1966 9.24882 16.2711C9.17431 16.3456 9.07325 16.3874 8.96788 16.3874H4.52997V26.046H26.4692V16.3874H19.6475C19.5421 16.3874 19.4411 16.3456 19.3665 16.2711C19.292 16.1966 19.2502 16.0955 19.2502 15.9901C19.2502 15.8848 19.292 15.7837 19.3665 15.7092C19.4411 15.6347 19.5421 15.5928 19.6475 15.5928H26.8666C26.9719 15.5928 27.073 15.6347 27.1475 15.7092C27.222 15.7837 27.2639 15.8848 27.2639 15.9901V26.4433C27.2639 26.5487 27.222 26.6497 27.1475 26.7242C27.073 26.7987 26.9719 26.8406 26.8666 26.8406Z" fill="white"/>
<path d="M12.9055 16.3874H11.7494C11.644 16.3874 11.5429 16.3456 11.4684 16.2711C11.3939 16.1966 11.3521 16.0955 11.3521 15.9901C11.3521 15.8848 11.3939 15.7837 11.4684 15.7092C11.5429 15.6347 11.644 15.5928 11.7494 15.5928H12.9055C13.0109 15.5928 13.1119 15.6347 13.1865 15.7092C13.261 15.7837 13.3028 15.8848 13.3028 15.9901C13.3028 16.0955 13.261 16.1966 13.1865 16.2711C13.1119 16.3456 13.0109 16.3874 12.9055 16.3874Z" fill="white"/>
<path d="M16.8669 16.3874H15.6869C15.5815 16.3874 15.4804 16.3456 15.4059 16.2711C15.3314 16.1966 15.2896 16.0955 15.2896 15.9901C15.2896 15.8848 15.3314 15.7837 15.4059 15.7092C15.4804 15.6347 15.5815 15.5928 15.6869 15.5928H16.8669C16.9722 15.5928 17.0733 15.6347 17.1478 15.7092C17.2223 15.7837 17.2642 15.8848 17.2642 15.9901C17.2642 16.0955 17.2223 16.1966 17.1478 16.2711C17.0733 16.3456 16.9722 16.3874 16.8669 16.3874Z" fill="white"/>
<path d="M24.7611 16.3874H19.6477C19.5423 16.3874 19.4413 16.3456 19.3668 16.2711C19.2923 16.1966 19.2504 16.0955 19.2504 15.9901C19.2504 15.8848 19.2923 15.7837 19.3668 15.7092C19.4413 15.6347 19.5423 15.5928 19.6477 15.5928H24.3637V13.797H6.63592V15.5928H8.96811C9.07348 15.5928 9.17454 15.6347 9.24905 15.7092C9.32356 15.7837 9.36542 15.8848 9.36542 15.9901C9.36542 16.0955 9.32356 16.1966 9.24905 16.2711C9.17454 16.3456 9.07348 16.3874 8.96811 16.3874H6.23862C6.13324 16.3874 6.03219 16.3456 5.95768 16.2711C5.88317 16.1966 5.84131 16.0955 5.84131 15.9901V13.3997C5.84131 13.2943 5.88317 13.1933 5.95768 13.1187C6.03219 13.0442 6.13324 13.0024 6.23862 13.0024H24.7611C24.8664 13.0024 24.9675 13.0442 25.042 13.1187C25.1165 13.1933 25.1584 13.2943 25.1584 13.3997V15.9901C25.1584 16.0955 25.1165 16.1966 25.042 16.2711C24.9675 16.3456 24.8664 16.3874 24.7611 16.3874Z" fill="white"/>
<path d="M12.9055 16.3874H11.7494C11.644 16.3874 11.5429 16.3456 11.4684 16.2711C11.3939 16.1966 11.3521 16.0955 11.3521 15.9901C11.3521 15.8848 11.3939 15.7837 11.4684 15.7092C11.5429 15.6347 11.644 15.5928 11.7494 15.5928H12.9055C13.0109 15.5928 13.1119 15.6347 13.1865 15.7092C13.261 15.7837 13.3028 15.8848 13.3028 15.9901C13.3028 16.0955 13.261 16.1966 13.1865 16.2711C13.1119 16.3456 13.0109 16.3874 12.9055 16.3874Z" fill="white"/>
<path d="M20.8581 13.7966H10.1419C10.0366 13.7966 9.93551 13.7547 9.861 13.6802C9.78649 13.6057 9.74463 13.5046 9.74463 13.3993V10.7158C9.74463 10.6105 9.78649 10.5094 9.861 10.4349C9.93551 10.3604 10.0366 10.3185 10.1419 10.3185H20.8581C20.9635 10.3185 21.0645 10.3604 21.139 10.4349C21.2135 10.5094 21.2554 10.6105 21.2554 10.7158V13.3993C21.2554 13.5046 21.2135 13.6057 21.139 13.6802C21.0645 13.7547 20.9635 13.7966 20.8581 13.7966ZM10.5392 13.002H20.4608V11.1132H10.5392V13.002Z" fill="white"/>
<path d="M23.9799 26.8394H21.6998C21.5944 26.8394 21.4933 26.7975 21.4188 26.723C21.3443 26.6485 21.3024 26.5474 21.3024 26.4421V20.9239C21.2992 20.7199 21.3365 20.5173 21.4123 20.3279C21.4881 20.1385 21.6008 19.9661 21.7439 19.8207C21.887 19.6753 22.0576 19.5598 22.2457 19.481C22.4339 19.4022 22.6358 19.3616 22.8398 19.3616C23.0438 19.3616 23.2458 19.4022 23.4339 19.481C23.6221 19.5598 23.7927 19.6753 23.9358 19.8207C24.0788 19.9661 24.1916 20.1385 24.2673 20.3279C24.3431 20.5173 24.3805 20.7199 24.3772 20.9239V26.4421C24.3772 26.5474 24.3353 26.6485 24.2608 26.723C24.1863 26.7975 24.0853 26.8394 23.9799 26.8394ZM22.0971 26.0448H23.5826V20.9239C23.5849 20.8249 23.5674 20.7264 23.5311 20.6343C23.4948 20.5422 23.4404 20.4583 23.3712 20.3874C23.302 20.3166 23.2194 20.2604 23.1281 20.2219C23.0369 20.1835 22.9388 20.1637 22.8398 20.1637C22.7408 20.1637 22.6428 20.1835 22.5515 20.2219C22.4603 20.2604 22.3776 20.3166 22.3084 20.3874C22.2392 20.4583 22.1849 20.5422 22.1486 20.6343C22.1123 20.7264 22.0948 20.8249 22.0971 20.9239V26.0448Z" fill="white"/>
<path d="M19.0868 26.8394H16.8067C16.7013 26.8394 16.6003 26.7975 16.5257 26.723C16.4512 26.6485 16.4094 26.5474 16.4094 26.4421V20.9239C16.4061 20.7199 16.4434 20.5173 16.5192 20.3279C16.595 20.1385 16.7077 19.9661 16.8508 19.8207C16.9939 19.6753 17.1645 19.5598 17.3526 19.481C17.5408 19.4022 17.7428 19.3616 17.9468 19.3616C18.1508 19.3616 18.3527 19.4022 18.5409 19.481C18.729 19.5598 18.8996 19.6753 19.0427 19.8207C19.1858 19.9661 19.2985 20.1385 19.3743 20.3279C19.4501 20.5173 19.4874 20.7199 19.4841 20.9239V26.4421C19.4841 26.5474 19.4423 26.6485 19.3678 26.723C19.2933 26.7975 19.1922 26.8394 19.0868 26.8394ZM17.204 26.0448H18.6895V20.9239C18.6918 20.8249 18.6743 20.7264 18.638 20.6343C18.6017 20.5422 18.5473 20.4583 18.4782 20.3874C18.409 20.3166 18.3263 20.2604 18.235 20.2219C18.1438 20.1835 18.0458 20.1637 17.9468 20.1637C17.8477 20.1637 17.7497 20.1835 17.6585 20.2219C17.5672 20.2604 17.4846 20.3166 17.4154 20.3874C17.3462 20.4583 17.2918 20.5422 17.2555 20.6343C17.2192 20.7264 17.2017 20.8249 17.204 20.9239V26.0448Z" fill="white"/>
<path d="M14.1928 26.8394H11.9126C11.8073 26.8394 11.7062 26.7975 11.6317 26.723C11.5572 26.6485 11.5153 26.5474 11.5153 26.4421V20.9239C11.5121 20.7199 11.5494 20.5173 11.6252 20.3279C11.701 20.1385 11.8137 19.9661 11.9568 19.8207C12.0999 19.6753 12.2705 19.5598 12.4586 19.481C12.6468 19.4022 12.8487 19.3616 13.0527 19.3616C13.2567 19.3616 13.4587 19.4022 13.6468 19.481C13.835 19.5598 14.0056 19.6753 14.1486 19.8207C14.2917 19.9661 14.4045 20.1385 14.4802 20.3279C14.556 20.5173 14.5934 20.7199 14.5901 20.9239V26.4421C14.5901 26.5474 14.5482 26.6485 14.4737 26.723C14.3992 26.7975 14.2982 26.8394 14.1928 26.8394ZM12.3099 26.0448H13.7955V20.9239C13.7978 20.8249 13.7802 20.7264 13.744 20.6343C13.7077 20.5422 13.6533 20.4583 13.5841 20.3874C13.5149 20.3166 13.4323 20.2604 13.341 20.2219C13.2497 20.1835 13.1517 20.1637 13.0527 20.1637C12.9537 20.1637 12.8557 20.1835 12.7644 20.2219C12.6732 20.2604 12.5905 20.3166 12.5213 20.3874C12.4521 20.4583 12.3978 20.5422 12.3615 20.6343C12.3252 20.7264 12.3077 20.8249 12.3099 20.9239V26.0448Z" fill="white"/>
<path d="M9.30171 26.8394H7.01958C6.9142 26.8394 6.81315 26.7975 6.73864 26.723C6.66413 26.6485 6.62227 26.5474 6.62227 26.4421V20.9239C6.61899 20.7199 6.65633 20.5173 6.73212 20.3279C6.80791 20.1385 6.92063 19.9661 7.06371 19.8207C7.2068 19.6753 7.37738 19.5598 7.56554 19.481C7.75369 19.4022 7.95565 19.3616 8.15965 19.3616C8.36364 19.3616 8.5656 19.4022 8.75376 19.481C8.94191 19.5598 9.1125 19.6753 9.25558 19.8207C9.39867 19.9661 9.51139 20.1385 9.58717 20.3279C9.66296 20.5173 9.7003 20.7199 9.69703 20.9239V26.4421C9.69703 26.5471 9.65544 26.6478 9.58136 26.7223C9.50728 26.7967 9.40673 26.8388 9.30171 26.8394ZM7.41887 26.0448H8.9044V20.9239C8.90669 20.8249 8.88917 20.7264 8.85287 20.6343C8.81657 20.5422 8.76223 20.4583 8.69303 20.3874C8.62383 20.3166 8.54117 20.2604 8.44992 20.2219C8.35866 20.1835 8.26065 20.1637 8.16163 20.1637C8.06262 20.1637 7.96461 20.1835 7.87335 20.2219C7.78209 20.2604 7.69944 20.3166 7.63024 20.3874C7.56104 20.4583 7.5067 20.5422 7.4704 20.6343C7.4341 20.7264 7.41658 20.8249 7.41887 20.9239V26.0448Z" fill="white"/>
<path d="M21.9985 11.1132H9.0018C8.89643 11.1132 8.79537 11.0713 8.72086 10.9968C8.64635 10.9223 8.60449 10.8212 8.60449 10.7158C8.60449 10.6105 8.64635 10.5094 8.72086 10.4349C8.79537 10.3604 8.89643 10.3185 9.0018 10.3185H21.9985C22.1039 10.3185 22.2049 10.3604 22.2794 10.4349C22.3539 10.5094 22.3958 10.6105 22.3958 10.7158C22.3958 10.8212 22.3539 10.9223 22.2794 10.9968C22.2049 11.0713 22.1039 11.1132 21.9985 11.1132Z" fill="white"/>
<path d="M15.2894 11.1131C15.184 11.1131 15.083 11.0713 15.0085 10.9968C14.9339 10.9223 14.8921 10.8212 14.8921 10.7158V1.68307C14.8921 1.5777 14.9339 1.47664 15.0085 1.40214C15.083 1.32763 15.184 1.28577 15.2894 1.28577C15.3948 1.28577 15.4958 1.32763 15.5703 1.40214C15.6448 1.47664 15.6867 1.5777 15.6867 1.68307V10.7158C15.6867 10.8212 15.6448 10.9223 15.5703 10.9968C15.4958 11.0713 15.3948 11.1131 15.2894 11.1131Z" fill="white"/>
<path d="M15.2894 6.07927C15.184 6.07927 15.083 6.03742 15.0085 5.96291C14.9339 5.8884 14.8921 5.78734 14.8921 5.68197V1.68308C14.8921 1.61534 14.9093 1.54873 14.9423 1.48956C14.9753 1.43039 15.0228 1.38062 15.0804 1.34499C15.138 1.30937 15.2038 1.28905 15.2714 1.28599C15.3391 1.28293 15.4064 1.29721 15.467 1.32749L19.4663 3.32713C19.5323 3.36012 19.5878 3.41085 19.6266 3.47362C19.6654 3.53639 19.686 3.60873 19.686 3.68252C19.686 3.75632 19.6654 3.82865 19.6266 3.89143C19.5878 3.9542 19.5323 4.00492 19.4663 4.03791L15.467 6.03756C15.4118 6.06505 15.351 6.07933 15.2894 6.07927ZM15.6867 2.32592V5.03912L18.4003 3.68272L15.6867 2.32592Z" fill="white"/>
</g>
<defs>
<clipPath id="clip0_9_5451">
<rect width="29.4007" height="29.4007" fill="white" transform="translate(0.799316 0.49115)"/>
</clipPath>
</defs>
</svg>
