<svg width="601" height="294" viewBox="0 0 601 294" fill="none" xmlns="http://www.w3.org/2000/svg">
<g clip-path="url(#clip0_8_3700)">
<path d="M87.094 149.381C87.094 149.757 87.1717 150.132 87.1976 150.495C87.4307 155.753 84.6073 159.755 75.399 158.11C74.2814 157.881 73.2603 157.316 72.4721 156.491C69.187 153.193 66.3835 149.448 64.1444 145.366C63.1285 143.675 62.6163 141.73 62.668 139.758C62.208 139.087 61.6639 138.478 61.0491 137.945C60.5456 137.595 59.9778 137.349 59.3784 137.22C59.2398 138.2 59.4458 139.198 59.9612 140.043C60.8419 141.792 58.0574 144.408 56.0758 139.94C54.3922 136.223 54.9361 133.827 56.8529 133.037C56.3654 133.011 55.8769 133.011 55.3894 133.037C48.6936 133.451 48.9138 127.856 55.9334 127.856C56.6975 127.856 57.4875 127.856 58.2905 127.96C58.2375 127.829 58.1943 127.695 58.161 127.558C57.7336 127.481 57.2933 127.416 56.8659 127.377C50.0535 126.833 51.8019 121.316 58.42 122.455C60.3212 122.809 62.1887 123.325 64.002 123.997C63.3198 123.494 62.6061 123.035 61.865 122.624C56.9436 120.034 58.8344 115.332 63.7041 117.599C69.5709 120.663 74.7702 124.863 78.9995 129.954C82.302 134.241 86.3428 143.022 87.094 149.381Z" fill="#EFB3A6"/>
<path d="M65.5044 125.227C70.5165 129.669 71.6821 132.376 71.6821 132.376" stroke="#D17A80" stroke-width="1.41123" stroke-miterlimit="10"/>
<path d="M58.6919 134.824C60.2106 135.268 61.5344 136.213 62.4477 137.505" stroke="#D17A80" stroke-width="1.41123" stroke-miterlimit="10"/>
<path d="M66.7736 142.685C65.1676 139.719 64.9992 136.896 63.6394 134.914C61.8132 132.324 57.4875 128.361 58.1481 126.846C59.4432 123.906 62.3183 125.706 65.4655 128.322C68.6126 130.938 74.1946 134.396 76.6812 133.218" stroke="#D17A80" stroke-width="1.41123" stroke-miterlimit="10"/>
<path d="M195.405 136.844C194.472 139.616 193.294 142.672 191.83 145.91C187.473 155.531 182.042 164.629 175.641 173.03C172.714 176.915 169.45 180.904 165.785 185.01L165.254 185.592C163.571 187.457 161.796 189.335 159.944 191.252C158.43 192.809 156.682 194.12 154.764 195.137L138.821 176.423L141.489 171.411L143.134 168.367C143.885 166.982 144.714 165.466 145.581 163.834L146.294 162.539C146.851 161.477 147.446 160.389 148.055 159.25C157.212 142.517 170.525 118.518 175.861 112.043C176.431 111.525 176.988 111.032 177.519 110.579L186.442 114.024L191.234 115.889C191.688 116.55 192.141 117.262 192.529 117.987C194.241 124.135 195.206 130.466 195.405 136.844Z" fill="#EDB1A4"/>
<path d="M163.921 185.864C162.834 187.864 161.493 189.714 159.932 191.369C158.418 192.925 156.67 194.236 154.751 195.254C127.787 209.656 74.687 157.942 74.687 157.942L83.0923 148.189L143.108 168.458L145.867 169.391L163.921 185.864Z" fill="#EDB1A4"/>
<path d="M301.941 234.457L185.704 236.374L177.584 117.845C176.807 112.392 177.895 109.297 183.023 107.277C189.163 104.767 195.484 102.728 201.932 101.177C203.629 100.801 205.39 100.438 207.203 100.127C212.048 99.2693 216.957 98.8359 221.877 98.8323L237.872 97.6797C237.872 97.6797 243.519 97.7962 251.16 98.5086C254.216 98.7805 257.635 99.1561 261.093 99.6612C264.551 100.166 268.268 100.814 271.739 101.63C275.314 102.468 278.439 104.629 280.484 107.679C282.529 110.728 283.342 114.439 282.761 118.065L301.941 234.457Z" fill="#0088BB"/>
<path d="M261.184 99.6612C200.313 135.445 200.663 109.297 201.997 101.138C203.694 100.762 205.455 100.399 207.268 100.089C212.112 99.2304 217.022 98.797 221.942 98.7935L237.872 97.6797C237.872 97.6797 243.519 97.7962 251.16 98.5086C254.242 98.7805 257.635 99.1561 261.184 99.6612Z" fill="#006891"/>
<path d="M251.185 98.5086C198.319 130.718 207.151 100.089 207.151 100.089C211.995 99.2304 216.905 98.797 221.825 98.7935L237.871 97.6797C237.871 97.6797 243.544 97.7962 251.185 98.5086Z" fill="#EFB3A6"/>
<path d="M183.736 53.8787C183.736 53.8787 174.243 54.0212 175.188 46.108C176.134 38.1948 184.772 38.0912 184.772 38.0912L183.736 53.8787Z" fill="#33324F"/>
<path d="M245.488 30.3077C244.23 29.1384 242.737 28.2515 241.109 27.7064C239.48 27.1614 237.754 26.9709 236.046 27.1476C234.531 14.9994 215.752 14.1964 206.168 15.3102C206.168 15.1159 206.284 14.9346 206.362 14.7404C206.423 14.6403 206.466 14.5309 206.492 14.4166C207.23 11.1529 207.683 6.73651 205.585 3.83544C204.606 2.64387 203.331 1.73148 201.887 1.1903C200.443 0.649126 198.882 0.498306 197.361 0.753055C190.976 1.59488 188.489 7.22866 187.816 13.0178C184.565 9.3397 177.455 8.96412 174.45 13.5229C170.332 19.7913 174.709 25.3992 178.336 30.3595C174.839 30.8646 168.454 33.0145 169.93 37.4179C171.601 42.4041 180.434 40.3837 184.021 39.4771C184.139 39.4492 184.249 39.3962 184.345 39.3217C184.526 39.4083 184.73 39.4365 184.928 39.4026C185.126 39.3686 185.308 39.2741 185.45 39.1321C185.592 38.99 185.687 38.8075 185.721 38.6095C185.755 38.4115 185.727 38.2079 185.64 38.0266C184.215 34.5816 199.291 33.4807 201.285 33.3124C206.466 32.885 211.737 32.4187 216.956 32.2763C221.981 32.1338 226.76 32.7943 229.907 37.4568C233.054 42.1192 235.256 47.2349 237.808 52.0657C237.805 52.0959 237.805 52.1262 237.808 52.1564C238.111 55.7786 237.751 59.4257 236.746 62.9188C236.474 63.8513 237.6 64.3694 238.274 63.9808C246.575 59.1241 249.93 51.457 249.243 41.7307C248.971 37.5215 248.661 33.3253 245.488 30.3077Z" fill="#33324F"/>
<path d="M239.828 101.682C219.689 107.005 207.942 111.628 210.765 103.689L211.387 100.62L211.542 99.8167L213.265 91.3207L214.923 83.0708L215.739 79.0689L237.212 77.178L238.351 87.9793L238.83 92.4345L239.828 101.682Z" fill="#EFB3A6"/>
<path d="M238.843 92.4086C236.149 93.4706 216.515 101.125 211.387 100.671L211.542 99.8685L213.265 91.3207L237.393 79.0559L238.843 92.4086Z" fill="#D17A80"/>
<path d="M182.946 54.3968C182.946 55.2257 183.063 56.0416 183.127 56.8964C183.127 57.4145 183.179 57.9325 183.283 58.4506C183.584 61.527 184.082 64.581 184.772 67.5941C185.472 70.6501 186.47 73.6301 187.751 76.4916C188.622 78.4268 189.676 80.2743 190.898 82.0088C198.216 92.3698 208.939 93.5483 216.036 92.8878C224.235 92.1237 236.758 88.1088 240.799 71.5183C242.161 65.4355 242.52 59.1708 241.861 52.9722C241.861 52.1951 241.732 51.444 241.641 50.6798C241.55 49.9157 241.46 49.035 241.343 48.2321C238.831 29.9968 230.49 16.1779 209.043 18.1723C187.362 20.2057 181.858 35.7083 182.946 54.3968Z" fill="#EDB1A4"/>
<path d="M227.666 38.0912C227.666 38.0912 225.167 59.6808 232.186 64.3303C232.186 64.3303 239.853 69.5108 241.485 49.0091L227.666 38.0912Z" fill="#33324F"/>
<path d="M230.101 46.5096C230.101 46.5096 217.564 48.9444 216.489 38.4928C216.489 38.4928 208.991 45.9915 200.844 38.7907C200.844 38.7907 199.2 45.4217 188.994 43.9712C188.994 43.9712 191.273 52.7521 182.868 53.8529L180.55 49.1646L181.754 38.8036L184.772 31.7452L191.999 22.6794L199.666 18.9883L209.379 17.4989H217.487L227.2 19.6618L234.323 26.228L240.177 33.9987L241.809 49.0221L240.229 50.3172L230.101 46.5096Z" fill="#33324F"/>
<path d="M232.898 58.7095C232.97 60.6131 233.274 62.5008 233.805 64.3303C234.012 65.1463 234.258 65.9233 234.478 66.6357C234.478 66.7522 234.543 66.8558 234.582 66.9594C234.63 67.1358 234.709 67.3024 234.815 67.4516C234.932 67.6666 235.09 67.8559 235.281 68.0085C236.219 69.021 237.447 69.718 238.797 70.0033C240.147 70.2886 241.552 70.1482 242.819 69.6015C243.69 69.2845 244.501 68.8201 245.215 68.2286C247.582 66.3713 249.219 63.7392 249.839 60.7947C250.284 58.354 249.921 55.8346 248.803 53.6197C248.408 52.7921 247.898 52.0247 247.287 51.3403C246.579 50.5339 245.692 49.9041 244.697 49.5012C244.167 49.2618 243.604 49.1046 243.026 49.035C240.576 48.8234 238.134 49.5296 236.175 51.0165C235.418 51.5297 234.764 52.1798 234.245 52.9333C233.195 54.6672 232.724 56.69 232.898 58.7095Z" fill="#EFB3A6"/>
<path d="M238.675 65.4183C238.675 65.4183 234.569 52.0657 245.151 55.4977" stroke="#D17A80" stroke-width="1.45043" stroke-miterlimit="10"/>
<path d="M237.937 61.3256L242.509 59.2534" stroke="#D17A80" stroke-width="1.45043" stroke-miterlimit="10"/>
<path d="M206.193 73.5776L195.612 74.6137C204.211 73.1632 201.802 60.1602 201.802 60.1602" stroke="#D17A80" stroke-width="1.45043" stroke-miterlimit="10"/>
<g opacity="0.5">
<path d="M216.023 83.5501C217.176 85.2855 209.833 87.4354 209.004 85.6741C208.175 83.9127 214.832 81.724 216.023 83.5501Z" fill="#D17A80"/>
</g>
<path d="M219.442 73.0724C217.008 78.8745 210.092 81.0244 203.331 80.3639" stroke="#D17A80" stroke-width="1.45043" stroke-miterlimit="10"/>
<path d="M189.422 61.0926C189.629 63.0612 190.898 64.5506 192.245 64.4081C193.592 64.2657 194.537 62.5561 194.343 60.5875C194.149 58.6189 192.88 57.1296 191.52 57.2591C190.16 57.3886 189.227 59.1111 189.422 61.0926Z" fill="#33324F"/>
<path d="M212.41 58.7484C212.604 60.717 213.873 62.2064 215.233 62.0639C216.593 61.9214 217.525 60.2119 217.318 58.2433C217.111 56.2747 215.855 54.7853 214.56 54.9148C213.265 55.0443 212.203 56.7668 212.41 58.7484Z" fill="#33324F"/>
<path d="M211.14 54.2544C218.29 54.6559 222.33 52.6744 216.153 51.8196C209.975 50.9648 207.423 54.0472 211.14 54.2544Z" fill="#33324F"/>
<path d="M193.838 52.765C187.518 56.1323 183.011 56.0287 188.256 52.6614C193.501 49.2941 197.114 51.0296 193.838 52.765Z" fill="#33324F"/>
<path d="M221.54 54.9797C220.475 53.272 218.955 51.8951 217.15 51.0036C216.939 50.902 216.723 50.8113 216.502 50.7317C215.447 50.2967 214.326 50.0428 213.187 49.9805H212.565C209.978 49.9805 207.479 50.9275 205.542 52.643C203.605 54.3585 202.362 56.7237 202.049 59.2924H196.234C196.052 57.7708 195.54 56.3075 194.731 55.0056C193.778 53.4751 192.453 52.2113 190.879 51.3325C189.305 50.4537 187.533 49.9885 185.73 49.9805C184.375 49.9767 183.033 50.2408 181.78 50.7576C179.983 51.4714 178.422 52.6737 177.273 54.2285C177.077 54.474 176.9 54.7337 176.742 55.0056C175.801 56.5114 175.257 58.2315 175.162 60.0047C175.162 60.1861 175.162 60.3803 175.162 60.5616C175.161 61.1651 175.213 61.7675 175.318 62.3619C175.511 63.4842 175.883 64.5685 176.418 65.5737C176.619 65.9398 176.839 66.2944 177.079 66.6357C178.536 68.6905 180.667 70.1705 183.101 70.819C183.864 71.0127 184.646 71.1213 185.432 71.1428H185.743C187.451 71.1425 189.133 70.7332 190.649 69.949C192.166 69.1648 193.472 68.0287 194.459 66.6357C195.176 65.6415 195.699 64.5211 196.001 63.3332C196.091 63.0143 196.16 62.6898 196.208 62.3619C196.286 61.8823 196.325 61.3972 196.324 60.9113H201.997C201.996 61.3972 202.035 61.8823 202.114 62.3619C202.161 62.6898 202.231 63.0143 202.321 63.3332C202.628 64.5191 203.151 65.6385 203.862 66.6357C204.848 68.0295 206.155 69.1662 207.671 69.9504C209.188 70.7347 210.871 71.1436 212.578 71.1428H213.07C214.471 71.0791 215.845 70.7357 217.111 70.1326C218.506 69.4592 219.739 68.4916 220.724 67.2963C220.893 67.089 221.061 66.8689 221.217 66.6487C222.112 65.3713 222.713 63.9118 222.978 62.3748C223.083 61.7805 223.135 61.1781 223.133 60.5746C223.137 58.5972 222.585 56.6586 221.54 54.9797ZM194.615 63.3073C194.229 64.52 193.603 65.643 192.776 66.6098C191.904 67.6331 190.82 68.454 189.599 69.0154C188.377 69.5768 187.049 69.8652 185.704 69.8606H185.471C184.165 69.8297 182.88 69.5243 181.7 68.9642C180.519 68.4042 179.47 67.602 178.62 66.6098C177.57 65.3909 176.86 63.9168 176.561 62.3359C176.434 61.7445 176.373 61.1407 176.38 60.5357C176.38 58.0626 177.362 55.6908 179.111 53.9421C180.859 52.1933 183.231 51.2109 185.704 51.2109C188.178 51.2109 190.549 52.1933 192.298 53.9421C194.047 55.6908 195.029 58.0626 195.029 60.5357C195.036 61.1407 194.975 61.7445 194.848 62.3359C194.779 62.664 194.701 62.9878 194.615 63.3073ZM219.611 66.6098C218.779 67.5775 217.758 68.3651 216.611 68.9241C215.464 69.4831 214.215 69.8018 212.941 69.8606H212.539C210.549 69.8641 208.609 69.2296 207.006 68.0502C205.402 66.8708 204.219 65.2086 203.629 63.3073C203.524 62.9907 203.446 62.6657 203.396 62.3359C203.264 61.7449 203.199 61.1412 203.201 60.5357C203.291 58.1211 204.314 55.8353 206.054 54.1588C207.794 52.4823 210.116 51.5456 212.533 51.5456C214.949 51.5456 217.271 52.4823 219.012 54.1588C220.752 55.8353 221.774 58.1211 221.864 60.5357C221.868 61.1399 221.812 61.743 221.696 62.3359C221.376 63.915 220.658 65.3861 219.611 66.6098Z" fill="white"/>
<path d="M290.712 115.928C295.421 128.951 298.044 142.637 298.483 156.478C298.703 161.555 298.716 166.982 298.483 172.771C298.276 177.291 297.9 182.018 297.33 187.017H297.136L272.296 182.575C272.296 182.575 271.855 180.503 271.156 177.019C270.716 174.739 270.133 171.838 269.498 168.562C269.162 166.956 268.838 165.233 268.488 163.446C264.409 142.335 258.684 110.851 260.096 107.069L274.135 102.342C274.899 102.562 275.702 102.834 276.505 103.132C281.744 106.803 286.516 111.1 290.712 115.928Z" fill="#EDB1A4"/>
<path d="M273.293 176.358L209.962 195.785L208.835 208.607C208.835 208.607 302.628 222.723 297.447 179.169L273.293 176.358Z" fill="#EDB1A4"/>
<path d="M190.146 206.418C187.054 206.535 183.997 207.12 181.081 208.153C176.716 209.811 176.677 205.149 180.588 203.659C178.838 203.911 177.138 204.436 175.55 205.214C175.106 205.498 174.572 205.608 174.05 205.524C173.529 205.44 173.057 205.167 172.725 204.757C172.392 204.348 172.221 203.83 172.245 203.303C172.27 202.775 172.487 202.275 172.857 201.898C172.33 202.091 171.751 202.089 171.226 201.891C170.701 201.694 170.264 201.315 169.994 200.823C169.049 199.049 171.017 197.236 171.782 196.705C171.782 196.705 168.233 193.609 175.783 190.307C183.334 187.004 193.384 185.126 205.986 191.472C214.663 195.798 215.207 202.597 213.161 206.12C209.379 212.531 197.917 213.567 190.146 206.418Z" fill="#EFB3A6"/>
<path d="M180.55 203.659C187.103 201.238 190.173 201.497 190.173 201.497" stroke="#D17A80" stroke-width="1.41123" stroke-miterlimit="10"/>
<path d="M172.818 201.898C182.881 196.925 188.036 197.326 188.036 197.326" stroke="#D17A80" stroke-width="1.41123" stroke-miterlimit="10"/>
<path d="M171.743 196.705C178.037 192.703 186.598 192.262 186.598 192.262" stroke="#D17A80" stroke-width="1.41123" stroke-miterlimit="10"/>
<path d="M307.99 173.224L298.458 172.797L263.36 171.864V170.142L254.708 104.466L261.806 101.177C265.978 100.71 270.201 101.106 274.213 102.342C274.977 102.562 275.78 102.834 276.583 103.132C289.897 108.157 307.588 123.181 307.99 173.224Z" fill="#0088BB"/>
<path d="M181.379 108.002C181.379 108.002 157.535 120.383 143.186 161.102L172.818 188.817L189.175 168.497L181.379 108.002Z" fill="#0088BB"/>
<path d="M265.588 178.728L274.2 176.035" stroke="#D17A80" stroke-width="1.41123" stroke-miterlimit="10"/>
<path d="M135.441 165.855L147.421 169.922" stroke="#D17A80" stroke-width="1.41123" stroke-miterlimit="10"/>
<path d="M181.69 177.822C181.69 177.822 180.006 149.329 181.69 136.378" stroke="#005467" stroke-width="0.725217" stroke-miterlimit="10"/>
<path d="M181.327 145.936L178.024 139.434" stroke="#005467" stroke-width="0.725217" stroke-miterlimit="10"/>
<path d="M270.159 172.045L265.587 171.916L258.011 129.721" stroke="#005467" stroke-width="0.725217" stroke-miterlimit="10"/>
<path d="M259.177 136.158L255.33 132.337" stroke="#005467" stroke-width="0.725217" stroke-miterlimit="10"/>
<path d="M371.36 54.7335C371.36 54.7335 353.137 60.7947 358.318 77.683C358.318 77.683 344.305 75.9994 340.51 94.5196C340.51 94.5196 319.179 93.7166 320.345 115.63C321.511 137.543 345.833 126.198 345.833 126.198C345.833 126.198 352.037 145.897 368.757 136.171C368.757 136.171 379.117 150.287 390.644 136.171L371.36 54.7335Z" fill="#33324F"/>
<path d="M422.698 61.6235C422.698 61.6235 438.007 73.2796 427.529 87.5259C427.529 87.5259 441.335 90.5047 438.887 109.219C438.887 109.219 459.311 115.41 451.049 135.743C442.786 156.077 423.514 137.427 423.514 137.427C423.514 137.427 411.224 154.017 398.583 139.37C398.583 139.37 384.169 149.316 377.861 132.233L422.698 61.6235Z" fill="#33324F"/>
<path d="M430.676 63.8901C430.469 65.0298 430.236 66.2083 429.951 67.4257C429.217 70.562 428.305 73.6537 427.218 76.6859L427.128 76.8931C426.687 78.1882 426.208 79.4833 425.69 80.7784C425.386 81.5176 424.877 82.1544 424.223 82.6135C423.569 83.0725 422.797 83.3346 421.999 83.3687L379.687 84.8451C376.437 84.9617 374.507 81.2188 373.341 78.1234C368.912 65.8327 360.39 37.0293 390.463 27.2511C395.712 25.5387 401.315 25.2086 406.729 26.2927C417.893 28.5981 435.533 36.4724 430.676 63.8901Z" fill="#33324F"/>
<path d="M419.746 188.804C419.314 190.882 419.153 193.006 419.267 195.125C419.391 197.144 419.828 199.132 420.562 201.017C431.065 227.567 499.979 222.801 499.979 222.801L499.875 210.795L444.988 188.999L442.462 188.001L419.746 188.804Z" fill="#E8776E"/>
<path d="M443.472 195.487L422.893 205.576C421.638 203.99 420.641 202.215 419.94 200.318C419.076 198.004 418.261 195.733 417.492 193.506L417.259 192.819C415.64 187.937 414.332 183.313 413.27 178.91C410.914 169.348 409.646 159.551 409.488 149.705C409.488 146.35 409.579 143.229 409.812 140.639C412.305 135.203 415.454 130.092 419.189 125.421C419.823 124.955 420.484 124.515 421.106 124.126H421.805L425.91 124.281L432.645 124.553C433.474 125.551 434.316 126.677 435.235 127.934C435.667 128.555 436.099 129.216 436.53 129.915C438.46 139.952 440.597 161.659 441.996 177.342C442.099 178.547 442.19 179.7 442.281 180.813C442.281 181.28 442.358 181.746 442.397 182.186C442.436 182.627 442.475 183.067 442.514 183.481C442.63 184.712 442.721 185.877 442.812 186.965C442.902 188.053 443.019 189.219 443.084 190.177C443.317 193.518 443.472 195.487 443.472 195.487Z" fill="#E8776E"/>
<path d="M440.416 187.276L447.202 189.879" stroke="#924541" stroke-width="1.35243" stroke-miterlimit="10"/>
<path d="M495.355 209.06C495.096 209.306 494.85 209.539 494.617 209.785C491.275 213.373 490.874 217.932 498.424 222.322C499.353 222.831 500.415 223.044 501.468 222.931C505.793 222.572 510.044 221.6 514.095 220.043C515.837 219.456 517.375 218.382 518.524 216.947C519.268 216.719 520.039 216.597 520.817 216.585C521.384 216.631 521.935 216.794 522.436 217.064C521.954 217.855 521.205 218.447 520.325 218.735C518.641 219.434 519.03 222.983 523.174 221.027C526.606 219.395 527.668 217.362 526.787 215.639C527.148 215.919 527.494 216.217 527.823 216.533C532.343 220.872 535.491 216.753 530.543 212.557C529.999 212.091 529.416 211.637 528.808 211.262L529.132 211.055C529.494 211.262 529.844 211.482 530.181 211.715C535.361 215.432 537.433 210.42 532.033 207.286C530.472 206.382 528.833 205.619 527.137 205.006C527.925 205.052 528.709 205.156 529.481 205.317C534.584 206.405 536.047 201.963 531.217 200.642C525.194 199.278 518.96 199.124 512.878 200.189C506.436 201.768 500.441 204.803 495.355 209.06Z" fill="#E8776E"/>
<path d="M525.272 204.903C519.043 205.045 516.569 206.263 516.569 206.263" stroke="#924541" stroke-width="1.35243" stroke-miterlimit="10"/>
<path d="M524.326 215.834C522.976 215.242 521.467 215.119 520.04 215.484" stroke="#924541" stroke-width="1.35243" stroke-miterlimit="10"/>
<path d="M513.849 216.546C516.776 215.419 518.602 213.515 520.739 212.958C523.588 212.207 529.067 212 529.507 210.524C530.375 207.661 527.228 207.195 523.42 207.169C519.612 207.143 513.538 206.211 512.489 203.88" stroke="#924541" stroke-width="1.35243" stroke-miterlimit="10"/>
<path d="M437.048 124.333C437.087 124.699 437.087 125.068 437.048 125.434L432.982 184.867L429.485 235.947L321.096 234.198L338.891 125.667C338.352 122.289 339.111 118.831 341.016 115.989C342.921 113.147 345.831 111.131 349.161 110.346C352.399 109.595 355.792 109.051 359.095 108.52L361.478 108.183C363.136 107.976 364.755 107.795 366.309 107.639L368.355 107.445L369.78 107.315C376.178 106.759 380.749 106.668 380.749 106.668L395.695 107.691C398.564 107.694 401.431 107.858 404.282 108.183H404.903H405.279C405.642 108.248 406.004 108.287 406.354 108.326C407.377 108.468 408.374 108.636 409.359 108.805C410.343 108.973 411.172 109.129 412.052 109.31L414.267 109.776C416.767 110.346 419.111 110.994 421.274 111.654L423.437 112.302H423.514L424.291 112.522H424.421L425.081 112.781H425.224C427.698 114.037 432.256 116.847 437.048 124.333Z" fill="#FDBB3B"/>
<path d="M401.718 121.186L404.826 108.403C404.917 108.403 404.93 108.403 404.917 108.248H405.292C405.655 108.313 406.018 108.352 406.367 108.39C407.39 108.533 408.388 108.701 409.372 108.87C410.356 109.038 411.185 109.193 412.066 109.375L414.28 109.841C429.006 128.361 401.718 121.186 401.718 121.186Z" fill="white"/>
<path d="M402.494 120.098C402.494 120.098 402.17 120.733 401.549 121.678C397.974 127.014 384.414 142.18 361.491 108.183C363.148 107.976 364.767 107.795 366.321 107.639L368.368 107.445L369.792 107.315L401.652 119.813L402.494 120.098Z" fill="white"/>
<path d="M366.322 107.639L368.368 107.445C375.491 106.771 380.762 106.668 380.762 106.668L395.708 107.691C398.577 107.694 401.444 107.858 404.295 108.183L406.328 108.507C406.328 108.507 414.513 136.65 366.322 107.639Z" fill="#E8776E"/>
<g opacity="0.5">
<path d="M396.602 95.1024C395.527 96.7213 402.365 98.664 403.155 97.084C403.945 95.5039 397.715 93.4317 396.602 95.1024Z" fill="#924541"/>
</g>
<path d="M451.981 174.558C451.981 174.558 447.759 177.291 442.721 180.088C439.564 181.89 436.293 183.486 432.93 184.867C430.34 185.852 428.19 186.344 427.05 185.877L423.787 120.137L423.411 112.366H423.541C423.805 112.418 424.065 112.492 424.318 112.587H424.447L425.108 112.846H425.25C427.271 113.713 430.754 115.799 434.614 120.746C435.417 121.769 436.233 122.909 437.049 124.191C437.463 124.838 437.878 125.486 438.279 126.211C443.55 135.355 448.977 150.21 451.981 174.558Z" fill="#FDBB3B"/>
<path d="M428.254 140.742C428.254 140.742 436.543 164.637 432.93 184.867" stroke="#EC9E05" stroke-width="1.08783" stroke-miterlimit="10"/>
<path d="M429.964 146.532L432.01 142.18" stroke="#EC9E05" stroke-width="1.08783" stroke-miterlimit="10"/>
<path d="M339.94 115.539L340.134 115.397C340.575 115.073 340.989 114.775 341.429 114.516C342.181 114.244 342.919 113.985 343.631 113.791L356.79 118.143C358.085 121.665 352.762 151.026 348.954 170.712C348.63 172.382 348.307 173.975 348.009 175.478C347.465 178.223 346.986 180.658 346.584 182.665C346.584 182.912 346.493 183.145 346.455 183.365C345.807 186.616 345.406 188.545 345.406 188.545L322.236 192.677H322.042C321.705 189.681 321.441 186.775 321.252 183.961C321.135 182.432 321.057 180.93 320.98 179.441C320.733 174.04 320.746 168.976 320.98 164.249C321.379 152.383 323.468 140.635 327.183 129.358L339.94 115.539Z" fill="#E8776E"/>
<path d="M345.108 182.899L401.381 208.4L400.915 220.392C400.915 220.392 312.445 222.296 322.392 182.64L345.108 182.899Z" fill="#E8776E"/>
<path d="M418.451 220.535C421.308 221.007 424.076 221.911 426.662 223.216C430.547 225.262 431.091 220.949 427.659 219.11C429.248 219.553 430.76 220.239 432.14 221.143C432.514 221.476 433 221.656 433.501 221.647C434.001 221.638 434.48 221.441 434.842 221.095C435.204 220.749 435.423 220.28 435.455 219.78C435.487 219.28 435.33 218.787 435.015 218.398C435.478 218.641 436.013 218.709 436.522 218.59C437.031 218.471 437.48 218.173 437.787 217.75C438.875 216.209 437.269 214.305 436.621 213.735C436.621 213.735 440.273 211.275 433.681 207.338C427.089 203.4 418.01 200.512 405.603 204.838C397.068 207.817 395.773 214.033 397.237 217.543C399.905 223.915 410.421 226.233 418.451 220.535Z" fill="#E8776E"/>
<path d="M427.659 219.11C421.883 216.105 419.007 215.976 419.007 215.976" stroke="#924541" stroke-width="1.35243" stroke-miterlimit="10"/>
<path d="M435.015 218.398C426.299 212.622 421.481 212.375 421.481 212.375" stroke="#924541" stroke-width="1.35243" stroke-miterlimit="10"/>
<path d="M436.621 213.735C431.285 209.28 423.411 207.856 423.411 207.856" stroke="#924541" stroke-width="1.35243" stroke-miterlimit="10"/>
<path d="M349.175 184.738L342.414 181.655" stroke="#924541" stroke-width="1.35243" stroke-miterlimit="10"/>
<path d="M348.346 110.579C348.346 110.579 316.861 119.166 309.492 179.713C309.492 179.713 337.713 182.432 351.609 177.899L361.491 117.029L348.346 110.579Z" fill="#FDBB3B"/>
<path d="M347.271 179L351.609 177.899L354.083 142.4" stroke="#EC9E05" stroke-width="1.08783" stroke-miterlimit="10"/>
<path d="M353.578 149.705L357.386 145.547" stroke="#EC9E05" stroke-width="1.08783" stroke-miterlimit="10"/>
<path d="M374.404 111.55C393.183 116.511 404.192 120.811 401.511 113.415L400.928 110.553L400.785 109.815L399.166 101.811L397.612 94.1182L396.861 90.3882L376.839 88.6139L375.764 98.7029L375.323 102.86L374.404 111.55Z" fill="#E8776E"/>
<path opacity="0.5" d="M375.323 102.86C377.835 103.844 396.148 110.98 400.927 110.553L400.785 109.815L399.166 101.811L376.67 90.3751L375.323 102.86Z" fill="#924541"/>
<path d="M427.452 67.4128C427.452 68.1899 427.348 68.9411 427.27 69.7311C427.27 70.2232 427.193 70.7024 427.141 71.1816C426.827 74.0374 426.333 76.8707 425.664 79.6647C425.015 82.5162 424.087 85.2969 422.893 87.9664C422.083 89.7843 421.098 91.5193 419.953 93.1469C413.127 102.86 403.116 103.909 396.511 103.288C388.87 102.588 377.227 98.8454 373.432 83.3687C372.154 77.699 371.817 71.8578 372.435 66.0788C372.435 65.3536 372.551 64.6542 372.642 63.9419C372.733 63.2296 372.81 62.4007 372.914 61.6625C375.31 44.6964 383.094 31.7452 403.09 33.6361C423.32 35.527 428.462 49.9805 427.452 67.4128Z" fill="#E8776E"/>
<path d="M405.771 85.2983L415.64 86.2567C407.611 84.9616 409.864 72.7745 409.864 72.7745" stroke="#924541" stroke-width="1.35243" stroke-miterlimit="10"/>
<path d="M421.403 73.6424C421.209 75.4815 420.031 76.8672 418.813 76.7377C417.596 76.6082 416.599 75.0152 416.819 73.1891C417.039 71.363 418.192 69.9643 419.409 70.0938C420.626 70.2233 421.585 71.8033 421.403 73.6424Z" fill="#33324F"/>
<path d="M399.982 71.4536C399.788 73.3057 398.609 74.6914 397.392 74.5619C396.175 74.4324 395.255 72.8265 395.449 70.9874C395.644 69.1483 396.809 67.7625 398.04 67.8921C399.27 68.0216 400.164 69.6146 399.982 71.4536Z" fill="#33324F"/>
<path d="M417.026 63.1129C415.407 65.3016 423.074 68.0084 424.369 65.8197C425.665 63.6309 418.697 60.8464 417.026 63.1129Z" fill="#33324F"/>
<path d="M400.021 60.3802C401.186 62.841 393.131 63.9677 392.25 61.6754C391.369 59.383 398.816 57.8288 400.021 60.3802Z" fill="#33324F"/>
<path d="M396.771 86.7618C396.818 88.3893 397.397 89.9563 398.42 91.2231C399.443 92.4898 400.853 93.3865 402.433 93.7759C404.014 94.1652 405.679 94.0257 407.173 93.3788C408.667 92.7319 409.908 91.6132 410.706 90.1939L396.771 86.7618Z" fill="#972A45"/>
<path d="M397.923 90.5177C398.903 92.0811 400.43 93.2241 402.206 93.7244C403.982 94.2246 405.881 94.0465 407.533 93.2246C407.147 92.3239 406.546 91.5316 405.783 90.9174C405.02 90.3032 404.117 89.8857 403.155 89.7018C402.277 89.4442 401.352 89.3838 400.448 89.5248C399.543 89.6658 398.681 90.0049 397.923 90.5177Z" fill="#DC3C5E"/>
<path d="M430.676 63.89C430.469 65.0297 430.236 66.2083 429.951 67.4257C429.217 70.5619 428.305 73.6537 427.218 76.6858L427.128 76.893C423.501 71.0261 426.143 57.1684 426.143 57.1684C415.005 56.0416 407.753 47.2737 407.753 47.2737C399.84 51.0813 387.911 49.7732 387.911 49.7732C385.593 61.6883 380.465 67.4905 377.874 69.7569C377.734 69.8762 377.563 69.9527 377.381 69.9773C377.199 70.0019 377.013 69.9736 376.847 69.8958C376.68 69.818 376.54 69.694 376.442 69.5385C376.344 69.3829 376.293 69.2025 376.294 69.0187V65.1334L371.386 62.4136L374.067 51.7418L377.291 41.7046L391.538 32.6388L413.555 33.9339L421.067 40.6815L429.394 50.6021L430.676 63.89Z" fill="#33324F"/>
<path d="M379.558 66.014C379.068 65.3118 378.454 64.7059 377.745 64.2268C375.913 62.843 373.633 62.1877 371.347 62.3877C370.81 62.4522 370.286 62.5962 369.793 62.8151C368.867 63.1884 368.042 63.774 367.384 64.5246C366.812 65.1677 366.333 65.8869 365.959 66.6616C364.922 68.7259 364.586 71.0718 365.001 73.3444C365.577 76.0866 367.099 78.539 369.3 80.2733C369.966 80.8318 370.725 81.2701 371.541 81.5684C372.72 82.0796 374.028 82.2121 375.286 81.9476C376.543 81.6831 377.687 81.0347 378.561 80.092C378.752 79.9894 378.916 79.8429 379.04 79.6646C379.136 79.5257 379.21 79.3728 379.26 79.2113L379.363 78.9134C379.584 78.24 379.804 77.5147 379.998 76.7635C380.488 75.0772 380.771 73.3376 380.84 71.583C381.036 69.6363 380.585 67.6792 379.558 66.014Z" fill="#E8776E"/>
<path d="M375.492 77.6831C375.492 77.6831 379.312 65.237 369.417 68.436" stroke="#924541" stroke-width="1.35243" stroke-miterlimit="10"/>
<path d="M376.178 73.8625L371.904 71.9327" stroke="#924541" stroke-width="1.35243" stroke-miterlimit="10"/>
<path d="M388.909 45.0332L386.099 45.7196C386.025 45.7403 385.956 45.7757 385.896 45.8238C385.836 45.8719 385.786 45.9316 385.75 45.9993C385.713 46.0671 385.691 46.1415 385.684 46.218C385.678 46.2946 385.686 46.3718 385.71 46.4448L388.184 53.3608C388.227 53.4825 388.312 53.5852 388.423 53.6514C388.534 53.7176 388.665 53.743 388.793 53.7234L389.595 53.5939C389.733 53.5746 389.858 53.5034 389.944 53.3951C390.031 53.2868 390.073 53.1494 390.062 53.0111L389.595 45.5253C389.591 45.4445 389.568 45.3659 389.529 45.295C389.49 45.2242 389.435 45.163 389.369 45.1158C389.304 45.0687 389.228 45.0368 389.149 45.0225C389.069 45.0082 388.987 45.0118 388.909 45.0332Z" fill="white"/>
<path d="M429.55 53.6845L427.037 52.2469C426.97 52.2097 426.896 52.1868 426.819 52.1798C426.742 52.1728 426.665 52.1817 426.592 52.2061C426.519 52.2304 426.452 52.2696 426.395 52.3212C426.338 52.3728 426.292 52.4357 426.26 52.5059L423.268 59.2146C423.215 59.3303 423.204 59.4612 423.237 59.5842C423.27 59.7073 423.345 59.8149 423.45 59.8881L424.123 60.3543C424.235 60.4358 424.373 60.4717 424.51 60.4549C424.647 60.438 424.773 60.3697 424.861 60.2637L429.705 54.5263C429.755 54.4627 429.791 54.3891 429.811 54.3104C429.83 54.2318 429.833 54.1499 429.818 54.0702C429.803 53.9906 429.772 53.9149 429.725 53.8484C429.679 53.7819 429.619 53.726 429.55 53.6845Z" fill="white"/>
<path d="M402.689 121.86C402.674 121.762 402.639 121.668 402.585 121.584C402.532 121.501 402.461 121.43 402.377 121.376C402.294 121.322 402.2 121.287 402.102 121.272C402.004 121.257 401.904 121.263 401.808 121.29C401.739 121.235 401.659 121.195 401.574 121.172C401.488 121.148 401.399 121.141 401.312 121.152C401.224 121.163 401.139 121.191 401.062 121.235C400.985 121.278 400.917 121.337 400.863 121.406C397.364 125.389 395.113 130.311 394.387 135.562C394.051 138.683 394.659 143.113 398.001 144.473C401.044 145.768 403.35 142.556 404.166 139.991C405.901 134.448 403.531 127.39 402.689 121.86ZM396.978 141.83C394.646 139.344 395.773 134.461 396.693 131.612C397.735 128.472 399.341 125.549 401.433 122.986C401.938 126.302 402.508 129.617 402.935 132.946C403.203 134.524 403.277 136.129 403.155 137.725C402.896 139.888 400.85 145.988 396.978 141.83Z" fill="white"/>
<path d="M407.714 139.305C409.424 141.377 412.739 143.475 415.096 141.183C417.686 138.67 416.611 134.344 415.096 131.56C412.458 126.956 408.527 123.227 403.79 120.836C403.635 120.747 403.451 120.723 403.279 120.769C403.107 120.815 402.96 120.928 402.87 121.082C402.771 121.093 402.676 121.124 402.59 121.174C402.505 121.224 402.43 121.292 402.373 121.372C402.315 121.453 402.276 121.545 402.256 121.643C402.237 121.74 402.239 121.841 402.262 121.937C403.647 127.377 404.01 134.811 407.714 139.305ZM407.779 136.844C407.074 135.407 406.548 133.889 406.212 132.324C405.37 129.086 404.658 125.848 403.906 122.52C406.794 124.129 409.369 126.243 411.509 128.763C413.425 131.068 416.288 135.238 415.044 138.372C412.985 143.656 408.828 138.748 407.779 136.844Z" fill="white"/>
<path d="M405.564 131.184C405.499 130.278 404.088 130.265 404.139 131.184C404.915 143.213 404.711 155.284 403.531 167.279C403.44 168.186 404.826 168.186 404.955 167.279C406.136 155.284 406.339 143.213 405.564 131.184Z" fill="white"/>
<path d="M403.842 132.531C403.583 131.651 404.929 131.236 405.137 132.039C408.507 143.615 412.813 154.898 418.01 165.777C418.399 166.606 417.065 167.072 416.715 166.269C411.52 155.39 407.214 144.107 403.842 132.531Z" fill="white"/>
<path d="M294.072 350.238C456.005 350.238 587.278 323.436 587.278 290.373C587.278 257.311 456.005 230.508 294.072 230.508C132.138 230.508 0.864746 257.311 0.864746 290.373C0.864746 323.436 132.138 350.238 294.072 350.238Z" fill="#002052"/>
<path d="M40.4185 254.35V256.733C40.4198 258.175 40.9737 259.562 41.9663 260.607C42.9589 261.653 44.3146 262.278 45.7544 262.354L166.498 268.83C169.745 269.006 172.992 268.498 176.03 267.34L218.769 251.009C219.832 250.599 220.745 249.878 221.39 248.939C222.035 248.001 222.381 246.889 222.383 245.751V239.469L40.4185 254.35Z" fill="#E2E4E4"/>
<path d="M171.42 258.806L222.344 239.444L76.8631 235.092L40.4185 254.35L171.42 258.806Z" fill="#CDCDCD"/>
<path d="M197.18 246.334L189.966 249.015L188.787 249.468L181.574 252.149L180.395 252.589H180.382L170.928 256.125L169.037 252.252L168.881 251.929L168.791 251.76L168.661 251.488L165.644 245.31L183.749 245.893L185.057 245.932H185.07L197.18 246.334Z" fill="#3F3E58"/>
<path d="M189.965 249.014L188.787 249.468L176.561 249.079L175.24 249.04L168.958 248.859L168.971 248.38L176.418 248.6L177.752 248.639L189.965 249.014Z" fill="#CDCDCD"/>
<path d="M181.573 252.149L180.395 252.589H180.382L169.037 252.252L168.881 251.928L168.648 252.019L168.544 251.747L168.791 251.76L169.296 251.786L181.573 252.149Z" fill="#CDCDCD"/>
<path d="M185.057 245.932L177.753 248.639L176.561 249.079L169.296 251.786L168.881 251.929L168.648 252.019L168.545 251.747L168.467 251.553L168.661 251.488L175.24 249.04L176.419 248.6L183.749 245.893L185.057 245.932Z" fill="#CDCDCD"/>
<path d="M171.394 259.505L40.3925 255.05L29.2674 175.698C28.063 167.176 33.9169 160.506 42.3093 160.791L142.888 164.21C151.281 164.495 159.064 171.631 160.256 180.153L171.394 259.505Z" fill="#E2E4E4"/>
<path d="M95.4211 228.992C100.628 228.992 104.85 224.771 104.85 219.563C104.85 214.356 100.628 210.135 95.4211 210.135C90.2139 210.135 85.9927 214.356 85.9927 219.563C85.9927 224.771 90.2139 228.992 95.4211 228.992Z" fill="#FDBB3B"/>
<path d="M580.975 234.807H427.102L439.807 131.327H593.68L580.975 234.807Z" fill="#00B0D1"/>
<path d="M587.424 234.807H433.551L446.256 131.327H600.143L587.424 234.807Z" fill="#0088BB"/>
<path d="M491.961 259.026L523.562 250.543L526.917 260.075L491.961 259.026Z" fill="#0088BB"/>
<path d="M501.636 193.842H526.606L542.73 247.305C543.323 249.265 543.448 251.337 543.096 253.354C542.744 255.371 541.925 257.278 540.704 258.922C539.483 260.566 537.894 261.901 536.064 262.821C534.235 263.741 532.215 264.22 530.168 264.219H521.102L501.636 193.842Z" fill="#00B0D1"/>
<path d="M506.079 193.842H531.049L548.338 251.126C548.795 252.643 548.89 254.246 548.616 255.807C548.343 257.368 547.708 258.843 546.764 260.115C545.819 261.387 544.589 262.421 543.174 263.133C541.759 263.846 540.197 264.218 538.612 264.219H525.505L506.079 193.842Z" fill="#006891"/>
<path d="M526.904 259H491.949V264.219H526.904V259Z" fill="#006891"/>
<path d="M527.368 174.362C528.746 168.543 525.147 162.709 519.328 161.33C513.51 159.952 507.675 163.551 506.297 169.369C504.918 175.188 508.517 181.023 514.336 182.401C520.154 183.78 525.989 180.181 527.368 174.362Z" fill="#00B0D1"/>
<path d="M390.282 241.101H375.919V246.813H390.282V241.101Z" fill="#00B0D1"/>
<path d="M409.89 241.101H395.527V246.813H409.89V241.101Z" fill="#00B0D1"/>
<path d="M429.498 241.101H415.135V246.813H429.498V241.101Z" fill="#00B0D1"/>
<path d="M449.119 241.101H434.756V246.813H449.119V241.101Z" fill="#00B0D1"/>
<path d="M468.727 241.101H454.364V246.813H468.727V241.101Z" fill="#00B0D1"/>
<path d="M488.335 241.101H473.972V246.813H488.335V241.101Z" fill="#00B0D1"/>
<path d="M507.957 241.101H493.594V246.813H507.957V241.101Z" fill="#00B0D1"/>
<path d="M510.819 244.818H372.798V252.667H510.819V244.818Z" fill="#006891"/>
<path d="M364.69 252.602H314.996C314.714 252.6 314.436 252.529 314.188 252.395C313.939 252.26 313.728 252.067 313.572 251.831C313.415 251.596 313.32 251.326 313.293 251.045C313.266 250.763 313.308 250.48 313.416 250.219C316.771 242.215 330.421 218.437 365.83 249.61C366.091 249.84 366.275 250.145 366.359 250.483C366.442 250.821 366.421 251.176 366.297 251.501C366.173 251.826 365.953 252.106 365.666 252.303C365.378 252.499 365.038 252.604 364.69 252.602Z" fill="#0088BB"/>
<path d="M365.829 249.61L348.319 237.501" stroke="#00B0D1" stroke-width="1.96005" stroke-miterlimit="10"/>
</g>
<defs>
<clipPath id="clip0_8_3700">
<rect width="599.278" height="292.775" fill="white" transform="translate(0.864746 0.662231)"/>
</clipPath>
</defs>
</svg>
