<svg width="778" height="301" viewBox="0 0 778 301" fill="none" xmlns="http://www.w3.org/2000/svg">
<g opacity="0.4">
<g clip-path="url(#clip0_8_3819)">
<path d="M768.265 53.4838H575.674C570.648 53.4838 566.574 57.6027 566.574 62.6837V182.103C566.574 187.184 570.648 191.303 575.674 191.303H768.265C773.291 191.303 777.366 187.184 777.366 182.103V62.6837C777.366 57.6027 773.291 53.4838 768.265 53.4838Z" fill="#EBEBEB"/>
<path d="M777.366 62.6837V72.203H566.574V62.6837C566.574 60.2437 567.533 57.9037 569.239 56.1784C570.946 54.453 573.261 53.4838 575.674 53.4838H768.265C770.679 53.4838 772.994 54.453 774.7 56.1784C776.407 57.9037 777.366 60.2437 777.366 62.6837Z" fill="#57D0FF"/>
<path d="M608.285 62.837C608.287 63.8762 607.985 64.8928 607.415 65.7581C606.846 66.6234 606.036 67.2985 605.087 67.6979C604.138 68.0974 603.093 68.2032 602.084 68.002C601.076 67.8008 600.149 67.3017 599.421 66.5677C598.693 65.8338 598.197 64.8981 597.996 63.879C597.794 62.8599 597.896 61.8034 598.289 60.843C598.682 59.8827 599.348 59.0617 600.202 58.4841C601.057 57.9065 602.062 57.5981 603.09 57.5981C604.466 57.5981 605.785 58.1497 606.759 59.1318C607.733 60.1139 608.281 61.4464 608.285 62.837Z" fill="#B4F9E8"/>
<path d="M594.684 62.837C594.687 63.8767 594.384 64.8938 593.814 65.7594C593.244 66.625 592.433 67.3001 591.483 67.6992C590.533 68.0982 589.488 68.2033 588.479 68.0011C587.47 67.7988 586.543 67.2984 585.816 66.5632C585.089 65.828 584.594 64.8911 584.394 63.8712C584.194 62.8513 584.298 61.7943 584.692 60.8342C585.087 59.874 585.755 59.054 586.611 58.4779C587.467 57.9018 588.473 57.5956 589.502 57.5982C590.875 57.6015 592.192 58.1546 593.163 59.1363C594.134 60.118 594.681 61.4486 594.684 62.837Z" fill="#245D92"/>
<path d="M580.806 62.837C580.809 63.8767 580.506 64.8938 579.936 65.7594C579.366 66.625 578.555 67.3001 577.605 67.6992C576.655 68.0982 575.61 68.2033 574.601 68.0011C573.592 67.7988 572.665 67.2984 571.938 66.5632C571.211 65.828 570.716 64.8911 570.516 63.8712C570.316 62.8513 570.42 61.7943 570.814 60.8342C571.209 59.874 571.877 59.054 572.733 58.4779C573.589 57.9018 574.596 57.5956 575.624 57.5982C576.997 57.6015 578.314 58.1546 579.285 59.1363C580.256 60.118 580.803 61.4486 580.806 62.837Z" fill="#FFE2E9"/>
<path d="M705.243 100.084H643.814V106.971H705.243V100.084Z" fill="#245D92"/>
<path d="M760.201 100.084H713.283V106.971H760.201" fill="white"/>
<path d="M588.238 119.084H693.565V112.197H588.238" fill="#57D0FF"/>
<path d="M616.893 90.6667H722.219V83.7795H616.893" fill="#57D0FF"/>
<path d="M727.426 112.197H701.831V119.084H727.426V112.197Z" fill="#245D92"/>
<path d="M760.201 112.197H735.465V119.084H760.201" fill="white"/>
<path d="M760.201 83.7795H730.093V90.6667H760.201" fill="white"/>
<path d="M588.238 131.197H643.815V124.31H588.238" fill="#57D0FF"/>
<path d="M727.427 124.31H652.069V131.197H727.427V124.31Z" fill="#245D92"/>
<path d="M609.701 143.298H643.815V136.423H609.701" fill="#245D92"/>
<path d="M760.201 136.423H651.854V143.298H760.201" fill="white"/>
<path d="M588.238 155.411H635.561V148.524H588.238" fill="#57D0FF"/>
<path d="M727.426 148.524H643.814V155.411H727.426V148.524Z" fill="#245D92"/>
<path d="M760.201 148.524H735.465V155.411H760.201" fill="white"/>
<path d="M588.238 167.524H667.476V160.637H588.238" fill="#57D0FF"/>
<path d="M705.244 160.637H675.73V167.524H705.244V160.637Z" fill="#245D92"/>
<path d="M760.201 160.637H713.283V167.524H760.201" fill="white"/>
<path d="M727.426 172.75H622.896V179.637H727.426V172.75Z" fill="#245D92"/>
<path d="M760.201 172.75H735.465V179.637H760.201" fill="white"/>
<path d="M589.355 87.3879V86.759L594.417 84.1806V85.1868L590.534 87.0577L590.565 86.9948V87.1521L590.534 87.0892L594.417 88.9601V89.9663L589.355 87.3879ZM599.229 81.7908L596.635 91.4285H595.786L598.38 81.7908H599.229ZM605.659 87.3879L600.596 89.9663V88.9601L604.479 87.0892L604.448 87.1521V86.9948L604.479 87.0577L600.596 85.1868V84.1806L605.659 86.759V87.3879Z" fill="#0088BB"/>
</g>
</g>
<g opacity="0.6" clip-path="url(#clip1_8_3819)">
<path d="M218.758 2H134.673C132.478 2 130.699 3.79952 130.699 6.01935V58.1715C130.699 60.3913 132.478 62.1909 134.673 62.1909H218.758C220.953 62.1909 222.733 60.3913 222.733 58.1715V6.01935C222.733 3.79952 220.953 2 218.758 2Z" fill="#F7F7F7"/>
<path d="M222.697 6.01935V10.1742H130.699V6.01935C130.699 4.95335 131.117 3.93101 131.863 3.17724C132.608 2.42347 133.619 2 134.673 2L218.758 2C219.806 2.00953 220.808 2.43719 221.545 3.18994C222.283 3.94268 222.697 4.95958 222.697 6.01935Z" fill="#BCECFF"/>
<path d="M148.884 6.08252C148.888 6.53702 148.758 6.98234 148.511 7.36199C148.264 7.74164 147.911 8.0385 147.496 8.21491C147.082 8.39133 146.625 8.43935 146.184 8.35288C145.743 8.2664 145.337 8.04934 145.018 7.72922C144.699 7.40911 144.481 7.00036 144.392 6.55485C144.303 6.10933 144.347 5.64712 144.518 5.22686C144.689 4.8066 144.98 4.44722 145.354 4.19433C145.727 3.94143 146.166 3.80641 146.616 3.8064C147.214 3.80638 147.789 4.04561 148.214 4.47195C148.639 4.89829 148.88 5.4772 148.884 6.08252Z" fill="#E1FDF6"/>
<path d="M142.971 6.08254C142.974 6.53742 142.844 6.9831 142.597 7.36295C142.349 7.74279 141.996 8.03965 141.581 8.21579C141.166 8.39194 140.709 8.43943 140.267 8.35223C139.826 8.26502 139.42 8.04706 139.101 7.72603C138.783 7.40501 138.565 6.99542 138.477 6.54931C138.389 6.10319 138.435 5.6407 138.607 5.2206C138.78 4.80049 139.072 4.44175 139.446 4.18994C139.821 3.93813 140.261 3.80464 140.711 3.80641C141.309 3.80641 141.882 4.04593 142.306 4.47252C142.729 4.89912 142.969 5.47804 142.971 6.08254Z" fill="#A7BED3"/>
<path d="M136.951 6.08244C136.955 6.53539 136.826 6.97924 136.58 7.35806C136.334 7.73687 135.983 8.03369 135.571 8.21111C135.159 8.38853 134.704 8.4386 134.264 8.35501C133.824 8.27143 133.418 8.05793 133.098 7.74143C132.777 7.42493 132.556 7.01958 132.463 6.57649C132.37 6.13339 132.409 5.67237 132.575 5.25154C132.741 4.83071 133.026 4.4689 133.395 4.21171C133.763 3.95452 134.199 3.81346 134.647 3.80632C134.946 3.80154 135.244 3.85675 135.522 3.96878C135.8 4.0808 136.054 4.24741 136.268 4.45901C136.482 4.67061 136.653 4.923 136.77 5.20163C136.887 5.48027 136.949 5.77962 136.951 6.08244Z" fill="#FFF3F6"/>
<path d="M168.054 30.5735H164.773C164.579 29.6299 164.24 28.8009 163.755 28.0865C163.278 27.3721 162.696 26.7724 162.008 26.2873C161.329 25.7934 160.575 25.423 159.746 25.1761C158.917 24.9291 158.053 24.8057 157.153 24.8057C155.513 24.8057 154.027 25.2202 152.695 26.0492C151.372 26.8782 150.318 28.0997 149.533 29.7137C148.757 31.3276 148.369 33.3076 148.369 35.6535C148.369 37.9995 148.757 39.9794 149.533 41.5934C150.318 43.2073 151.372 44.4288 152.695 45.2578C154.027 46.0868 155.513 46.5013 157.153 46.5013C158.053 46.5013 158.917 46.3779 159.746 46.1309C160.575 45.884 161.329 45.518 162.008 45.0329C162.696 44.539 163.278 43.9349 163.755 43.2205C164.24 42.4973 164.579 41.6683 164.773 40.7335H168.054C167.807 42.1181 167.357 43.3572 166.705 44.4508C166.052 45.5444 165.241 46.4749 164.27 47.2422C163.3 48.0006 162.211 48.5783 161.003 48.9752C159.803 49.3721 158.52 49.5705 157.153 49.5705C154.843 49.5705 152.788 49.006 150.988 47.8772C149.189 46.7483 147.774 45.1432 146.742 43.0618C145.71 40.9804 145.194 38.511 145.194 35.6535C145.194 32.796 145.71 30.3266 146.742 28.2452C147.774 26.1639 149.189 24.5587 150.988 23.4299C152.788 22.301 154.843 21.7365 157.153 21.7365C158.52 21.7365 159.803 21.935 161.003 22.3318C162.211 22.7287 163.3 23.3108 164.27 24.0781C165.241 24.8365 166.052 25.7626 166.705 26.8562C167.357 27.941 167.807 29.1801 168.054 30.5735ZM180.87 44.4376V26.9752H183.833V44.4376H180.87ZM173.62 37.1881V34.2248H191.082V37.1881H173.62ZM153.767 89.4376V71.9752H156.73V89.4376H153.767ZM146.517 82.1881V79.2248H163.979V82.1881H146.517Z" fill="#0088BB"/>
</g>
<g opacity="0.6" clip-path="url(#clip2_8_3819)">
<path d="M88.3527 234.129H4.26814C2.07298 234.129 0.293457 235.928 0.293457 238.148V290.3C0.293457 292.52 2.07298 294.32 4.26814 294.32H88.3527C90.5479 294.32 92.3274 292.52 92.3274 290.3V238.148C92.3274 235.928 90.5479 234.129 88.3527 234.129Z" fill="#F7F7F7"/>
<path d="M92.2917 238.148V242.303H0.293457V238.148C0.293457 237.082 0.712217 236.06 1.45761 235.306C2.20301 234.552 3.21399 234.129 4.26814 234.129H88.3527C89.4007 234.138 90.4025 234.566 91.1402 235.319C91.8779 236.071 92.2917 237.088 92.2917 238.148Z" fill="#BCECFF"/>
<path d="M18.4787 238.211C18.4823 238.666 18.3522 239.111 18.1051 239.491C17.858 239.87 17.5049 240.167 17.0907 240.344C16.6764 240.52 16.2197 240.568 15.7785 240.482C15.3372 240.395 14.9313 240.178 14.6122 239.858C14.2932 239.538 14.0753 239.129 13.9863 238.684C13.8973 238.238 13.9412 237.776 14.1124 237.356C14.2836 236.935 14.5743 236.576 14.9478 236.323C15.3212 236.07 15.7606 235.935 16.21 235.935C16.8086 235.935 17.383 236.174 17.808 236.601C18.2329 237.027 18.474 237.606 18.4787 238.211Z" fill="#E1FDF6"/>
<path d="M12.5661 238.211C12.5697 238.666 12.4394 239.112 12.1919 239.492C11.9444 239.872 11.5908 240.168 11.176 240.345C10.7613 240.521 10.3041 240.568 9.86259 240.481C9.42109 240.394 9.01519 240.176 8.69647 239.855C8.37776 239.534 8.16061 239.124 8.07263 238.678C7.98464 238.232 8.02979 237.769 8.20234 237.349C8.37489 236.929 8.66704 236.571 9.04168 236.319C9.41632 236.067 9.85653 235.933 10.3064 235.935C10.9041 235.935 11.4776 236.175 11.9011 236.601C12.3246 237.028 12.5638 237.607 12.5661 238.211Z" fill="#A7BED3"/>
<path d="M6.54562 238.211C6.54909 238.664 6.41989 239.108 6.17431 239.487C5.92872 239.866 5.57774 240.162 5.1656 240.34C4.75345 240.517 4.2986 240.567 3.85836 240.484C3.41813 240.4 3.01221 240.187 2.69177 239.87C2.37133 239.554 2.15071 239.148 2.05773 238.705C1.96474 238.262 2.00354 237.801 2.16924 237.38C2.33494 236.959 2.62012 236.598 2.98884 236.34C3.35757 236.083 3.79333 235.942 4.2412 235.935C4.54062 235.93 4.83802 235.986 5.11624 236.098C5.39446 236.21 5.64799 236.376 5.86222 236.588C6.07645 236.799 6.24713 237.052 6.36442 237.33C6.48172 237.609 6.5433 237.908 6.54562 238.211Z" fill="#FFF3F6"/>
<path d="M10.9862 276.677V254.763H13.6398V264.522H25.3245V254.763H27.9782V276.677H25.3245V266.876H13.6398V276.677H10.9862ZM32.0924 257.117V254.763H48.528V257.117H41.637V276.677H38.9834V257.117H32.0924ZM52.6235 254.763H55.7908L63.2381 272.953H63.4949L70.9423 254.763H74.1096V276.677H71.6271V260.027H71.4131L64.565 276.677H62.1681L55.32 260.027H55.106V276.677H52.6235V254.763ZM10.9862 312.677V290.763H13.6398V310.323H23.8265V312.677H10.9862Z" fill="#0088BB"/>
</g>
<g opacity="0.6">
<g clip-path="url(#clip3_8_3819)">
<path d="M140.87 82.502H99.4089C96.1193 82.502 93.4526 85.1687 93.4526 88.4582V129.919C93.4526 133.208 96.1193 135.875 99.4089 135.875H140.87C144.159 135.875 146.826 133.208 146.826 129.919V88.4582C146.826 85.1687 144.159 82.502 140.87 82.502Z" fill="#86B6FF"/>
<path d="M113.399 107.151L105.992 109.704L113.417 112.256V116.421L100.877 111.889V107.518L113.417 102.986L113.399 107.151Z" fill="white"/>
<path d="M121.854 97.6389H126.753L118.692 120.738H113.766L121.854 97.6389Z" fill="white"/>
<path d="M139.382 107.518V111.889L126.843 116.421V112.256L134.268 109.704L126.843 107.151V102.986L139.382 107.518Z" fill="white"/>
</g>
</g>
<g clip-path="url(#clip4_8_3819)">
<path d="M423.992 76.2322H352.661C348.506 76.2322 345.137 79.6006 345.137 83.7558V100.093C345.137 104.248 348.506 107.617 352.661 107.617H423.992C428.148 107.617 431.516 104.248 431.516 100.093V83.7558C431.516 79.6006 428.148 76.2322 423.992 76.2322Z" fill="#F7F7F7"/>
<path d="M431.516 100.147V119.78L421.663 106.766L431.516 100.147Z" fill="#F7F7F7"/>
<path d="M355.537 93.0124V91.8761L364.684 87.2176V89.0356L357.668 92.4158L357.725 92.3022V92.5863L357.668 92.4727L364.684 95.8529V97.6709L355.537 93.0124ZM372.668 98.3526C371.645 98.3526 370.764 98.1112 370.026 97.6283C369.287 97.1454 368.719 96.4802 368.322 95.6328C367.924 94.7853 367.725 93.8172 367.725 92.7283C367.725 91.6205 367.929 90.6429 368.336 89.7954C368.748 88.9433 369.321 88.2781 370.054 87.7999C370.793 87.317 371.655 87.0756 372.639 87.0756C373.406 87.0756 374.097 87.2176 374.713 87.5017C375.328 87.7857 375.832 88.1834 376.225 88.6947C376.618 89.206 376.862 89.8025 376.957 90.4843H375.281C375.153 89.9872 374.869 89.5469 374.429 89.1634C373.993 88.7752 373.406 88.5811 372.668 88.5811C372.014 88.5811 371.441 88.7515 370.949 89.0924C370.461 89.4285 370.08 89.9043 369.806 90.5198C369.536 91.1305 369.401 91.8477 369.401 92.6715C369.401 93.5142 369.534 94.248 369.799 94.8729C370.069 95.4979 370.447 95.9831 370.935 96.3287C371.427 96.6743 372.005 96.8471 372.668 96.8471C373.103 96.8471 373.499 96.7714 373.854 96.6199C374.209 96.4684 374.509 96.2506 374.755 95.9665C375.002 95.6825 375.177 95.3416 375.281 94.9439H376.957C376.862 95.5878 376.628 96.1677 376.254 96.6838C375.885 97.1951 375.395 97.6022 374.784 97.9052C374.178 98.2035 373.472 98.3526 372.668 98.3526ZM383.838 98.3526C382.853 98.3526 381.989 98.1183 381.246 97.6496C380.508 97.1809 379.93 96.5252 379.513 95.6825C379.102 94.8398 378.896 93.8551 378.896 92.7283C378.896 91.5921 379.102 90.6003 379.513 89.7528C379.93 88.9054 380.508 88.2473 381.246 87.7786C381.989 87.3099 382.853 87.0756 383.838 87.0756C384.823 87.0756 385.684 87.3099 386.423 87.7786C387.166 88.2473 387.744 88.9054 388.156 89.7528C388.572 90.6003 388.781 91.5921 388.781 92.7283C388.781 93.8551 388.572 94.8398 388.156 95.6825C387.744 96.5252 387.166 97.1809 386.423 97.6496C385.684 98.1183 384.823 98.3526 383.838 98.3526ZM383.838 96.8471C384.586 96.8471 385.202 96.6554 385.684 96.2719C386.167 95.8884 386.525 95.3842 386.757 94.7593C386.989 94.1344 387.105 93.4574 387.105 92.7283C387.105 91.9992 386.989 91.3199 386.757 90.6902C386.525 90.0606 386.167 89.5516 385.684 89.1634C385.202 88.7752 384.586 88.5811 383.838 88.5811C383.09 88.5811 382.475 88.7752 381.992 89.1634C381.509 89.5516 381.151 90.0606 380.919 90.6902C380.687 91.3199 380.571 91.9992 380.571 92.7283C380.571 93.4574 380.687 94.1344 380.919 94.7593C381.151 95.3842 381.509 95.8884 381.992 96.2719C382.475 96.6554 383.09 96.8471 383.838 96.8471ZM359.173 122.353C358.264 122.353 357.462 122.123 356.766 121.664C356.07 121.2 355.525 120.546 355.133 119.704C354.74 118.856 354.543 117.855 354.543 116.7C354.543 115.554 354.74 114.56 355.133 113.717C355.525 112.875 356.072 112.224 356.773 111.764C357.474 111.305 358.283 111.076 359.202 111.076C359.912 111.076 360.473 111.194 360.885 111.431C361.301 111.663 361.618 111.928 361.836 112.226C362.059 112.52 362.232 112.761 362.355 112.95H362.497V107.582H364.173V122.125H362.553V120.449H362.355C362.232 120.648 362.056 120.899 361.829 121.202C361.602 121.5 361.278 121.768 360.856 122.005C360.435 122.237 359.874 122.353 359.173 122.353ZM359.4 120.847C360.073 120.847 360.641 120.672 361.105 120.322C361.569 119.967 361.921 119.477 362.163 118.852C362.404 118.222 362.525 117.495 362.525 116.671C362.525 115.857 362.407 115.145 362.17 114.534C361.933 113.919 361.583 113.44 361.119 113.099C360.655 112.754 360.082 112.581 359.4 112.581C358.69 112.581 358.099 112.763 357.625 113.128C357.156 113.488 356.804 113.978 356.567 114.598C356.335 115.213 356.219 115.905 356.219 116.671C356.219 117.448 356.337 118.153 356.574 118.788C356.816 119.417 357.171 119.919 357.639 120.293C358.113 120.662 358.7 120.847 359.4 120.847ZM372.048 122.353C370.997 122.353 370.09 122.121 369.328 121.657C368.571 121.188 367.986 120.535 367.574 119.697C367.167 118.854 366.963 117.874 366.963 116.757C366.963 115.639 367.167 114.655 367.574 113.803C367.986 112.946 368.559 112.278 369.293 111.8C370.031 111.317 370.893 111.076 371.878 111.076C372.446 111.076 373.007 111.17 373.561 111.36C374.115 111.549 374.619 111.857 375.073 112.283C375.528 112.704 375.89 113.263 376.16 113.959C376.43 114.655 376.565 115.512 376.565 116.529V117.24H368.156V115.791H374.86C374.86 115.175 374.737 114.626 374.491 114.143C374.249 113.661 373.904 113.279 373.454 113C373.009 112.721 372.484 112.581 371.878 112.581C371.21 112.581 370.632 112.747 370.145 113.078C369.662 113.405 369.29 113.831 369.03 114.356C368.77 114.882 368.639 115.445 368.639 116.047V117.012C368.639 117.836 368.781 118.534 369.065 119.107C369.354 119.675 369.754 120.109 370.266 120.407C370.777 120.7 371.371 120.847 372.048 120.847C372.488 120.847 372.886 120.786 373.241 120.662C373.601 120.535 373.911 120.345 374.171 120.094C374.432 119.839 374.633 119.522 374.775 119.143L376.394 119.597C376.224 120.146 375.937 120.629 375.535 121.046C375.132 121.458 374.635 121.78 374.044 122.012C373.452 122.239 372.787 122.353 372.048 122.353ZM388.743 117.012L379.597 121.671V119.853L386.613 116.473L386.556 116.586V116.302L386.613 116.416L379.597 113.036V111.218L388.743 115.876V117.012Z" fill="#FDBB3B"/>
</g>
<g opacity="0.7" clip-path="url(#clip5_8_3819)">
<path d="M733.295 198.044H696.196C693.253 198.044 690.867 200.43 690.867 203.373V240.472C690.867 243.415 693.253 245.801 696.196 245.801H733.295C736.238 245.801 738.624 243.415 738.624 240.472V203.373C738.624 200.43 736.238 198.044 733.295 198.044Z" fill="#0088BB"/>
<path d="M709.131 220.034H707.291C707.182 219.505 706.991 219.04 706.719 218.639C706.452 218.238 706.125 217.901 705.739 217.629C705.358 217.352 704.935 217.144 704.47 217.006C704.005 216.867 703.52 216.798 703.015 216.798C702.095 216.798 701.261 217.031 700.514 217.496C699.772 217.961 699.181 218.646 698.74 219.552C698.305 220.457 698.087 221.568 698.087 222.884C698.087 224.201 698.305 225.311 698.74 226.217C699.181 227.123 699.772 227.808 700.514 228.273C701.261 228.738 702.095 228.971 703.015 228.971C703.52 228.971 704.005 228.901 704.47 228.763C704.935 228.624 705.358 228.419 705.739 228.147C706.125 227.87 706.452 227.531 706.719 227.13C706.991 226.724 707.182 226.259 707.291 225.735H709.131C708.993 226.511 708.741 227.207 708.374 227.82C708.008 228.434 707.553 228.956 707.009 229.386C706.464 229.812 705.853 230.136 705.175 230.359C704.502 230.581 703.782 230.693 703.015 230.693C701.719 230.693 700.566 230.376 699.557 229.743C698.547 229.109 697.753 228.209 697.174 227.041C696.595 225.873 696.306 224.488 696.306 222.884C696.306 221.281 696.595 219.896 697.174 218.728C697.753 217.56 698.547 216.659 699.557 216.026C700.566 215.393 701.719 215.076 703.015 215.076C703.782 215.076 704.502 215.187 705.175 215.41C705.853 215.633 706.464 215.959 707.009 216.39C707.553 216.815 708.008 217.335 708.374 217.948C708.741 218.557 708.993 219.252 709.131 220.034ZM720.419 219.084C720.33 218.332 719.969 217.748 719.335 217.332C718.702 216.917 717.925 216.709 717.005 216.709C716.332 216.709 715.743 216.818 715.238 217.035C714.738 217.253 714.348 217.553 714.066 217.934C713.788 218.315 713.65 218.748 713.65 219.233C713.65 219.638 713.746 219.987 713.939 220.279C714.137 220.566 714.39 220.806 714.696 220.999C715.003 221.187 715.325 221.343 715.661 221.467C715.998 221.585 716.307 221.682 716.589 221.756L718.133 222.172C718.529 222.276 718.969 222.419 719.454 222.602C719.944 222.785 720.412 223.035 720.857 223.352C721.307 223.664 721.678 224.064 721.97 224.554C722.262 225.044 722.408 225.645 722.408 226.358C722.408 227.179 722.193 227.922 721.763 228.585C721.337 229.248 720.714 229.775 719.892 230.166C719.076 230.557 718.084 230.752 716.916 230.752C715.827 230.752 714.884 230.576 714.088 230.225C713.296 229.874 712.673 229.384 712.217 228.755C711.767 228.127 711.512 227.397 711.453 226.566H713.353C713.402 227.14 713.595 227.615 713.932 227.991C714.273 228.362 714.704 228.639 715.223 228.822C715.748 229 716.312 229.089 716.916 229.089C717.618 229.089 718.249 228.976 718.808 228.748C719.368 228.515 719.81 228.194 720.137 227.783C720.464 227.367 720.627 226.883 720.627 226.328C720.627 225.824 720.486 225.413 720.204 225.096C719.922 224.78 719.551 224.522 719.09 224.324C718.63 224.126 718.133 223.953 717.599 223.805L715.728 223.27C714.541 222.929 713.6 222.441 712.908 221.808C712.215 221.175 711.868 220.346 711.868 219.322C711.868 218.47 712.099 217.728 712.559 217.095C713.024 216.457 713.647 215.962 714.429 215.61C715.216 215.254 716.094 215.076 717.064 215.076C718.044 215.076 718.915 215.252 719.677 215.603C720.439 215.949 721.043 216.424 721.488 217.028C721.938 217.632 722.176 218.317 722.2 219.084H720.419ZM705.212 244.084C705.123 243.332 704.762 242.748 704.129 242.332C703.495 241.917 702.719 241.709 701.798 241.709C701.125 241.709 700.536 241.818 700.032 242.035C699.532 242.253 699.141 242.553 698.859 242.934C698.582 243.315 698.443 243.748 698.443 244.233C698.443 244.638 698.54 244.987 698.733 245.279C698.931 245.566 699.183 245.806 699.49 245.999C699.797 246.187 700.118 246.343 700.455 246.467C700.791 246.585 701.1 246.682 701.382 246.756L702.926 247.172C703.322 247.276 703.763 247.419 704.248 247.602C704.737 247.785 705.205 248.035 705.65 248.352C706.101 248.664 706.472 249.064 706.764 249.554C707.056 250.044 707.202 250.645 707.202 251.358C707.202 252.179 706.986 252.922 706.556 253.585C706.13 254.248 705.507 254.775 704.685 255.166C703.869 255.557 702.877 255.752 701.709 255.752C700.62 255.752 699.678 255.576 698.881 255.225C698.089 254.874 697.466 254.384 697.011 253.755C696.56 253.127 696.306 252.397 696.246 251.566H698.146C698.196 252.14 698.389 252.615 698.725 252.991C699.067 253.362 699.497 253.639 700.017 253.822C700.541 254 701.105 254.089 701.709 254.089C702.412 254.089 703.043 253.976 703.602 253.748C704.161 253.515 704.604 253.194 704.93 252.783C705.257 252.367 705.42 251.883 705.42 251.328C705.42 250.824 705.279 250.413 704.997 250.096C704.715 249.78 704.344 249.522 703.884 249.324C703.424 249.126 702.926 248.953 702.392 248.805L700.521 248.27C699.334 247.929 698.394 247.441 697.701 246.808C697.008 246.175 696.662 245.346 696.662 244.322C696.662 243.47 696.892 242.728 697.352 242.095C697.817 241.457 698.441 240.962 699.223 240.61C700.009 240.254 700.888 240.076 701.858 240.076C702.837 240.076 703.708 240.252 704.47 240.603C705.232 240.949 705.836 241.424 706.281 242.028C706.732 242.632 706.969 243.317 706.994 244.084H705.212Z" fill="white"/>
</g>
<g clip-path="url(#clip6_8_3819)">
<path d="M181.667 152.767C181.667 153.152 181.747 153.537 181.773 153.908C182.012 159.297 179.119 163.399 169.681 161.713C168.536 161.478 167.49 160.899 166.682 160.054C163.315 156.673 160.442 152.835 158.147 148.652C157.106 146.919 156.581 144.925 156.634 142.905C156.162 142.217 155.605 141.593 154.975 141.046C154.459 140.688 153.877 140.435 153.262 140.303C153.12 141.308 153.332 142.33 153.86 143.197C154.762 144.989 151.909 147.67 149.878 143.091C148.152 139.281 148.71 136.826 150.674 136.016C150.175 135.989 149.674 135.989 149.174 136.016C142.312 136.441 142.538 130.707 149.732 130.707C150.515 130.707 151.325 130.707 152.147 130.813C152.093 130.679 152.049 130.541 152.015 130.401C151.577 130.322 151.125 130.255 150.687 130.215C143.706 129.658 145.498 124.004 152.28 125.172C154.229 125.534 156.143 126.062 158.001 126.751C157.302 126.236 156.57 125.766 155.811 125.344C150.767 122.689 152.705 117.871 157.696 120.194C163.708 123.334 169.037 127.639 173.371 132.857C176.756 137.25 180.897 146.25 181.667 152.767Z" fill="#EFB3A6"/>
<path d="M159.541 128.012C164.677 132.565 165.872 135.339 165.872 135.339" stroke="#D17A80" stroke-width="1.44633" stroke-miterlimit="10"/>
<path d="M152.559 137.847C154.115 138.302 155.472 139.271 156.408 140.595" stroke="#D17A80" stroke-width="1.44633" stroke-miterlimit="10"/>
<path d="M160.841 145.904C159.195 142.865 159.023 139.971 157.629 137.94C155.758 135.286 151.324 131.224 152.001 129.671C153.329 126.658 156.275 128.503 159.501 131.184C162.726 133.865 168.447 137.409 170.995 136.201" stroke="#D17A80" stroke-width="1.44633" stroke-miterlimit="10"/>
<path d="M292.672 139.918C291.716 142.759 290.508 145.891 289.008 149.209C284.543 159.07 278.977 168.394 272.417 177.004C269.417 180.986 266.072 185.074 262.316 189.281L261.771 189.879C260.046 191.79 258.227 193.715 256.329 195.679C254.778 197.275 252.986 198.618 251.02 199.661L234.681 180.481L237.415 175.345L239.101 172.225C239.871 170.805 240.72 169.252 241.609 167.58L242.339 166.252C242.91 165.164 243.521 164.049 244.145 162.881C253.529 145.732 267.174 121.136 272.642 114.5C273.226 113.969 273.797 113.464 274.341 113L283.487 116.531L288.398 118.442C288.862 119.119 289.327 119.849 289.725 120.592C291.479 126.893 292.468 133.381 292.672 139.918Z" fill="#EDB1A4"/>
<path d="M260.405 190.158C259.291 192.206 257.917 194.102 256.316 195.799C254.765 197.394 252.973 198.738 251.007 199.781C223.372 214.541 168.952 161.54 168.952 161.54L177.566 151.546L239.074 172.318L241.902 173.274L260.405 190.158Z" fill="#EDB1A4"/>
<path d="M401.858 239.959L282.73 241.923L274.407 120.446C273.611 114.858 274.726 111.686 279.982 109.615C286.274 107.043 292.752 104.953 299.361 103.363C301.1 102.979 302.905 102.607 304.764 102.288C309.728 101.409 314.76 100.965 319.802 100.961L336.195 99.7797C336.195 99.7797 341.982 99.8991 349.813 100.629C352.946 100.908 356.45 101.293 359.994 101.81C363.538 102.328 367.347 102.992 370.904 103.828C374.568 104.687 377.77 106.902 379.866 110.027C381.962 113.153 382.796 116.956 382.2 120.672L401.858 239.959Z" fill="#0088BB"/>
<path d="M360.087 101.81C297.702 138.485 298.061 111.686 299.428 103.324C301.167 102.939 302.972 102.567 304.83 102.248C309.795 101.369 314.827 100.925 319.869 100.921L336.195 99.7797C336.195 99.7797 341.982 99.8991 349.813 100.629C352.972 100.908 356.45 101.293 360.087 101.81Z" fill="#006891"/>
<path d="M349.84 100.629C295.658 133.64 304.71 102.248 304.71 102.248C309.675 101.369 314.707 100.925 319.749 100.921L336.195 99.7797C336.195 99.7797 342.008 99.8991 349.84 100.629Z" fill="#EFB3A6"/>
<path d="M280.713 54.8894C280.713 54.8894 270.984 55.0354 271.953 46.9254C272.922 38.8154 281.775 38.7092 281.775 38.7092L280.713 54.8894Z" fill="#33324F"/>
<path d="M344 30.7321C342.711 29.5337 341.181 28.6247 339.512 28.0662C337.843 27.5076 336.074 27.3123 334.324 27.4934C332.771 15.0431 313.525 14.2201 303.702 15.3616C303.702 15.1625 303.822 14.9767 303.901 14.7776C303.964 14.6751 304.008 14.5629 304.034 14.4458C304.791 11.1009 305.255 6.57472 303.105 3.6015C302.102 2.38029 300.795 1.44521 299.315 0.890575C297.835 0.335939 296.235 0.181368 294.676 0.442453C288.133 1.30522 285.584 7.0791 284.894 13.0123C281.562 9.24265 274.275 8.85772 271.196 13.5299C266.975 19.9542 271.461 25.7015 275.178 30.7852C271.594 31.3029 265.05 33.5062 266.564 38.0191C268.276 43.1294 277.328 41.0587 281.005 40.1296C281.126 40.101 281.239 40.0467 281.337 39.9703C281.523 40.059 281.731 40.088 281.934 40.0532C282.137 40.0184 282.324 39.9215 282.47 39.7759C282.615 39.6304 282.712 39.4433 282.747 39.2404C282.782 39.0375 282.753 38.8288 282.664 38.643C281.204 35.1123 296.654 33.9841 298.698 33.8115C304.008 33.3735 309.41 32.8957 314.759 32.7496C319.909 32.6036 324.807 33.2806 328.032 38.059C331.258 42.8374 333.514 48.0803 336.129 53.0312C336.126 53.0622 336.126 53.0932 336.129 53.1242C336.44 56.8365 336.071 60.5743 335.041 64.1543C334.762 65.1099 335.917 65.6409 336.607 65.2427C345.115 60.2652 348.553 52.4074 347.849 42.4392C347.571 38.1253 347.252 33.8248 344 30.7321Z" fill="#33324F"/>
<path d="M338.2 103.881C317.56 109.336 305.521 114.075 308.414 105.939L309.051 102.793L309.211 101.97L310.976 93.2625L312.675 84.8074L313.511 80.706L335.518 78.7681L336.686 89.838L337.177 94.404L338.2 103.881Z" fill="#EFB3A6"/>
<path d="M337.191 94.3774C334.43 95.4658 314.307 103.31 309.051 102.846L309.211 102.023L310.976 93.2624L335.704 80.6926L337.191 94.3774Z" fill="#D17A80"/>
<path d="M279.903 55.4203C279.903 56.2698 280.022 57.106 280.089 57.9821C280.089 58.513 280.142 59.0439 280.248 59.5748C280.557 62.7278 281.067 65.8578 281.774 68.9458C282.492 72.0778 283.514 75.1319 284.827 78.0645C285.72 80.0479 286.8 81.9413 288.053 83.719C295.552 94.3376 306.542 95.5455 313.816 94.8685C322.218 94.0854 335.053 89.9707 339.195 72.9676C340.591 66.7335 340.959 60.313 340.283 53.9602C340.283 53.1638 340.15 52.394 340.058 51.6109C339.965 50.8277 339.872 49.9252 339.752 49.1022C337.177 30.4134 328.629 16.2508 306.649 18.2949C284.429 20.3788 278.788 36.2669 279.903 55.4203Z" fill="#EDB1A4"/>
<path d="M325.736 38.7092C325.736 38.7092 323.174 60.8358 330.368 65.6009C330.368 65.6009 338.226 70.9102 339.898 49.8986L325.736 38.7092Z" fill="#33324F"/>
<path d="M328.231 47.3369C328.231 47.3369 315.382 49.8323 314.281 39.1207C314.281 39.1207 306.595 46.806 298.247 39.426C298.247 39.426 296.561 46.222 286.101 44.7353C286.101 44.7353 288.438 53.7346 279.823 54.8629L277.447 50.0579L278.682 39.4393L281.774 32.2054L289.181 22.9141L297.039 19.1312L306.994 17.6047H315.303L325.258 19.8214L332.558 26.5509L338.558 34.5149L340.23 49.9119L338.611 51.2393L328.231 47.3369Z" fill="#33324F"/>
<path d="M331.098 59.8403C331.171 61.7913 331.483 63.7259 332.027 65.6009C332.239 66.4371 332.491 67.2335 332.717 67.9636C332.717 68.083 332.783 68.1892 332.823 68.2954C332.873 68.4762 332.954 68.6469 333.062 68.7998C333.181 69.0201 333.344 69.2142 333.54 69.3705C334.5 70.4083 335.759 71.1226 337.143 71.415C338.526 71.7074 339.967 71.5635 341.265 71.0032C342.158 70.6783 342.989 70.2024 343.72 69.5962C346.147 67.6927 347.824 64.9951 348.459 61.9773C348.916 59.476 348.543 56.8939 347.397 54.6239C346.993 53.7757 346.47 52.9892 345.844 52.2878C345.118 51.4613 344.209 50.8159 343.19 50.403C342.646 50.1577 342.069 49.9965 341.477 49.9252C338.966 49.7083 336.464 50.4321 334.456 51.956C333.68 52.4819 333.009 53.1482 332.478 53.9204C331.402 55.6974 330.918 57.7706 331.098 59.8403Z" fill="#EFB3A6"/>
<path d="M337.018 66.716C337.018 66.716 332.811 53.0312 343.655 56.5486" stroke="#D17A80" stroke-width="1.48651" stroke-miterlimit="10"/>
<path d="M336.262 62.5214L340.947 60.3977" stroke="#D17A80" stroke-width="1.48651" stroke-miterlimit="10"/>
<path d="M303.728 75.0782L292.884 76.14C301.697 74.6534 299.228 61.327 299.228 61.327" stroke="#D17A80" stroke-width="1.48651" stroke-miterlimit="10"/>
<g opacity="0.5">
<path d="M313.803 85.2986C314.985 87.0773 307.459 89.2806 306.609 87.4755C305.76 85.6703 312.582 83.4271 313.803 85.2986Z" fill="#D17A80"/>
</g>
<path d="M317.307 74.5603C314.812 80.5067 307.724 82.7101 300.795 82.0332" stroke="#D17A80" stroke-width="1.48651" stroke-miterlimit="10"/>
<path d="M286.54 62.2826C286.752 64.3002 288.053 65.8266 289.433 65.6806C290.814 65.5346 291.783 63.7825 291.584 61.765C291.385 59.7474 290.084 58.221 288.69 58.3537C287.296 58.4865 286.341 60.2518 286.54 62.2826Z" fill="#33324F"/>
<path d="M310.099 59.88C310.298 61.8976 311.599 63.424 312.993 63.278C314.387 63.132 315.342 61.3799 315.13 59.3624C314.918 57.3449 313.63 55.8184 312.303 55.9512C310.975 56.0839 309.887 57.8492 310.099 59.88Z" fill="#33324F"/>
<path d="M308.799 55.2744C316.126 55.6858 320.267 53.655 313.935 52.779C307.604 51.903 304.989 55.062 308.799 55.2744Z" fill="#33324F"/>
<path d="M291.066 53.748C284.588 57.199 279.969 57.0929 285.345 53.6418C290.72 50.1907 294.424 51.9694 291.066 53.748Z" fill="#33324F"/>
<path d="M319.457 56.0177C318.366 54.2676 316.807 52.8564 314.958 51.9428C314.741 51.8387 314.52 51.7456 314.294 51.6641C313.213 51.2183 312.064 50.958 310.896 50.8942H310.259C307.607 50.8942 305.047 51.8648 303.061 53.6229C301.076 55.3811 299.802 57.8051 299.481 60.4377H293.521C293.336 58.8782 292.81 57.3785 291.982 56.0442C291.005 54.4757 289.647 53.1805 288.033 52.2798C286.42 51.3791 284.605 50.9024 282.757 50.8942C281.368 50.8903 279.992 51.161 278.708 51.6906C276.867 52.4222 275.267 53.6544 274.089 55.2478C273.888 55.4994 273.707 55.7656 273.545 56.0442C272.58 57.5875 272.023 59.3504 271.926 61.1677C271.926 61.3536 271.926 61.5527 271.926 61.7385C271.924 62.357 271.978 62.9744 272.085 63.5835C272.284 64.7337 272.665 65.845 273.213 66.8752C273.418 67.2504 273.644 67.6138 273.89 67.9637C275.384 70.0695 277.568 71.5863 280.062 72.2509C280.844 72.4495 281.645 72.5608 282.452 72.5828H282.77C284.52 72.5825 286.244 72.163 287.798 71.3593C289.352 70.5556 290.691 69.3912 291.703 67.9637C292.438 66.9447 292.973 65.7964 293.283 64.579C293.375 64.2521 293.446 63.9196 293.495 63.5835C293.575 63.092 293.615 62.5948 293.614 62.0969H299.428C299.427 62.5948 299.467 63.092 299.548 63.5835C299.596 63.9196 299.667 64.2521 299.76 64.579C300.075 65.7943 300.61 66.9416 301.339 67.9637C302.35 69.392 303.689 70.557 305.244 71.3608C306.798 72.1645 308.522 72.5836 310.272 72.5828H310.777C312.212 72.5176 313.621 72.1655 314.918 71.5474C316.348 70.8574 317.611 69.8657 318.621 68.6406C318.794 68.4282 318.966 68.2026 319.126 67.9769C320.043 66.6678 320.659 65.172 320.931 63.5967C321.038 62.9877 321.092 62.3702 321.09 61.7518C321.094 59.7252 320.528 57.7384 319.457 56.0177ZM291.862 64.5524C291.467 65.7953 290.826 66.9462 289.977 67.9371C289.084 68.9858 287.973 69.8271 286.721 70.4025C285.47 70.9779 284.108 71.2735 282.73 71.2687H282.491C281.153 71.237 279.836 70.924 278.626 70.35C277.416 69.7761 276.341 68.9539 275.47 67.9371C274.394 66.6878 273.666 65.177 273.359 63.5569C273.229 62.9507 273.167 62.3319 273.174 61.7119C273.174 59.1773 274.18 56.7465 275.973 54.9543C277.765 53.162 280.196 52.1552 282.73 52.1552C285.265 52.1552 287.696 53.162 289.488 54.9543C291.28 56.7465 292.287 59.1773 292.287 61.7119C292.294 62.3319 292.231 62.9507 292.101 63.5569C292.03 63.8932 291.951 64.225 291.862 64.5524ZM317.48 67.9371C316.627 68.9289 315.581 69.736 314.406 70.3089C313.23 70.8818 311.95 71.2084 310.644 71.2687H310.233C308.192 71.2723 306.205 70.6221 304.561 69.4133C302.918 68.2046 301.705 66.501 301.101 64.5524C300.993 64.2279 300.913 63.8949 300.862 63.5569C300.727 62.9512 300.66 62.3324 300.662 61.7119C300.755 59.2372 301.803 56.8946 303.586 55.1764C305.369 53.4582 307.749 52.4982 310.226 52.4982C312.702 52.4982 315.082 53.4582 316.866 55.1764C318.649 56.8946 319.697 59.2372 319.789 61.7119C319.793 62.3311 319.736 62.9492 319.617 63.5569C319.289 65.1752 318.554 66.683 317.48 67.9371Z" fill="white"/>
<path d="M390.349 118.482C395.176 131.829 397.863 145.855 398.313 160.04C398.539 165.244 398.552 170.805 398.313 176.738C398.101 181.371 397.716 186.215 397.132 191.339H396.933L371.475 186.786C371.475 186.786 371.023 184.662 370.307 181.092C369.855 178.756 369.258 175.783 368.608 172.424C368.263 170.779 367.931 169.013 367.572 167.182C363.391 145.546 357.525 113.279 358.971 109.403L373.36 104.558C374.143 104.784 374.966 105.062 375.789 105.368C381.158 109.13 386.048 113.534 390.349 118.482Z" fill="#EDB1A4"/>
<path d="M372.497 180.415L307.591 200.325L306.436 213.465C306.436 213.465 402.561 227.933 397.252 183.295L372.497 180.415Z" fill="#EDB1A4"/>
<path d="M287.283 211.222C284.114 211.342 280.981 211.942 277.991 213.001C273.518 214.7 273.478 209.921 277.487 208.395C275.693 208.653 273.951 209.19 272.324 209.988C271.868 210.279 271.321 210.392 270.787 210.306C270.252 210.22 269.769 209.94 269.428 209.52C269.086 209.1 268.912 208.57 268.937 208.029C268.962 207.489 269.184 206.976 269.563 206.59C269.023 206.788 268.43 206.785 267.892 206.583C267.354 206.381 266.906 205.992 266.629 205.488C265.661 203.67 267.678 201.811 268.461 201.267C268.461 201.267 264.824 198.095 272.563 194.71C280.301 191.325 290.601 189.401 303.516 195.905C312.409 200.338 312.967 207.307 310.869 210.917C306.994 217.487 295.247 218.549 287.283 211.222Z" fill="#EFB3A6"/>
<path d="M277.447 208.395C284.164 205.913 287.309 206.178 287.309 206.178" stroke="#D17A80" stroke-width="1.44633" stroke-miterlimit="10"/>
<path d="M269.523 206.59C279.836 201.493 285.119 201.904 285.119 201.904" stroke="#D17A80" stroke-width="1.44633" stroke-miterlimit="10"/>
<path d="M268.421 201.267C274.872 197.166 283.646 196.714 283.646 196.714" stroke="#D17A80" stroke-width="1.44633" stroke-miterlimit="10"/>
<path d="M408.057 177.203L398.287 176.765L362.317 175.809V174.044L353.45 106.735L360.724 103.363C365 102.885 369.328 103.292 373.44 104.558C374.223 104.784 375.046 105.062 375.869 105.368C389.514 110.518 407.645 125.915 408.057 177.203Z" fill="#0088BB"/>
<path d="M278.297 110.359C278.297 110.359 253.861 123.048 239.154 164.779L269.523 193.184L286.287 172.358L278.297 110.359Z" fill="#0088BB"/>
<path d="M364.6 182.844L373.427 180.083" stroke="#D17A80" stroke-width="1.44633" stroke-miterlimit="10"/>
<path d="M231.216 169.65L243.494 173.818" stroke="#D17A80" stroke-width="1.44633" stroke-miterlimit="10"/>
<path d="M278.616 181.915C278.616 181.915 276.89 152.714 278.616 139.44" stroke="#005467" stroke-width="0.743253" stroke-miterlimit="10"/>
<path d="M278.244 149.236L274.859 142.573" stroke="#005467" stroke-width="0.743253" stroke-miterlimit="10"/>
<path d="M369.285 175.995L364.599 175.862L356.834 132.618" stroke="#005467" stroke-width="0.743253" stroke-miterlimit="10"/>
<path d="M358.03 139.215L354.087 135.299" stroke="#005467" stroke-width="0.743253" stroke-miterlimit="10"/>
<path d="M473.003 55.7654C473.003 55.7654 454.327 61.9773 459.636 79.2857C459.636 79.2857 445.275 77.5601 441.386 96.5409C441.386 96.5409 419.525 95.718 420.719 118.176C421.914 140.635 446.841 129.007 446.841 129.007C446.841 129.007 453.199 149.196 470.335 139.228C470.335 139.228 480.953 153.696 492.767 139.228L473.003 55.7654Z" fill="#33324F"/>
<path d="M525.618 62.8268C525.618 62.8268 541.307 74.7727 530.569 89.3734C530.569 89.3734 544.718 92.4262 542.21 111.606C542.21 111.606 563.142 117.951 554.673 138.79C546.205 159.629 526.454 140.515 526.454 140.515C526.454 140.515 513.858 157.518 500.903 142.506C500.903 142.506 486.13 152.7 479.666 135.193L525.618 62.8268Z" fill="#33324F"/>
<path d="M533.794 65.1496C533.582 66.3177 533.343 67.5255 533.051 68.7732C532.299 71.9874 531.364 75.1561 530.25 78.2636L530.157 78.476C529.706 79.8033 529.215 81.1307 528.684 82.458C528.373 83.2156 527.851 83.8682 527.181 84.3387C526.511 84.8091 525.719 85.0777 524.901 85.1127L481.537 86.6258C478.206 86.7453 476.228 82.9093 475.033 79.737C470.494 67.1406 461.76 37.6208 492.581 27.5995C497.961 25.8444 503.703 25.5061 509.252 26.6172C520.694 28.9799 538.772 37.0501 533.794 65.1496Z" fill="#33324F"/>
<path d="M522.592 193.17C522.15 195.299 521.985 197.477 522.101 199.648C522.229 201.717 522.676 203.755 523.428 205.687C534.193 232.897 604.82 228.013 604.82 228.013L604.714 215.709L548.462 193.37L545.873 192.348L522.592 193.17Z" fill="#E8776E"/>
<path d="M546.909 200.02L525.817 210.359C524.531 208.734 523.51 206.915 522.791 204.97C521.906 202.599 521.07 200.272 520.282 197.989L520.044 197.285C518.384 192.281 517.044 187.543 515.955 183.03C513.541 173.23 512.241 163.19 512.08 153.098C512.08 149.661 512.173 146.462 512.411 143.807C514.966 138.236 518.194 132.998 522.021 128.211C522.672 127.733 523.349 127.282 523.986 126.884H524.702L528.91 127.043L535.812 127.322C536.662 128.344 537.525 129.498 538.467 130.786C538.909 131.423 539.352 132.1 539.794 132.817C541.772 143.104 543.962 165.35 545.396 181.424C545.502 182.658 545.595 183.839 545.688 184.981C545.688 185.459 545.767 185.937 545.807 186.388C545.847 186.839 545.887 187.29 545.926 187.715C546.046 188.976 546.139 190.171 546.232 191.286C546.325 192.401 546.444 193.595 546.511 194.577C546.749 198.002 546.909 200.02 546.909 200.02Z" fill="#E8776E"/>
<path d="M543.776 191.604L550.732 194.272" stroke="#924541" stroke-width="1.38607" stroke-miterlimit="10"/>
<path d="M600.081 213.93C599.816 214.182 599.564 214.421 599.325 214.673C595.9 218.35 595.489 223.022 603.227 227.522C604.179 228.044 605.267 228.261 606.346 228.146C610.779 227.778 615.136 226.782 619.288 225.186C621.073 224.584 622.649 223.483 623.827 222.014C624.589 221.78 625.38 221.654 626.177 221.642C626.758 221.689 627.323 221.856 627.836 222.133C627.342 222.943 626.574 223.551 625.672 223.845C623.947 224.562 624.345 228.199 628.592 226.195C632.11 224.522 633.198 222.438 632.296 220.673C632.665 220.959 633.02 221.265 633.357 221.589C637.99 226.035 641.215 221.814 636.145 217.514C635.587 217.036 634.99 216.571 634.366 216.187L634.698 215.974C635.07 216.187 635.428 216.412 635.773 216.651C641.083 220.461 643.206 215.324 637.671 212.112C636.072 211.185 634.393 210.403 632.654 209.776C633.462 209.822 634.265 209.929 635.056 210.094C640.286 211.209 641.786 206.656 636.835 205.302C630.663 203.904 624.274 203.747 618.04 204.838C611.438 206.457 605.294 209.567 600.081 213.93Z" fill="#E8776E"/>
<path d="M630.743 209.669C624.358 209.815 621.823 211.063 621.823 211.063" stroke="#924541" stroke-width="1.38607" stroke-miterlimit="10"/>
<path d="M629.773 220.872C628.39 220.266 626.843 220.14 625.38 220.514" stroke="#924541" stroke-width="1.38607" stroke-miterlimit="10"/>
<path d="M619.036 221.602C622.036 220.447 623.907 218.496 626.097 217.925C629.017 217.155 634.632 216.943 635.083 215.43C635.972 212.497 632.747 212.019 628.845 211.992C624.942 211.966 618.717 211.01 617.642 208.621" stroke="#924541" stroke-width="1.38607" stroke-miterlimit="10"/>
<path d="M540.325 127.096C540.365 127.471 540.365 127.849 540.325 128.224L536.157 189.135L532.573 241.485L421.489 239.693L439.727 128.463C439.174 125 439.952 121.457 441.905 118.544C443.857 115.631 446.839 113.565 450.252 112.761C453.571 111.991 457.048 111.434 460.433 110.889L462.875 110.544C464.574 110.332 466.234 110.146 467.826 109.987L469.924 109.788L471.384 109.655C477.941 109.084 482.626 108.991 482.626 108.991L497.943 110.04C500.884 110.043 503.822 110.211 506.744 110.544H507.381H507.766C508.137 110.611 508.509 110.65 508.867 110.69C509.916 110.836 510.938 111.009 511.947 111.181C512.956 111.354 513.805 111.513 514.708 111.699L516.977 112.177C519.539 112.761 521.942 113.425 524.158 114.102L526.375 114.765H526.454L527.251 114.991H527.384L528.061 115.256H528.207C530.742 116.544 535.414 119.424 540.325 127.096Z" fill="#FDBB3B"/>
<path d="M504.116 123.871L507.301 110.77C507.394 110.77 507.408 110.77 507.394 110.611H507.779C508.151 110.677 508.522 110.717 508.881 110.757C509.929 110.903 510.951 111.075 511.96 111.248C512.969 111.42 513.818 111.58 514.721 111.765L516.991 112.243C532.083 131.224 504.116 123.871 504.116 123.871Z" fill="white"/>
<path d="M504.911 122.756C504.911 122.756 504.58 123.406 503.942 124.375C500.279 129.844 486.382 145.387 462.888 110.544C464.587 110.332 466.246 110.146 467.839 109.987L469.936 109.788L471.396 109.655L504.049 122.464L504.911 122.756Z" fill="white"/>
<path d="M467.839 109.987L469.937 109.788C477.237 109.098 482.639 108.991 482.639 108.991L497.956 110.04C500.897 110.043 503.835 110.211 506.757 110.544L508.841 110.876C508.841 110.876 517.229 139.719 467.839 109.987Z" fill="#E8776E"/>
<g opacity="0.5">
<path d="M498.872 97.1383C497.77 98.7975 504.779 100.788 505.588 99.1691C506.398 97.5498 500.014 95.4261 498.872 97.1383Z" fill="#924541"/>
</g>
<path d="M555.63 178.57C555.63 178.57 551.302 181.371 546.139 184.238C542.903 186.084 539.551 187.72 536.104 189.136C533.45 190.144 531.246 190.649 530.078 190.171L526.734 122.796L526.349 114.832H526.481C526.753 114.884 527.019 114.96 527.278 115.057H527.41L528.087 115.323H528.233C530.304 116.212 533.875 118.349 537.83 123.419C538.653 124.468 539.489 125.636 540.325 126.95C540.75 127.614 541.175 128.278 541.586 129.021C546.989 138.392 552.55 153.616 555.63 178.57Z" fill="#FDBB3B"/>
<path d="M531.312 143.913C531.312 143.913 539.807 168.403 536.104 189.135" stroke="#EC9E05" stroke-width="1.11488" stroke-miterlimit="10"/>
<path d="M533.064 149.847L535.162 145.387" stroke="#EC9E05" stroke-width="1.11488" stroke-miterlimit="10"/>
<path d="M440.801 118.084L441 117.938C441.452 117.606 441.876 117.3 442.328 117.035C443.098 116.756 443.854 116.491 444.584 116.292L458.07 120.751C459.397 124.362 453.942 154.452 450.04 174.628C449.708 176.34 449.376 177.973 449.071 179.512C448.513 182.326 448.022 184.822 447.611 186.879C447.611 187.131 447.518 187.37 447.478 187.596C446.814 190.927 446.403 192.905 446.403 192.905L422.657 197.139H422.458C422.113 194.069 421.843 191.091 421.648 188.206C421.529 186.64 421.449 185.1 421.369 183.574C421.117 178.039 421.13 172.849 421.369 168.004C421.778 155.843 423.919 143.803 427.727 132.246L440.801 118.084Z" fill="#E8776E"/>
<path d="M446.098 187.118L503.771 213.253L503.293 225.544C503.293 225.544 412.623 227.495 422.817 186.853L446.098 187.118Z" fill="#E8776E"/>
<path d="M521.265 225.69C524.193 226.174 527.03 227.1 529.68 228.438C533.662 230.535 534.219 226.115 530.702 224.23C532.331 224.684 533.88 225.387 535.294 226.314C535.678 226.655 536.176 226.839 536.689 226.83C537.202 226.821 537.693 226.619 538.064 226.264C538.435 225.91 538.659 225.429 538.692 224.917C538.725 224.405 538.564 223.899 538.241 223.5C538.715 223.749 539.263 223.819 539.785 223.697C540.306 223.575 540.767 223.27 541.082 222.836C542.197 221.257 540.551 219.306 539.887 218.722C539.887 218.722 543.63 216.2 536.874 212.165C530.118 208.13 520.813 205.17 508.097 209.603C499.35 212.656 498.023 219.027 499.523 222.624C502.257 229.154 513.035 231.53 521.265 225.69Z" fill="#E8776E"/>
<path d="M530.702 224.23C524.782 221.151 521.835 221.018 521.835 221.018" stroke="#924541" stroke-width="1.38607" stroke-miterlimit="10"/>
<path d="M538.241 223.5C529.308 217.58 524.37 217.328 524.37 217.328" stroke="#924541" stroke-width="1.38607" stroke-miterlimit="10"/>
<path d="M539.887 218.722C534.419 214.156 526.349 212.696 526.349 212.696" stroke="#924541" stroke-width="1.38607" stroke-miterlimit="10"/>
<path d="M450.266 189.003L443.337 185.844" stroke="#924541" stroke-width="1.38607" stroke-miterlimit="10"/>
<path d="M449.416 113C449.416 113 417.149 121.8 409.596 183.853C409.596 183.853 438.519 186.64 452.761 181.994L462.888 119.61L449.416 113Z" fill="#FDBB3B"/>
<path d="M448.314 183.123L452.761 181.994L455.296 145.612" stroke="#EC9E05" stroke-width="1.11488" stroke-miterlimit="10"/>
<path d="M454.779 153.098L458.681 148.838" stroke="#EC9E05" stroke-width="1.11488" stroke-miterlimit="10"/>
<path d="M476.123 113.995C495.369 119.079 506.651 123.486 503.904 115.907L503.306 112.973L503.16 112.217L501.501 104.014L499.908 96.1296L499.138 92.3068L478.618 90.4884L477.516 100.828L477.065 105.089L476.123 113.995Z" fill="#E8776E"/>
<path opacity="0.5" d="M477.064 105.089C479.639 106.098 498.407 113.411 503.305 112.973L503.159 112.217L501.5 104.014L478.444 92.2935L477.064 105.089Z" fill="#924541"/>
<path d="M530.489 68.76C530.489 69.5564 530.383 70.3262 530.304 71.1359C530.304 71.6403 530.224 72.1314 530.171 72.6225C529.849 75.5493 529.343 78.453 528.658 81.3165C527.993 84.239 527.041 87.0889 525.817 89.8247C524.987 91.6878 523.978 93.4659 522.804 95.134C515.809 105.089 505.549 106.164 498.779 105.527C490.948 104.81 479.016 100.974 475.126 85.1127C473.817 79.302 473.472 73.3155 474.104 67.3928C474.104 66.6495 474.224 65.9328 474.317 65.2027C474.41 64.4727 474.489 63.6232 474.595 62.8666C477.051 45.4786 485.028 32.2053 505.522 34.1432C526.255 36.0811 531.525 50.8941 530.489 68.76Z" fill="#E8776E"/>
<path d="M508.27 87.0904L518.384 88.0726C510.155 86.7453 512.464 74.2551 512.464 74.2551" stroke="#924541" stroke-width="1.38607" stroke-miterlimit="10"/>
<path d="M524.291 75.1445C524.092 77.0294 522.884 78.4496 521.636 78.3169C520.388 78.1841 519.366 76.5515 519.592 74.68C519.818 72.8085 520.999 71.3749 522.247 71.5077C523.494 71.6404 524.476 73.2597 524.291 75.1445Z" fill="#33324F"/>
<path d="M502.337 72.9013C502.138 74.7994 500.93 76.2196 499.682 76.0869C498.434 75.9542 497.492 74.3083 497.691 72.4235C497.89 70.5387 499.085 69.1184 500.346 69.2511C501.607 69.3839 502.523 71.0165 502.337 72.9013Z" fill="#33324F"/>
<path d="M519.805 64.3532C518.145 66.5964 526.003 69.3705 527.331 67.1273C528.658 64.8841 521.517 62.0304 519.805 64.3532Z" fill="#33324F"/>
<path d="M502.376 61.5525C503.571 64.0744 495.315 65.2292 494.412 62.8798C493.51 60.5305 501.142 58.9377 502.376 61.5525Z" fill="#33324F"/>
<path d="M499.045 88.5902C499.094 90.2581 499.688 91.8641 500.736 93.1624C501.784 94.4606 503.229 95.3796 504.849 95.7787C506.469 96.1777 508.176 96.0348 509.707 95.3718C511.238 94.7087 512.51 93.5622 513.327 92.1076L499.045 88.5902Z" fill="#972A45"/>
<path d="M500.227 92.4396C501.231 94.0418 502.796 95.2132 504.616 95.7259C506.436 96.2386 508.382 96.0561 510.075 95.2137C509.68 94.2906 509.065 93.4786 508.282 92.8491C507.5 92.2196 506.575 91.7918 505.589 91.6033C504.689 91.3393 503.741 91.2774 502.814 91.4219C501.887 91.5665 501.004 91.9139 500.227 92.4396Z" fill="#DC3C5E"/>
<path d="M533.794 65.1497C533.582 66.3177 533.343 67.5256 533.051 68.7733C532.299 71.9875 531.364 75.1561 530.25 78.2637L530.158 78.4761C526.441 72.4633 529.149 58.2608 529.149 58.2608C517.734 57.1061 510.301 48.12 510.301 48.12C502.191 52.0224 489.966 50.6818 489.966 50.6818C487.59 62.8932 482.334 68.8396 479.679 71.1625C479.536 71.2847 479.36 71.3631 479.174 71.3883C478.987 71.4136 478.797 71.3846 478.626 71.3048C478.456 71.2251 478.311 71.098 478.211 70.9386C478.111 70.7792 478.058 70.5943 478.06 70.4059V66.4239L473.029 63.6365L475.777 52.6993L479.082 42.4125L493.683 33.1212L516.247 34.4485L523.946 41.3639L532.48 51.5313L533.794 65.1497Z" fill="#33324F"/>
<path d="M481.405 67.3264C480.903 66.6067 480.273 65.9857 479.546 65.4947C477.669 64.0765 475.333 63.4049 472.989 63.6099C472.44 63.676 471.903 63.8236 471.396 64.0479C470.448 64.4305 469.602 65.0306 468.928 65.8C468.342 66.4591 467.851 67.1961 467.468 67.9901C466.405 70.1058 466.06 72.51 466.485 74.8391C467.077 77.6495 468.636 80.1629 470.892 81.9403C471.575 82.5127 472.352 82.9619 473.188 83.2676C474.397 83.7915 475.738 83.9273 477.026 83.6563C478.315 83.3852 479.488 82.7207 480.383 81.7545C480.579 81.6493 480.747 81.4992 480.874 81.3165C480.972 81.1741 481.048 81.0174 481.099 80.8519L481.205 80.5466C481.431 79.8564 481.657 79.1131 481.856 78.3432C482.358 76.615 482.648 74.8321 482.719 73.0339C482.919 71.0387 482.457 69.033 481.405 67.3264Z" fill="#E8776E"/>
<path d="M477.237 79.2858C477.237 79.2858 481.153 66.5302 471.012 69.8087" stroke="#924541" stroke-width="1.38607" stroke-miterlimit="10"/>
<path d="M477.94 75.3701L473.56 73.3923" stroke="#924541" stroke-width="1.38607" stroke-miterlimit="10"/>
<path d="M490.988 45.8238L488.108 46.5273C488.032 46.5485 487.961 46.5848 487.9 46.6341C487.838 46.6834 487.788 46.7446 487.75 46.814C487.713 46.8834 487.69 46.9597 487.683 47.0382C487.676 47.1166 487.685 47.1957 487.71 47.2706L490.245 54.3585C490.29 54.4833 490.376 54.5886 490.49 54.6564C490.604 54.7242 490.738 54.7503 490.869 54.7302L491.692 54.5975C491.833 54.5776 491.961 54.5047 492.049 54.3937C492.138 54.2827 492.181 54.1419 492.17 54.0002L491.692 46.3282C491.687 46.2454 491.663 46.1648 491.623 46.0922C491.583 46.0196 491.528 45.9568 491.46 45.9085C491.393 45.8602 491.315 45.8275 491.234 45.8128C491.152 45.7982 491.068 45.8019 490.988 45.8238Z" fill="white"/>
<path d="M532.64 54.6902L530.065 53.2169C529.996 53.1787 529.92 53.1553 529.841 53.1481C529.762 53.1409 529.683 53.1501 529.608 53.175C529.534 53.2 529.465 53.2402 529.406 53.2931C529.348 53.346 529.301 53.4104 529.268 53.4823L526.202 60.3579C526.147 60.4765 526.136 60.6106 526.17 60.7367C526.204 60.8629 526.281 60.9731 526.388 61.0481L527.078 61.526C527.193 61.6094 527.334 61.6463 527.475 61.629C527.615 61.6117 527.744 61.5417 527.835 61.433L532.799 55.553C532.851 55.4877 532.887 55.4123 532.907 55.3317C532.927 55.2511 532.93 55.1672 532.915 55.0856C532.9 55.0039 532.867 54.9264 532.82 54.8582C532.773 54.7901 532.711 54.7328 532.64 54.6902Z" fill="white"/>
<path d="M505.111 124.561C505.096 124.46 505.06 124.364 505.005 124.279C504.95 124.193 504.877 124.121 504.792 124.065C504.706 124.01 504.61 123.974 504.51 123.958C504.409 123.943 504.306 123.95 504.208 123.977C504.137 123.921 504.055 123.88 503.968 123.856C503.88 123.832 503.789 123.825 503.699 123.836C503.609 123.847 503.522 123.876 503.443 123.92C503.365 123.965 503.295 124.025 503.24 124.096C499.654 128.178 497.346 133.223 496.603 138.604C496.258 141.803 496.882 146.342 500.306 147.736C503.425 149.064 505.788 145.772 506.624 143.144C508.403 137.463 505.974 130.229 505.111 124.561ZM499.258 145.028C496.868 142.48 498.023 137.476 498.966 134.556C500.034 131.338 501.68 128.343 503.824 125.716C504.341 129.114 504.925 132.512 505.363 135.923C505.637 137.54 505.713 139.185 505.589 140.821C505.323 143.037 503.226 149.289 499.258 145.028Z" fill="white"/>
<path d="M510.261 142.44C512.013 144.564 515.411 146.714 517.827 144.365C520.482 141.79 519.38 137.356 517.827 134.502C515.123 129.784 511.094 125.962 506.239 123.512C506.081 123.421 505.893 123.396 505.716 123.443C505.539 123.491 505.389 123.606 505.297 123.764C505.196 123.775 505.098 123.807 505.01 123.858C504.922 123.909 504.846 123.979 504.787 124.062C504.728 124.144 504.688 124.239 504.668 124.339C504.648 124.439 504.65 124.541 504.673 124.64C506.093 130.215 506.465 137.834 510.261 142.44ZM510.328 139.918C509.606 138.445 509.066 136.889 508.721 135.286C507.859 131.967 507.129 128.649 506.359 125.238C509.318 126.887 511.957 129.054 514.15 131.635C516.115 133.998 519.048 138.272 517.774 141.484C515.663 146.9 511.403 141.869 510.328 139.918Z" fill="white"/>
<path d="M508.058 134.118C507.991 133.188 506.544 133.175 506.597 134.118C507.392 146.445 507.183 158.817 505.974 171.11C505.881 172.039 507.301 172.039 507.434 171.11C508.643 158.817 508.852 146.445 508.058 134.118Z" fill="white"/>
<path d="M506.292 135.498C506.027 134.595 507.407 134.171 507.619 134.994C511.074 146.858 515.486 158.421 520.813 169.571C521.211 170.42 519.844 170.898 519.486 170.075C514.161 158.925 509.749 147.361 506.292 135.498Z" fill="white"/>
<path d="M393.792 358.619C559.753 358.619 694.291 331.15 694.291 297.265C694.291 263.381 559.753 235.912 393.792 235.912C227.831 235.912 93.2935 263.381 93.2935 297.265C93.2935 331.15 227.831 358.619 393.792 358.619Z" fill="#002052"/>
<path d="M133.831 260.347V262.789C133.832 264.267 134.4 265.687 135.417 266.759C136.435 267.831 137.824 268.471 139.3 268.55L263.047 275.186C266.374 275.367 269.702 274.847 272.816 273.66L316.618 256.922C317.706 256.502 318.642 255.763 319.303 254.801C319.964 253.839 320.319 252.7 320.321 251.533V245.096L133.831 260.347Z" fill="#E2E4E4"/>
<path d="M268.09 264.913L320.281 245.069L171.182 240.609L133.831 260.347L268.09 264.913Z" fill="#CDCDCD"/>
<path d="M294.491 252.131L287.098 254.878L285.89 255.343L278.497 258.09L277.289 258.542H277.275L267.586 262.165L265.648 258.197L265.489 257.865L265.396 257.692L265.263 257.413L262.17 251.082L280.726 251.679L282.067 251.719H282.08L294.491 252.131Z" fill="#3F3E58"/>
<path d="M287.097 254.878L285.889 255.343L273.359 254.944L272.005 254.905L265.568 254.719L265.581 254.228L273.213 254.453L274.58 254.493L287.097 254.878Z" fill="#CDCDCD"/>
<path d="M278.496 258.09L277.289 258.541H277.275L265.648 258.196L265.489 257.865L265.25 257.957L265.144 257.679L265.396 257.692L265.913 257.719L278.496 258.09Z" fill="#CDCDCD"/>
<path d="M282.067 251.719L274.581 254.493L273.36 254.945L265.913 257.719L265.489 257.865L265.25 257.958L265.144 257.679L265.064 257.48L265.263 257.413L272.006 254.905L273.214 254.453L280.726 251.679L282.067 251.719Z" fill="#CDCDCD"/>
<path d="M268.064 265.629L133.804 261.063L122.403 179.738C121.168 171.004 127.168 164.168 135.769 164.46L238.849 167.964C247.45 168.256 255.428 175.57 256.649 184.304L268.064 265.629Z" fill="#E2E4E4"/>
<path d="M190.202 234.358C195.538 234.358 199.864 230.031 199.864 224.695C199.864 219.358 195.538 215.032 190.202 215.032C184.865 215.032 180.539 219.358 180.539 224.695C180.539 230.031 184.865 234.358 190.202 234.358Z" fill="#FDBB3B"/>
<path d="M687.831 240.317H530.131L543.152 134.264H700.853L687.831 240.317Z" fill="#00B0D1"/>
<path d="M694.441 240.317H536.741L549.762 134.264H707.475L694.441 240.317Z" fill="#0088BB"/>
<path d="M596.604 265.138L628.99 256.444L632.428 266.213L596.604 265.138Z" fill="#0088BB"/>
<path d="M606.519 198.334H632.11L648.635 253.126C649.242 255.135 649.371 257.258 649.01 259.326C648.649 261.393 647.81 263.347 646.558 265.032C645.307 266.717 643.679 268.086 641.804 269.028C639.928 269.971 637.859 270.462 635.76 270.461H626.469L606.519 198.334Z" fill="#00B0D1"/>
<path d="M611.072 198.334H636.663L654.383 257.042C654.85 258.597 654.948 260.24 654.667 261.839C654.387 263.439 653.737 264.951 652.769 266.255C651.8 267.558 650.54 268.618 649.09 269.348C647.639 270.078 646.038 270.459 644.414 270.461H630.982L611.072 198.334Z" fill="#006891"/>
<path d="M632.415 265.112H596.591V270.461H632.415V265.112Z" fill="#006891"/>
<path d="M632.89 178.369C634.303 172.406 630.614 166.426 624.651 165.013C618.688 163.6 612.708 167.289 611.295 173.252C609.882 179.216 613.571 185.195 619.534 186.608C625.498 188.021 631.477 184.332 632.89 178.369Z" fill="#00B0D1"/>
<path d="M492.395 246.768H477.675V252.622H492.395V246.768Z" fill="#00B0D1"/>
<path d="M512.491 246.768H497.771V252.622H512.491V246.768Z" fill="#00B0D1"/>
<path d="M532.586 246.768H517.866V252.622H532.586V246.768Z" fill="#00B0D1"/>
<path d="M552.696 246.768H537.976V252.622H552.696V246.768Z" fill="#00B0D1"/>
<path d="M572.791 246.768H558.071V252.622H572.791V246.768Z" fill="#00B0D1"/>
<path d="M592.887 246.768H578.167V252.622H592.887V246.768Z" fill="#00B0D1"/>
<path d="M612.996 246.768H598.276V252.622H612.996V246.768Z" fill="#00B0D1"/>
<path d="M615.93 250.578H474.477V258.621H615.93V250.578Z" fill="#006891"/>
<path d="M466.167 258.555H415.238C414.948 258.553 414.664 258.48 414.409 258.342C414.154 258.205 413.937 258.006 413.777 257.765C413.617 257.524 413.519 257.247 413.492 256.959C413.464 256.67 413.507 256.38 413.618 256.112C417.056 247.91 431.046 223.54 467.335 255.489C467.603 255.725 467.792 256.036 467.878 256.383C467.963 256.729 467.941 257.093 467.814 257.426C467.687 257.76 467.461 258.046 467.167 258.248C466.873 258.45 466.524 258.557 466.167 258.555Z" fill="#0088BB"/>
<path d="M467.335 255.489L449.389 243.078" stroke="#00B0D1" stroke-width="2.00879" stroke-miterlimit="10"/>
</g>
<g clip-path="url(#clip7_8_3819)">
<path d="M139.58 120.112H68.2488C64.0936 120.112 60.7251 123.48 60.7251 127.635V143.972C60.7251 148.128 64.0936 151.496 68.2488 151.496H139.58C143.735 151.496 147.104 148.128 147.104 143.972V127.635C147.104 123.48 143.735 120.112 139.58 120.112Z" fill="#F7F7F7"/>
<path d="M146.719 144.295V163.928L136.857 150.914L146.719 144.295Z" fill="#F7F7F7"/>
<path d="M70.8274 143.44V128.442H72.4465V130.174H72.6453C72.7684 129.985 72.9388 129.744 73.1566 129.45C73.3791 129.152 73.6963 128.887 74.1082 128.655C74.5248 128.418 75.0882 128.3 75.7983 128.3C76.7168 128.3 77.5263 128.529 78.227 128.988C78.9277 129.448 79.4745 130.099 79.8674 130.941C80.2604 131.784 80.4568 132.778 80.4568 133.924C80.4568 135.079 80.2604 136.08 79.8674 136.928C79.4745 137.77 78.93 138.424 78.2341 138.888C77.5382 139.347 76.7357 139.577 75.8267 139.577C75.1261 139.577 74.5651 139.461 74.1437 139.229C73.7224 138.992 73.3981 138.724 73.1708 138.426C72.9436 138.123 72.7684 137.872 72.6453 137.673H72.5033V143.44H70.8274ZM72.4749 133.895C72.4749 134.719 72.5956 135.446 72.8371 136.076C73.0785 136.701 73.4312 137.191 73.8952 137.546C74.3591 137.896 74.9272 138.071 75.5995 138.071C76.3002 138.071 76.8848 137.886 77.3535 137.517C77.827 137.143 78.182 136.641 78.4187 136.012C78.6602 135.377 78.7809 134.672 78.7809 133.895C78.7809 133.129 78.6626 132.437 78.4258 131.822C78.1939 131.202 77.8412 130.712 77.3677 130.352C76.899 129.987 76.3096 129.805 75.5995 129.805C74.9178 129.805 74.3449 129.978 73.881 130.323C73.417 130.664 73.0667 131.143 72.83 131.758C72.5932 132.369 72.4749 133.081 72.4749 133.895ZM84.6893 132.788V139.349H83.0133V124.806H84.6893V130.146H84.8313C85.087 129.583 85.4704 129.135 85.9817 128.804C86.4978 128.468 87.1842 128.3 88.0411 128.3C88.7844 128.3 89.4354 128.449 89.994 128.747C90.5527 129.041 90.9858 129.493 91.2936 130.103C91.606 130.709 91.7623 131.481 91.7623 132.418V139.349H90.0863V132.532C90.0863 131.666 89.8615 130.996 89.4117 130.522C88.9667 130.044 88.3489 129.805 87.5582 129.805C87.0091 129.805 86.5167 129.921 86.0812 130.153C85.6503 130.385 85.3095 130.724 85.0586 131.169C84.8124 131.614 84.6893 132.153 84.6893 132.788ZM95.5171 143.44C95.2331 143.44 94.9798 143.416 94.7573 143.369C94.5348 143.326 94.3809 143.284 94.2957 143.241L94.7218 141.764C95.1289 141.868 95.4887 141.906 95.8012 141.877C96.1136 141.849 96.3906 141.709 96.632 141.458C96.8782 141.212 97.1031 140.812 97.3067 140.258L97.6191 139.406L93.5856 128.442H95.4035L98.4145 137.134H98.5281L101.539 128.442H103.357L98.727 140.94C98.5187 141.503 98.2606 141.97 97.9529 142.339C97.6452 142.713 97.2877 142.99 96.8806 143.17C96.4782 143.35 96.0237 143.44 95.5171 143.44ZM110.313 128.442V129.862H104.66V128.442H110.313ZM106.308 125.828H107.984V136.225C107.984 136.698 108.052 137.053 108.19 137.29C108.332 137.522 108.511 137.678 108.729 137.759C108.952 137.834 109.186 137.872 109.432 137.872C109.617 137.872 109.768 137.863 109.887 137.844C110.005 137.82 110.1 137.801 110.171 137.787L110.512 139.293C110.398 139.335 110.239 139.378 110.036 139.42C109.832 139.468 109.574 139.491 109.262 139.491C108.788 139.491 108.324 139.39 107.87 139.186C107.42 138.982 107.046 138.672 106.748 138.256C106.454 137.839 106.308 137.314 106.308 136.679V125.828ZM117.148 139.577C116.163 139.577 115.299 139.342 114.556 138.874C113.817 138.405 113.24 137.749 112.823 136.906C112.411 136.064 112.205 135.079 112.205 133.952C112.205 132.816 112.411 131.824 112.823 130.977C113.24 130.129 113.817 129.471 114.556 129.003C115.299 128.534 116.163 128.3 117.148 128.3C118.133 128.3 118.994 128.534 119.733 129.003C120.476 129.471 121.054 130.129 121.466 130.977C121.882 131.824 122.091 132.816 122.091 133.952C122.091 135.079 121.882 136.064 121.466 136.906C121.054 137.749 120.476 138.405 119.733 138.874C118.994 139.342 118.133 139.577 117.148 139.577ZM117.148 138.071C117.896 138.071 118.511 137.879 118.994 137.496C119.477 137.112 119.835 136.608 120.067 135.983C120.299 135.358 120.415 134.681 120.415 133.952C120.415 133.223 120.299 132.544 120.067 131.914C119.835 131.285 119.477 130.776 118.994 130.387C118.511 129.999 117.896 129.805 117.148 129.805C116.4 129.805 115.785 129.999 115.302 130.387C114.819 130.776 114.461 131.285 114.229 131.914C113.997 132.544 113.881 133.223 113.881 133.952C113.881 134.681 113.997 135.358 114.229 135.983C114.461 136.608 114.819 137.112 115.302 137.496C115.785 137.879 116.4 138.071 117.148 138.071ZM126.325 132.788V139.349H124.649V128.442H126.268V130.146H126.41C126.666 129.592 127.054 129.147 127.575 128.811C128.095 128.47 128.768 128.3 129.591 128.3C130.33 128.3 130.976 128.451 131.53 128.754C132.084 129.052 132.515 129.507 132.823 130.118C133.13 130.724 133.284 131.49 133.284 132.418V139.349H131.608V132.532C131.608 131.675 131.386 131.008 130.941 130.529C130.496 130.047 129.885 129.805 129.108 129.805C128.574 129.805 128.095 129.921 127.674 130.153C127.257 130.385 126.928 130.724 126.687 131.169C126.445 131.614 126.325 132.153 126.325 132.788Z" fill="#0088BB"/>
</g>
<defs>
<clipPath id="clip0_8_3819">
<rect width="210.792" height="137.82" fill="white" transform="translate(566.574 53.4838)"/>
</clipPath>
<clipPath id="clip1_8_3819">
<rect width="92.0339" height="60.1909" fill="white" transform="translate(130.699 2)"/>
</clipPath>
<clipPath id="clip2_8_3819">
<rect width="92.0339" height="60.1909" fill="white" transform="translate(0.293457 234.129)"/>
</clipPath>
<clipPath id="clip3_8_3819">
<rect width="53.3732" height="53.3732" fill="white" transform="translate(93.4526 82.502)"/>
</clipPath>
<clipPath id="clip4_8_3819">
<rect width="86.3789" height="43.5477" fill="white" transform="translate(345.137 76.2322)"/>
</clipPath>
<clipPath id="clip5_8_3819">
<rect width="47.7574" height="47.7574" fill="white" transform="translate(690.867 198.044)"/>
</clipPath>
<clipPath id="clip6_8_3819">
<rect width="614.182" height="300.056" fill="white" transform="translate(93.2935 0.349365)"/>
</clipPath>
<clipPath id="clip7_8_3819">
<rect width="86.3789" height="43.5477" fill="white" transform="translate(60.7251 120.112)"/>
</clipPath>
</defs>
</svg>
