<svg width="507" height="431" viewBox="0 0 507 431" fill="none" xmlns="http://www.w3.org/2000/svg">
<g clip-path="url(#clip0_8_4157)">
<path opacity="0.2" d="M146.983 37.2302C146.983 37.2302 214.693 -28.2411 268.455 15.3881C322.217 59.0172 301.323 102.536 371.481 99.197C441.639 95.8579 463.172 122.736 476.172 193.828C489.172 264.919 406.455 344.243 291.863 341.775C177.271 339.306 80.1657 359.01 38.6091 313.001C-2.94751 266.991 8.39814 189.596 59.0401 171.225C109.682 152.855 96.5502 77.3659 146.983 37.2302Z" fill="#6CEEFF"/>
<path d="M114.026 343.802C114.026 343.802 78.743 327.426 70.1538 276.127C61.6639 225.335 29.4683 204.936 29.4683 204.936C29.4683 204.936 48.8408 217.576 61.4434 233.798C74.046 250.02 79.0848 293.77 88.8317 305.209C98.5786 316.648 122.053 329.773 122.053 329.773L114.026 343.802Z" fill="#54C4FF"/>
<path d="M0.525879 219.152C0.525879 219.152 6.6232 215.273 25.6429 223.483C44.6626 231.693 67.0121 254.252 67.0121 254.252C67.0121 254.252 53.0643 260.335 37.8706 254.792C22.6769 249.249 8.86146 224.828 0.525879 219.152Z" fill="#54C4FF"/>
<path d="M66.2289 248.653C66.2289 248.653 62.2486 231.153 68.5664 218.899C74.0794 208.154 75.7774 194.588 76.0089 193.828C76.0089 193.828 84.0578 200.065 87.6743 221.378C91.2908 242.692 66.2289 248.653 66.2289 248.653Z" fill="#54C4FF"/>
<path d="M53.946 227.704C53.946 227.704 30.13 222.646 24.4627 204.055C20.7911 191.998 15.2009 180.747 11.0221 177.055C6.8433 173.363 23.8232 177.22 39.7446 188.207C55.666 199.195 53.946 227.704 53.946 227.704Z" fill="#54C4FF"/>
<path d="M74.6635 283.632C74.6635 283.632 74.1342 265.823 82.8226 258.285C96.1309 246.747 101.082 228.299 101.082 228.299C107.245 236.744 110.418 247 110.101 257.448C109.483 274.816 81.9847 289.693 74.6635 283.632Z" fill="#54C4FF"/>
<path d="M78.2028 285.505C78.2028 285.505 61.1678 268.093 48.3778 268.016C38.7742 268.016 7.85759 264.842 9.78712 261.327C9.78712 261.327 12.4664 280.645 37.0983 291.544C61.7301 302.443 78.2028 285.505 78.2028 285.505Z" fill="#54C4FF"/>
<path d="M94.4879 312.35C94.4879 312.35 91.1801 303.16 104.687 289.208C113.504 279.888 121.637 269.944 129.021 259.453C129.021 259.453 137.621 265.713 129.473 291.533C121.325 317.354 94.4879 312.35 94.4879 312.35Z" fill="#54C4FF"/>
<path d="M94.3225 321.596C94.3225 321.596 79.3604 309.342 67.1657 308.637C54.9711 307.931 19.4897 303.755 19.4897 303.755C19.4897 303.755 37.5281 329.344 55.6547 332.859C73.7813 336.375 94.3225 321.596 94.3225 321.596Z" fill="#54C4FF"/>
<path d="M392.706 275.014C392.706 275.014 427.989 258.638 436.578 207.35C445.068 156.557 477.274 136.148 477.274 136.148C477.274 136.148 457.891 148.788 445.244 165.01C432.597 181.232 427.603 224.982 417.867 236.432C408.131 247.882 384.635 260.985 384.635 260.985L392.706 275.014Z" fill="#54C4FF"/>
<path d="M506.217 150.364C506.217 150.364 500.109 146.485 481.1 154.706C462.091 162.927 439.731 185.474 439.731 185.474C439.731 185.474 453.679 191.558 468.861 186.003C484.044 180.449 497.882 156.039 506.217 150.364Z" fill="#54C4FF"/>
<path d="M440.459 179.865C440.459 179.865 444.45 162.365 438.132 150.11C432.619 139.366 430.921 125.8 430.69 125.039C430.69 125.039 422.63 131.277 419.013 152.59C415.397 173.903 440.459 179.865 440.459 179.865Z" fill="#54C4FF"/>
<path d="M452.786 158.927C452.786 158.927 476.602 153.857 482.269 135.277C485.952 123.221 491.531 111.969 495.71 108.278C499.888 104.586 482.92 108.432 467.042 119.419C451.165 130.406 452.786 158.927 452.786 158.927Z" fill="#54C4FF"/>
<path d="M432.068 214.876C432.068 214.876 432.597 197.068 423.909 189.53C410.612 178.003 405.661 159.555 405.661 159.555C399.493 167.993 396.315 178.246 396.631 188.692C397.259 206.005 424.758 220.905 432.068 214.876Z" fill="#54C4FF"/>
<path d="M428.529 216.728C428.529 216.728 445.619 199.305 458.365 199.239C467.969 199.239 498.875 196.065 496.956 192.549C496.956 192.549 494.266 211.857 469.634 222.767C445.002 233.677 428.529 216.728 428.529 216.728Z" fill="#54C4FF"/>
<path d="M412.255 243.573C412.255 243.573 415.508 234.371 402.045 220.431C393.232 211.107 385.099 201.164 377.711 190.676C377.711 190.676 369.111 196.936 377.27 222.767C385.429 248.598 412.255 243.573 412.255 243.573Z" fill="#54C4FF"/>
<path d="M412.42 252.775C412.42 252.775 427.382 240.521 439.577 239.826C451.771 239.132 487.253 234.933 487.253 234.933C487.253 234.933 469.203 260.522 451.143 264.049C433.082 267.575 412.42 252.775 412.42 252.775Z" fill="#54C4FF"/>
<path d="M222.256 189.254C222.256 189.254 227.185 150.684 188.318 116.102C149.827 81.8622 149.728 43.7542 149.728 43.7542C149.728 43.7542 150.113 66.8967 157.104 86.2151C164.094 105.534 198.506 133.084 202.994 147.422C207.481 161.759 206.092 188.615 206.092 188.615L222.256 189.254Z" fill="#54C4FF"/>
<path d="M177.16 26.8601C177.16 26.8601 170.622 29.9568 167.457 50.4104C164.293 70.8639 171.427 101.798 171.427 101.798C171.427 101.798 184.007 93.246 187.403 77.443C190.799 61.64 177.524 36.9216 177.16 26.8601Z" fill="#54C4FF"/>
<path d="M167.138 98.1501C167.138 98.1501 154.447 85.4547 140.676 84.2756C128.635 83.2397 116.253 77.421 115.481 77.2116C115.481 77.2116 116.474 87.3502 132.572 101.743C148.669 116.135 167.138 98.1501 167.138 98.1501Z" fill="#54C4FF"/>
<path d="M155.99 76.5945C155.99 76.5945 164.392 53.7605 151.668 39.0595C143.421 29.527 136.871 18.8153 135.967 13.3052C135.063 7.79511 129.286 24.2153 130.112 43.5448C130.939 62.8743 155.99 76.5945 155.99 76.5945Z" fill="#54C4FF"/>
<path d="M192.288 123.926C192.288 123.926 177.492 114.008 166.488 117.314C149.64 122.428 131.381 116.785 131.381 116.785C135.238 126.491 142.222 134.634 151.228 139.928C166.245 148.656 193.479 133.327 192.288 123.926Z" fill="#54C4FF"/>
<path d="M191.979 127.905C191.979 127.905 186.323 104.167 193.082 93.3563C198.165 85.2013 211.98 57.3972 207.956 57.1878C207.956 57.1878 222.885 69.7399 218.982 96.3868C215.078 123.034 191.979 127.905 191.979 127.905Z" fill="#54C4FF"/>
<path d="M206.037 155.973C206.037 155.973 199.984 148.325 180.997 152.27C168.4 154.765 155.64 156.346 142.814 156.998C142.814 156.998 143.542 167.611 169.751 174.476C195.959 181.342 206.037 155.973 206.037 155.973Z" fill="#54C4FF"/>
<path d="M213.943 160.756C213.943 160.756 211.539 141.57 217.449 130.891C223.359 120.213 238.696 87.9123 238.696 87.9123C238.696 87.9123 250.759 116.796 244.11 133.966C237.461 151.135 213.943 160.756 213.943 160.756Z" fill="#54C4FF"/>
<path d="M422.969 58.4193C418.921 57.0353 414.679 56.2813 410.397 56.1843C409.597 53.8194 408.552 51.5425 407.279 49.3897C412.046 44.4503 417.197 37.5887 416.316 34.5379C414.791 29.2855 409.471 23.2621 402.829 26.0894C398.39 28.2393 394.371 31.1486 390.957 34.6831C389.134 33.865 387.244 33.1996 385.309 32.6939C385.083 25.9888 383.806 18.0767 381.107 16.5904C376.272 13.9307 368.218 13.3943 365.53 20.0436C363.988 24.4987 363.224 29.181 363.271 33.8897C362.333 34.2473 361.407 34.6384 360.503 35.0743C355.499 30.1013 347.671 24.089 344.35 25.0166C339.041 26.5252 332.952 31.7888 335.81 38.3598C338.003 42.7822 340.971 46.7853 344.576 50.1832C343.514 52.1086 342.63 54.1245 341.933 56.2066C334.952 56.3072 325.949 57.5365 324.345 60.3862C321.668 65.1692 321.126 73.1483 327.847 75.7968C332.208 77.2823 336.789 78.0377 341.402 78.0319C341.81 79.475 342.304 80.893 342.881 82.2784C338.307 87.1508 333.619 93.5654 334.455 96.4822C335.98 101.746 341.3 107.758 347.942 104.942C351.277 103.353 354.369 101.306 357.126 98.8625C359.082 100.079 361.151 101.108 363.304 101.936C363.576 108.529 364.841 116.173 367.484 117.581C372.33 120.241 380.384 120.766 383.072 114.128C384.33 110.563 385.057 106.836 385.23 103.064C388.459 102.229 391.551 100.942 394.413 99.2424C398.999 103.176 404.331 106.685 406.918 105.948C412.238 104.45 418.315 99.2424 415.469 92.6044C413.779 89.1482 411.587 85.9555 408.962 83.1278C409.738 81.4578 410.384 79.7319 410.894 77.9648C417.48 77.6742 425.003 76.4114 426.448 73.8411C429.148 69.0581 429.69 61.1014 422.969 58.4193ZM376.204 86.5027C372.494 86.4784 368.873 85.3687 365.799 83.3134C362.724 81.2581 360.333 78.349 358.926 74.9522C357.519 71.5554 357.159 67.8227 357.891 64.2239C358.624 60.6251 360.416 57.321 363.042 54.7276C365.668 52.1341 369.011 50.3671 372.65 49.649C376.289 48.9309 380.061 49.2938 383.492 50.692C386.923 52.0901 389.859 54.4611 391.931 57.5065C394.003 60.5519 395.118 64.1356 395.136 67.8065C395.138 70.265 394.649 72.6995 393.698 74.9707C392.746 77.2419 391.351 79.305 389.593 81.0419C387.834 82.7787 385.746 84.1551 383.448 85.0922C381.151 86.0292 378.689 86.5086 376.204 86.5027Z" fill="#9BE7FF"/>
<path d="M335.768 420.36H78.3906C78.3906 420.36 90.5191 388.677 115.294 382.891C140.07 377.105 151.426 392.688 167.557 388.401C183.688 384.114 174.492 321.101 254.121 312.935C333.751 304.769 344.809 407.709 359.253 395.906C374.557 383.409 404.074 375.177 428.331 420.36H335.768Z" fill="#E2F9F5"/>
<path d="M421.979 139.123C422.024 137.587 421.459 136.096 420.407 134.975C419.356 133.854 417.904 133.194 416.367 133.139H90.3644C88.8299 133.197 87.3802 133.858 86.3311 134.979C85.2821 136.099 84.7185 137.589 84.7632 139.123V343.946H421.979V139.123Z" fill="#3E2D4A"/>
<path d="M84.7632 342.425V372.598C84.7632 374.901 87.2881 376.797 90.3643 376.797H416.367C419.454 376.797 421.979 374.901 421.979 372.598V342.425H84.7632Z" fill="#FBF6EF"/>
<path d="M403.049 150.937H103.695V325.255H403.049V150.937Z" fill="#C4F1FF"/>
<path opacity="0.2" d="M402.033 151.367L102.68 325.685H402.033V151.367Z" fill="#5BCDFF"/>
<path d="M261.167 359.605V427.589H202.333L224.759 359.605H261.167Z" fill="#FBF6EF"/>
<path d="M243.547 359.605V427.589H302.382L279.966 359.605H243.547Z" fill="#FBF6EF"/>
<path d="M313.551 416.569H191.174C188.227 416.569 185.838 418.957 185.838 421.903V422.663C185.838 425.609 188.227 427.997 191.174 427.997H313.551C316.498 427.997 318.887 425.609 318.887 422.663V421.903C318.887 418.957 316.498 416.569 313.551 416.569Z" fill="#FBF6EF"/>
<path d="M260.56 352.244H244.198C243.221 352.244 242.284 352.632 241.594 353.322C240.903 354.012 240.515 354.948 240.515 355.925C240.515 356.901 240.903 357.837 241.594 358.527C242.284 359.217 243.221 359.605 244.198 359.605H260.593C261.57 359.605 262.507 359.217 263.197 358.527C263.888 357.837 264.276 356.901 264.276 355.925C264.276 354.948 263.888 354.012 263.197 353.322C262.507 352.632 261.57 352.244 260.593 352.244H260.56Z" fill="#CECECF"/>
<path d="M289.68 389.062H215.454L219.092 376.797H285.633L289.68 389.062Z" fill="#CECECF"/>
<path d="M472.148 108.939C469.663 108.079 467.059 107.614 464.43 107.561C463.937 106.085 463.294 104.663 462.511 103.319C465.444 100.244 468.63 95.9681 468.09 94.0616C467.142 90.7555 463.867 87.0417 459.766 88.7939C457.027 90.1354 454.548 91.9526 452.444 94.1607C451.324 93.6494 450.162 93.2328 448.971 92.9155C448.828 88.7498 448.045 83.8017 446.38 82.876C443.403 81.223 438.431 80.8924 436.766 85.0801C435.819 87.8572 435.353 90.7753 435.387 93.7089C434.803 93.9403 434.23 94.1828 433.678 94.4583C430.591 91.3616 425.762 87.6037 423.755 88.1878C420.447 89.1245 416.721 92.4085 418.485 96.5081C419.834 99.2568 421.66 101.745 423.876 103.859C423.223 105.061 422.677 106.318 422.245 107.616C417.944 107.616 412.387 108.443 411.406 110.217C409.741 113.193 409.41 118.163 413.556 119.827C416.257 120.749 419.093 121.214 421.947 121.204C422.182 122.1 422.473 122.979 422.818 123.838C419.984 126.869 417.095 130.869 417.614 132.654C418.551 135.961 421.837 139.685 425.938 137.922C427.998 136.935 429.907 135.658 431.606 134.131C432.808 134.892 434.082 135.534 435.409 136.049C435.575 140.159 436.358 144.865 437.99 145.835C440.978 147.488 445.95 147.818 447.604 143.631C448.384 141.413 448.834 139.092 448.938 136.743C450.927 136.223 452.832 135.421 454.595 134.363C457.439 136.809 460.725 138.991 462.313 138.539C465.62 137.603 469.336 134.319 467.583 130.219C466.536 128.055 465.177 126.058 463.548 124.29C464.024 123.249 464.422 122.173 464.738 121.072C468.807 120.896 473.438 120.102 474.331 118.504C475.952 115.562 476.282 110.614 472.148 108.939ZM443.315 126.439C441.025 126.428 438.79 125.74 436.89 124.462C434.991 123.183 433.513 121.371 432.642 119.254C431.772 117.138 431.547 114.811 431.997 112.567C432.448 110.323 433.552 108.262 435.172 106.644C436.792 105.027 438.855 103.925 441.101 103.477C443.346 103.029 445.674 103.255 447.791 104.128C449.908 105 451.72 106.479 452.997 108.379C454.274 110.278 454.961 112.513 454.969 114.802C454.971 116.331 454.67 117.846 454.085 119.259C453.5 120.673 452.641 121.957 451.558 123.038C450.476 124.119 449.19 124.976 447.776 125.559C446.361 126.143 444.845 126.442 443.315 126.439Z" fill="#FBF6EF"/>
<path d="M479.557 270.98L477.164 276.645C477.164 276.645 471.651 277.934 472.214 278.507C472.776 279.08 477.01 279.786 477.297 280.645C477.583 281.505 479.502 285.615 479.766 285.615C480.648 285.615 481.795 280.899 482.931 280.502C484.37 279.92 485.76 279.223 487.088 278.419C487.176 278.177 482.258 276.369 482.258 276.369C482.258 276.369 479.645 270.275 479.557 270.98Z" fill="#FBF6EF"/>
<path d="M179.046 54.5099L176.653 60.1853C176.653 60.1853 171.14 61.4637 171.702 62.0367C172.265 62.6098 176.499 63.3261 176.785 64.1747C177.072 65.0232 178.99 69.1448 179.266 69.1448C180.137 69.1448 181.284 64.4391 182.42 64.0314C183.861 63.4537 185.251 62.757 186.576 61.9486C186.665 61.7061 181.747 59.9098 181.747 59.9098C181.747 59.9098 179.145 53.8046 179.046 54.5099Z" fill="#FBF6EF"/>
<path d="M214.56 113.7C214.56 113.7 222.488 127.783 219.544 133.536C216.6 139.289 227.262 136.071 226.887 127.706C227.176 130.82 226.309 133.93 224.45 136.445C221.275 141.019 236.193 143.487 236.502 129.679C236.81 115.871 223.138 105.357 214.56 113.7Z" fill="#FF8C39"/>
<path d="M285.975 113.413C285.975 113.413 278.18 127.739 281.124 133.536C284.068 139.333 273.406 136.071 273.78 127.706C273.491 130.82 274.359 133.93 276.217 136.445C279.393 141.019 264.475 143.487 264.166 129.679C263.857 115.871 277.397 105.104 285.975 113.413Z" fill="#FF8C39"/>
<path d="M217.273 73.7843C217.273 73.7843 210.018 85.7523 210.018 99.759C210.018 114.559 226.193 127.938 234.627 127.475C243.062 127.012 240.14 57.838 217.273 73.7843Z" fill="#FF8C39"/>
<path d="M223.899 106.801C223.899 106.801 222.025 92.3204 214.56 96.5521C211.704 98.1721 212.498 119.111 223.976 115.54C230.57 113.501 223.899 106.801 223.899 106.801Z" fill="#DF9E86"/>
<path d="M275.07 100.696C275.07 100.696 278.896 93.6097 282.976 95.1856C287.056 96.7615 288.324 110.812 277.364 116.124C266.404 121.436 272.424 104.376 275.07 100.696Z" fill="#DF9E86"/>
<path d="M219.786 79.8455C219.786 79.8455 213.314 132.114 247.417 132.743C284.244 133.393 290.54 82.0495 271.674 65.8828C254.485 51.2369 217.912 53.1655 219.786 79.8455Z" fill="#DF9E86"/>
<path d="M310.519 44.735C310.519 44.735 260.185 16.424 255.951 16.5011C251.717 16.5782 192.266 34.96 192.839 37.8804C193.412 40.8007 244.959 66.7754 249.832 67.1832C254.705 67.5909 313.914 47.4239 310.519 44.735Z" fill="#312A45"/>
<path d="M266.04 106.581C266.04 106.581 261.376 145.912 271.741 149.559C282.105 153.207 316.274 168.195 324.037 175.435C331.799 182.675 332.857 202.589 332.857 202.589H182.707L183.247 173.143C183.247 173.143 218.805 152.987 226.457 152.612C233.613 152.27 229.28 103.495 229.28 103.495L266.04 106.581Z" fill="#DF9E86"/>
<path d="M262.92 99.2648C262.949 97.3661 261.911 95.8107 260.602 95.7909C259.293 95.771 258.209 97.2941 258.18 99.1928C258.151 101.092 259.189 102.647 260.498 102.667C261.807 102.687 262.891 101.163 262.92 99.2648Z" fill="#312A45"/>
<path d="M239.465 98.9375C239.494 97.0388 238.456 95.4834 237.147 95.4636C235.838 95.4437 234.753 96.9668 234.725 98.8655C234.696 100.764 235.734 102.32 237.043 102.339C238.352 102.359 239.436 100.836 239.465 98.9375Z" fill="#312A45"/>
<path d="M264.53 115.606C267.44 115.606 269.8 113.248 269.8 110.338C269.8 107.429 267.44 105.071 264.53 105.071C261.619 105.071 259.259 107.429 259.259 110.338C259.259 113.248 261.619 115.606 264.53 115.606Z" fill="#D4807C"/>
<path d="M233.724 113.005C236.634 113.005 238.994 110.647 238.994 107.738C238.994 104.828 236.634 102.47 233.724 102.47C230.813 102.47 228.453 104.828 228.453 107.738C228.453 110.647 230.813 113.005 233.724 113.005Z" fill="#D4807C"/>
<path d="M272.159 152.689C272.159 152.689 245.543 178.036 241.132 176.802C236.722 175.567 219.257 156.601 214.339 154.915C209.422 153.229 178.472 162.497 170.853 167.39C157.622 175.887 150.411 327.9 150.411 327.9H349.208C349.208 327.9 339.02 174.531 321.599 168.14C313.198 165.021 272.159 152.689 272.159 152.689Z" fill="#312A45"/>
<path d="M239.489 75.272C239.489 75.272 231.231 73.597 236.821 79.0079C242.411 84.4188 249.611 82.9752 257.77 85.4988C278.94 92.111 269.226 108.3 272.876 105.721C276.073 103.517 273.614 97.2464 278.51 97.2464C289.007 97.2464 282.523 110.812 277.407 113.898C275.565 117.88 273.447 121.728 271.067 125.414C266.657 131.916 272.887 125.998 276.713 123.309C286.537 116.411 293.075 103.87 287.937 91.7363C283.527 81.3552 283.527 78.4348 283.031 72.2525C282.534 66.0701 239.489 75.272 239.489 75.272Z" fill="#FF8C39"/>
<path d="M236.822 71.2386C236.822 71.2386 231.309 81.1568 228.343 86.7882C225.377 92.4195 222.367 99.2411 221.992 104.057C221.75 107.065 212.962 85.4768 216.479 79.4928C219.996 73.5088 234.032 65.431 236.822 71.2386Z" fill="#FF8C39"/>
<path d="M284.795 81.1568L286.526 47.0933L218.165 36.3926L214.549 79.4487C214.549 79.4487 245.796 78.4789 284.795 81.1568Z" fill="#312A45"/>
<path d="M276.835 109.038H275.732C275.732 106.503 277.937 100.784 278.003 100.541L279.029 100.938C279.029 100.938 276.835 106.713 276.835 109.038Z" fill="#312A45"/>
<path d="M220.525 110.239C220.504 109.045 220.239 107.867 219.748 106.778C219.257 105.689 218.55 104.71 217.669 103.903L218.331 103.032C219.354 103.925 220.177 105.024 220.747 106.256C221.317 107.488 221.621 108.827 221.639 110.184L220.525 110.239Z" fill="#312A45"/>
<path d="M231.562 126.681C231.562 126.681 243.294 140.887 263.14 129.216C263.14 129.216 263.251 138.484 260.505 142.44C257.76 146.397 234.043 142.925 230.36 139.851C230.36 139.84 231.485 128.687 231.562 126.681Z" fill="#D4807C"/>
<path d="M233.613 91.9897C235.377 92.1565 237.152 92.1565 238.916 91.9897C241.573 91.7032 239.776 88.4082 236.821 88.4853C233.866 88.5624 231.474 89.9841 233.613 91.9897Z" fill="#312A45"/>
<path d="M257.429 91.5269C259.149 91.9647 260.906 92.2378 262.677 92.3424C265.346 92.4746 264.078 88.9371 261.145 88.5514C258.212 88.1657 255.654 89.2126 257.429 91.5269Z" fill="#312A45"/>
<path d="M246.557 112.322C245.664 112.338 244.8 112.001 244.154 111.385C242.809 110.118 243.636 106.393 244.959 101.28C245.393 99.8704 245.7 98.4245 245.874 96.9599H246.976C246.828 98.5395 246.51 100.099 246.028 101.61C245.245 104.641 243.933 109.721 244.926 110.636C246.458 112.069 248.829 110.636 248.851 110.636L249.446 111.573C248.564 112.066 247.569 112.324 246.557 112.322Z" fill="#312A45"/>
<path d="M205.244 155.995C205.244 155.995 224.23 145.515 226.888 146.782C229.545 148.05 246.569 168.316 246.569 168.316C246.569 168.316 269.106 146.683 271.057 147.146C275.137 148.116 285.975 153.229 285.975 153.229C285.975 153.229 250.88 179.248 246.569 178.906C242.258 178.565 205.244 155.995 205.244 155.995Z" fill="white"/>
<path d="M294.3 158.706C294.3 158.706 363.057 176.449 374.182 189.122C385.307 201.795 363.256 249.733 358.294 250.835C353.332 251.938 296.031 222.183 292.988 216.981C289.944 211.78 289.702 157.362 294.3 158.706Z" fill="#312A45"/>
<path d="M247.561 118.67C242.599 118.67 239.843 113.479 239.722 113.259L240.703 112.752C240.703 112.752 243.426 117.865 247.936 117.557C252.446 117.248 253.769 111.694 253.78 111.639L254.882 111.892C254.816 112.157 253.317 118.328 248.035 118.659L247.561 118.67Z" fill="#312A45"/>
<path d="M115.945 113.005C115.945 113.005 118.779 100.883 120.819 93.753C122.858 86.6229 111.469 102.206 111.469 102.206C111.469 102.206 114.721 81.807 111.469 79.5809C108.216 77.3549 106.198 97.3897 106.198 97.3897C106.198 97.3897 106.595 77.2226 103.761 76.6716C100.928 76.1206 99.285 100.023 99.285 100.023C99.285 100.023 96.4513 83.9119 94.0146 85.2674C91.5778 86.6229 93.6066 108.796 94.0146 115.992C94.4225 123.188 53.9134 219.163 74.9398 235.01C95.9662 250.858 161.019 223.472 172.795 226.315C184.57 229.159 185.155 164.834 176.676 167.115C168.197 169.396 109.429 199.316 108.58 195.029C107.731 190.742 117.974 116.201 115.945 113.005Z" fill="#DF9E86"/>
<path d="M104.83 118.328C104.83 117.931 104.202 108.41 111.6 104.002L112.162 104.95C105.348 108.994 105.922 118.174 105.933 118.174L104.83 118.328Z" fill="#312A45"/>
<path d="M82.8335 133.139C82.8335 133.139 123.795 133.778 121.325 140.049C118.855 146.32 113.805 194.169 113.805 194.169C113.805 194.169 195.397 150.838 201.858 158.321C208.319 165.803 200.458 231.693 189.145 236.366C173.974 242.636 92.3819 272.479 64.4754 256.687C48.6642 247.75 77.4088 132.974 82.8335 133.139Z" fill="#312A45"/>
<path d="M297.343 87.8902C297.05 87.8902 296.77 87.7741 296.563 87.5674C296.356 87.3608 296.24 87.0805 296.24 86.7882C296.24 64.2628 295.292 39.1808 293.66 36.6461L277.992 28.1826L279.04 26.243C279.04 26.243 291.863 33.1527 294.829 34.7727C295.733 35.2686 297.232 36.0951 298.037 61.8384C298.423 74.2692 298.445 86.667 298.445 86.7882C298.445 87.0805 298.329 87.3608 298.122 87.5674C297.916 87.7741 297.635 87.8902 297.343 87.8902Z" fill="#F0CB16"/>
<path d="M416.665 190.94H294.299V270.341H416.665V190.94Z" fill="#79E1FF"/>
<path d="M409.807 196.98H301.168V264.28H409.807V196.98Z" fill="white"/>
<path d="M315.48 190.963H294.299V212.132C299.917 212.132 305.304 209.902 309.276 205.932C313.249 201.962 315.48 196.577 315.48 190.963Z" fill="#79E1FF"/>
<path d="M294.299 249.138V270.308H315.48C315.48 264.694 313.249 259.309 309.276 255.339C305.304 251.369 299.917 249.138 294.299 249.138Z" fill="#79E1FF"/>
<path d="M395.484 270.308H416.665V249.138C411.048 249.138 405.66 251.369 401.688 255.339C397.716 259.309 395.484 264.694 395.484 270.308Z" fill="#79E1FF"/>
<path d="M416.665 212.132V190.963H395.484C395.484 196.577 397.716 201.962 401.688 205.932C405.66 209.902 411.048 212.132 416.665 212.132Z" fill="#79E1FF"/>
<path d="M382.364 204.363H328.612V209.41H382.364V204.363Z" fill="#CECECF"/>
<path d="M371.823 213.223H339.142V218.271H371.823V213.223Z" fill="#CECECF"/>
<path d="M358.9 228.409H315.513V233.457H358.9V228.409Z" fill="#CECECF"/>
<path d="M359.121 237.27H315.513V242.317H359.121V237.27Z" fill="#CECECF"/>
<path d="M359.121 246.791H315.513V251.838H359.121V246.791Z" fill="#CECECF"/>
<path d="M382.364 240.785V272.832L372.595 283.488V240.785H382.364Z" fill="#C74256"/>
<path d="M382.364 240.785V272.832L392.133 283.488V240.785H382.364Z" fill="#C74256"/>
<path d="M398.512 241.955L382.35 225.801L366.187 241.955L382.35 258.109L398.512 241.955Z" fill="#DE9C1E"/>
<path d="M393.786 230.536H370.93V253.381H393.786V230.536Z" fill="#DE9C1E"/>
<path d="M397.019 235.161L375.557 227.303L367.695 248.753L389.157 256.612L397.019 235.161Z" fill="#DE9C1E"/>
<path d="M387.923 226.78L367.188 236.392L376.804 257.116L397.539 247.505L387.923 226.78Z" fill="#DE9C1E"/>
<path d="M382.363 252.676C388.288 252.676 393.092 247.875 393.092 241.953C393.092 236.031 388.288 231.23 382.363 231.23C376.438 231.23 371.635 236.031 371.635 241.953C371.635 247.875 376.438 252.676 382.363 252.676Z" fill="#F0CB16"/>
<path d="M377.27 184.35C377.27 184.35 371.867 205.113 375.362 206.92C378.857 208.727 386.09 187.083 386.09 187.083C386.09 187.083 379.265 204.066 382.882 208.804C386.498 213.543 396.025 187.304 396.025 187.304C396.025 187.304 387.689 208.562 391.702 211.449C395.716 214.336 404.934 189.144 404.14 187.304C403.346 185.463 380.269 177.143 377.27 184.35Z" fill="#DF9E86"/>
<path d="M285.975 153.229C285.975 153.229 248.31 206.766 245.609 205.289L213.171 159.511C213.171 159.511 240.416 175.314 245.609 175.049C250.802 174.785 285.975 153.229 285.975 153.229Z" fill="white"/>
<path d="M246.745 170.652C246.745 170.652 238.52 178.642 238.718 180.052C238.917 181.463 243.437 189.552 243.437 189.552C243.437 189.552 237.439 193.42 238.917 195.569C240.394 197.718 242.577 205.686 245.609 205.289C248.642 204.892 253.096 196.781 253.912 195.624C254.728 194.467 249.568 189.552 249.568 189.552C249.568 189.552 254.54 182.212 253.978 179.281C253.416 176.35 249.05 168.525 246.745 170.652Z" fill="#312A45"/>
<path d="M297.343 159.511C297.343 159.511 249.711 229.082 244.021 225.798C238.332 222.513 189.564 159.654 193.479 158.001C197.393 156.348 210.018 153.472 210.018 153.472L245.653 205.267C254.595 198.897 280.418 151.433 286.019 153.207C291.62 154.981 297.343 159.511 297.343 159.511Z" fill="#79E1FF"/>
<path d="M293.814 94.7558C295.959 94.9647 298.119 94.9647 300.264 94.7558C302.194 94.3481 299.603 71.6794 297.045 72.7153C294.487 73.7513 293.439 75.5916 293.814 94.7558Z" fill="#F0CB16"/>
<path d="M138.978 255.949C138.978 255.949 131.767 276.149 127.952 278.055C124.137 279.962 83.7051 234.107 83.7051 234.107C83.7051 234.107 146.255 246.361 150.544 246.978C166.565 249.282 138.978 255.949 138.978 255.949Z" fill="white"/>
<path d="M144.27 253.051C144.27 253.051 139.86 276.887 138.967 276.81C137.181 276.656 132.925 262.848 131.524 259.431C130.124 256.015 145.693 251.574 144.27 253.051Z" fill="white"/>
<path d="M144.358 254.219C144.358 254.219 89.9125 234.933 93.7715 239.077C97.6306 243.22 133.928 256.092 135.67 259.001C137.412 261.911 138.316 277.912 139.132 276.634C139.948 275.355 145.218 255.817 144.358 254.219Z" fill="#79E1FF"/>
<path d="M135.604 259.288C135.604 259.288 133.74 265.228 133.784 267.145C133.829 269.063 138.195 276.832 138.967 276.81C139.738 276.788 138.007 256.941 135.604 259.288Z" fill="#E4F3F5"/>
<path d="M458.65 269.195L433.518 263.562L413.255 353.867L438.388 359.5L458.65 269.195Z" fill="#79E1FF"/>
<path d="M442.843 265.654L436.636 264.263L416.374 354.568L422.581 355.959L442.843 265.654Z" fill="#E4F3F5"/>
<path d="M455.704 268.542L449.496 267.151L429.234 357.456L435.442 358.847L455.704 268.542Z" fill="#E4F3F5"/>
<path d="M458.651 269.195L451.716 241.314L433.523 263.553L435.277 270.297L439.742 264.952L441.495 271.686L445.961 266.341L446.391 266.44L448.144 273.185L452.609 267.84L454.362 274.573L458.828 269.228L458.651 269.195Z" fill="white"/>
<path d="M439.978 353.227L414.673 347.555L413.65 352.114L438.955 357.786L439.978 353.227Z" fill="white"/>
<path d="M439.009 357.552L413.705 351.88L411.374 362.268L436.678 367.94L439.009 357.552Z" fill="#C74256"/>
<path d="M442.973 251.993L455.047 254.704L451.717 241.314L442.973 251.993Z" fill="#3E2D4A"/>
<path d="M409.053 353.415L434.665 350.684L424.841 258.658L399.23 261.389L409.053 353.415Z" fill="#F0CB16"/>
<path d="M425.163 351.702L431.489 351.027L421.665 259.001L415.339 259.676L425.163 351.702Z" fill="#E5AD35"/>
<path d="M412.051 353.097L418.377 352.422L408.553 260.396L402.227 261.071L412.051 353.097Z" fill="#E5AD35"/>
<path d="M409.035 353.445L424.56 377.623L434.637 350.712L430.811 344.893L428.309 351.395L424.483 345.565L421.969 352.067L421.528 352.111L417.702 346.293L415.199 352.795L411.373 346.976L408.859 353.467L409.035 353.445Z" fill="white"/>
<path d="M399.726 267.843L425.512 265.094L425.016 260.447L399.23 263.197L399.726 267.843Z" fill="white"/>
<path d="M399.256 263.436L425.042 260.686L423.913 250.101L398.126 252.85L399.256 263.436Z" fill="#C74256"/>
<path d="M429.4 364.697L417.106 366.008L424.559 377.623L429.4 364.697Z" fill="#3E2D4A"/>
<path d="M462.72 302.851C462.367 297.716 461.871 294.476 461.871 294.476H361.271C361.271 294.476 360.775 297.705 360.411 302.829C346.849 303.391 319.174 308.879 325.745 345.224C332.581 382.957 398.197 366.46 401.99 392.258C402.078 393.283 402.122 394.385 402.144 395.564C402.144 395.741 402.144 395.906 402.144 396.082C402.144 399.388 401.901 403.367 401.438 408.414C401.438 408.414 382.496 415.246 382.496 430.62H440.635C440.635 415.246 421.693 408.414 421.693 408.414C420.855 399.278 420.723 393.515 421.527 389.371C429.687 367.661 490.483 381.447 497.044 345.202C503.56 309.188 476.403 303.468 462.72 302.851ZM338.921 340.397C337.146 321.563 350.102 317.596 360.102 317.254C360.521 331.9 363.41 350.315 373.896 361.897C357.07 357.313 340.013 351.957 338.921 340.397ZM483.868 340.397C482.765 351.902 466.028 357.214 449.346 361.809C459.732 350.183 462.577 331.9 463.029 317.299C472.985 317.695 485.665 321.773 483.868 340.397Z" fill="#F0CB16"/>
<path d="M409.179 303.237L417.68 320.45L436.688 323.205L422.939 336.606L426.181 355.528L409.179 346.59L392.177 355.528L395.429 336.606L381.669 323.205L400.678 320.45L409.179 303.237Z" fill="#E5AD35"/>
<path d="M21.0225 311.27H166.564C170.752 311.27 174.768 312.933 177.729 315.893C180.69 318.852 182.353 322.866 182.353 327.051V335.361C182.353 339.546 180.69 343.56 177.729 346.52C174.768 349.479 170.752 351.142 166.564 351.142H21.0225V311.27Z" fill="#F0CB16"/>
<path d="M161.107 318.07H21.0776V344.342H161.107C164.219 344.253 167.17 342.934 169.311 340.674C171.452 338.414 172.61 335.397 172.529 332.286V330.082C172.598 326.978 171.435 323.973 169.295 321.723C167.155 319.473 164.212 318.159 161.107 318.07Z" fill="white"/>
<path d="M172.529 332.286V330.082C172.529 329.862 172.529 329.641 172.529 329.432H21.0225V332.892H172.529C172.529 332.716 172.529 332.506 172.529 332.286Z" fill="#E6F1EE"/>
<path d="M168.615 321.034H21.0225V324.506H171.228C170.574 323.201 169.688 322.025 168.615 321.034Z" fill="#E6F1EE"/>
<path d="M171.228 337.906H21.0225V341.367H168.615C169.69 340.382 170.576 339.21 171.228 337.906Z" fill="#E6F1EE"/>
<path d="M21.0225 390.771H166.564C170.752 390.771 174.768 392.433 177.729 395.393C180.69 398.352 182.353 402.366 182.353 406.552V414.861C182.353 419.046 180.69 423.06 177.729 426.02C174.768 428.979 170.752 430.642 166.564 430.642H21.0225V390.771Z" fill="#C74256"/>
<path d="M161.107 397.57H21.0776V423.842H161.107C164.219 423.753 167.17 422.434 169.311 420.174C171.452 417.914 172.61 414.898 172.529 411.786V409.582C172.598 406.478 171.435 403.473 169.295 401.223C167.155 398.973 164.212 397.659 161.107 397.57Z" fill="white"/>
<path d="M172.529 411.786V409.582C172.529 409.362 172.529 409.141 172.529 408.932H21.0225V412.392H172.529C172.529 412.216 172.529 412.006 172.529 411.786Z" fill="#E6F1EE"/>
<path d="M168.615 400.534H21.0225V404.006H171.228C170.574 402.701 169.688 401.525 168.615 400.534Z" fill="#E6F1EE"/>
<path d="M171.228 417.406H21.0225V420.867H168.615C169.69 419.882 170.576 418.71 171.228 417.406Z" fill="#E6F1EE"/>
<path d="M187.216 390.66H41.6744C37.4869 390.66 33.4709 388.998 30.5098 386.038C27.5488 383.079 25.8853 379.065 25.8853 374.879V366.57C25.8941 362.39 27.5614 358.385 30.5215 355.433C33.4816 352.48 37.4926 350.822 41.6744 350.822H187.216V390.66Z" fill="#312A45"/>
<path d="M47.1099 383.916H187.205V357.622H47.1099C43.9933 357.705 41.0373 359.022 38.8914 361.283C36.7454 363.543 35.585 366.563 35.665 369.678V371.882C35.5909 374.993 36.754 378.007 38.8993 380.263C41.0446 382.519 43.9972 383.832 47.1099 383.916Z" fill="white"/>
<path d="M35.665 369.678V371.882C35.665 372.102 35.665 372.312 35.665 372.532H187.205V369.072H35.6981C35.6871 369.237 35.665 369.457 35.665 369.678Z" fill="#E6F1EE"/>
<path d="M39.6014 380.929H187.205V377.458H36.9883C37.6431 378.763 38.5283 379.939 39.6014 380.929Z" fill="#E6F1EE"/>
<path d="M36.9883 364.079H187.205V360.608H39.6014C38.5283 361.599 37.6431 362.775 36.9883 364.079Z" fill="#E6F1EE"/>
<path d="M122.439 332.936H110.531V375.618L122.439 360.2L134.336 375.618V332.936H122.439Z" fill="#C74256"/>
<path d="M318.81 102.9L316.418 108.575C316.418 108.575 310.905 109.854 311.467 110.427C312.029 111 316.274 111.705 316.561 112.565C316.848 113.424 318.766 117.535 319.031 117.535C319.902 117.535 321.049 112.829 322.184 112.421C323.625 111.844 325.016 111.147 326.341 110.338C326.44 110.096 321.523 108.3 321.523 108.3C321.523 108.3 318.91 102.217 318.81 102.9Z" fill="#FBF6EF"/>
<path d="M427.878 388.522C427.25 388.522 426.621 388.522 426.004 388.522L426.059 387.42C427.871 387.509 429.688 387.472 431.495 387.31L431.583 388.412C430.326 388.467 429.08 388.522 427.878 388.522ZM420.469 387.784C418.643 387.402 416.85 386.871 415.11 386.197L415.507 385.172C417.19 385.823 418.923 386.335 420.69 386.704L420.469 387.784ZM437.151 387.553L436.931 386.451C438.64 386.109 440.426 385.668 442.234 385.139L442.543 386.241C440.646 386.759 438.827 387.222 437.151 387.553ZM447.813 384.478L447.438 383.442C449.081 382.836 450.746 382.153 452.532 381.414L452.962 382.428C451.154 383.178 449.423 383.916 447.758 384.478H447.813ZM410.116 383.806C408.504 382.884 406.95 381.865 405.463 380.753L406.124 379.871C407.577 380.954 409.094 381.947 410.667 382.847L410.116 383.806ZM458.001 380.147L457.527 379.155C459.104 378.406 460.758 377.579 462.445 376.709L462.952 377.689C461.199 378.571 459.534 379.398 457.946 380.147H458.001ZM401.174 377.216C399.884 376.036 398.549 374.736 397.215 373.336L398.02 372.576C399.332 373.954 400.644 375.243 401.923 376.4L401.174 377.216ZM467.781 375.1L467.241 374.13L468.288 373.557L468.829 374.516L467.781 375.1ZM393.467 369.215C392.364 367.881 391.151 366.438 389.971 364.928L390.842 364.256C392.011 365.744 393.169 367.176 394.305 368.51L393.467 369.215ZM386.642 360.52C385.583 359.051 384.514 357.552 383.433 356.024L384.337 355.396C385.44 356.938 386.476 358.437 387.535 359.87L386.642 360.52ZM380.324 351.472C379.324 350.003 378.31 348.467 377.281 346.866L378.207 346.26C379.232 347.836 380.235 349.367 381.239 350.855L380.324 351.472ZM374.304 342.215C373.333 340.695 372.352 339.152 371.36 337.554L372.286 336.97L375.23 341.62L374.304 342.215ZM368.438 332.881L365.483 328.198L366.42 327.614C367.401 329.211 368.361 330.765 369.32 332.297L368.438 332.881ZM362.638 323.503L359.76 318.808L360.698 318.235L363.586 322.93L362.638 323.503ZM356.783 314.202C355.681 312.637 354.666 311.127 353.608 309.739L354.49 309.066C355.593 310.488 356.629 311.998 357.699 313.585L356.783 314.202ZM350.168 305.463C348.944 304.03 347.709 302.675 346.474 301.429L347.257 300.658C348.503 301.925 349.771 303.303 351.006 304.747L350.168 305.463ZM256.856 300.052C255.676 300.052 254.507 300.052 253.382 299.898L253.482 298.796C255.285 298.956 257.098 298.989 258.906 298.895L258.962 299.997C258.267 300.03 257.572 300.052 256.867 300.052H256.856ZM264.497 299.413L264.331 298.311C266.04 298.035 267.793 297.683 269.69 297.209L269.943 298.311C268.025 298.774 266.25 299.137 264.508 299.413H264.497ZM247.87 298.939C246.801 298.665 245.749 298.334 244.716 297.947L242.588 297.132L243.007 296.107C243.691 296.382 244.385 296.658 245.102 296.922C246.094 297.286 247.12 297.605 248.145 297.881L247.87 298.939ZM342.472 297.716C341.085 296.54 339.639 295.437 338.139 294.41L338.767 293.495C340.293 294.547 341.765 295.677 343.177 296.878L342.472 297.716ZM275.313 296.856L274.993 295.754C276.57 295.302 278.235 294.784 280.242 294.134L280.583 295.236C278.566 295.897 276.89 296.415 275.313 296.856ZM237.582 294.85C235.906 294.013 234.275 293.109 232.72 292.172L233.282 291.236C234.815 292.15 236.425 293.043 238.079 293.859L237.582 294.85ZM200.8 293.55H200.613C198.826 293.55 197.018 293.473 195.243 293.33L195.331 292.227C197.084 292.371 198.859 292.448 200.613 292.448H200.8V293.55ZM285.832 293.55L285.479 292.448C287.221 291.868 288.97 291.294 290.727 290.729L291.058 291.831C289.316 292.371 287.563 292.944 285.832 293.55ZM206.346 293.341L206.258 292.239C207.581 292.117 208.926 291.963 210.26 291.765L211.672 291.544L211.859 292.646C211.385 292.734 210.911 292.812 210.426 292.878C209.069 293.043 207.702 293.208 206.346 293.319V293.341ZM189.73 292.679C187.922 292.371 186.091 291.974 184.294 291.511L184.57 290.409C186.345 290.872 188.142 291.258 189.917 291.511L189.73 292.679ZM333.508 291.621C331.897 290.777 330.232 290.041 328.524 289.417L328.888 288.315C330.643 288.937 332.356 289.674 334.015 290.519L333.508 291.621ZM217.284 291.346L216.975 290.244C218.713 289.727 220.418 289.105 222.08 288.381L222.521 289.395C220.819 290.157 219.069 290.809 217.284 291.346ZM296.328 290.244L296.031 289.142C297.949 288.602 299.702 288.15 301.4 287.764L301.643 288.866C299.967 289.241 298.225 289.693 296.328 290.244ZM178.98 289.88C177.249 289.263 175.518 288.58 173.82 287.808L174.272 286.806C175.937 287.555 177.646 288.238 179.344 288.833L178.98 289.88ZM228.045 289.087C226.552 287.986 225.117 286.808 223.745 285.56L224.495 284.745C225.838 285.97 227.244 287.125 228.707 288.205L228.045 289.087ZM323.276 287.985C321.497 287.621 319.696 287.382 317.884 287.268L317.961 286.166C319.813 286.285 321.655 286.528 323.474 286.894L323.276 287.985ZM307.046 287.841L306.88 286.739C308.707 286.456 310.547 286.265 312.393 286.166L312.459 287.268C310.646 287.367 308.839 287.558 307.046 287.841ZM227.494 286.938L226.931 285.99C228.49 285.065 229.985 284.038 231.408 282.915L232.091 283.775C230.631 284.93 229.095 285.987 227.494 286.938ZM168.847 285.373C167.215 284.469 165.616 283.511 164.084 282.497L164.69 281.571C166.201 282.574 167.777 283.522 169.376 284.403L168.847 285.373ZM219.853 281.604C218.65 280.189 217.545 278.694 216.545 277.13L217.482 276.535C218.456 278.059 219.539 279.51 220.724 280.877L219.853 281.604ZM236.226 280.028L235.432 279.268C236.677 277.957 237.82 276.554 238.85 275.069L239.754 275.686C238.692 277.208 237.512 278.645 236.226 279.984V280.028ZM159.585 279.224C158.104 278.076 156.701 276.831 155.384 275.499L156.189 274.749C157.47 276.037 158.833 277.24 160.269 278.353L159.585 279.224ZM213.943 272.138C213.224 270.394 212.734 268.564 212.487 266.694L213.59 266.561C213.828 268.336 214.291 270.072 214.968 271.73L213.943 272.138ZM242.511 270.793L241.497 270.341C242.231 268.706 242.753 266.984 243.051 265.217L244.154 265.393C243.829 267.243 243.277 269.046 242.511 270.76V270.793ZM213.844 261.294L212.741 261.018C213.202 259.145 214.102 257.407 215.365 255.949L216.203 256.665C215.06 257.987 214.247 259.563 213.833 261.261L213.844 261.294ZM242.985 259.949C242.615 258.242 241.793 256.666 240.603 255.387L241.397 254.637C242.735 256.054 243.655 257.812 244.055 259.718L242.985 259.949ZM220.437 253.557L219.974 252.566C221.694 251.777 223.516 251.235 225.388 250.957L225.553 252.059C223.786 252.313 222.061 252.806 220.426 253.524L220.437 253.557ZM236.193 252.643C234.507 252.068 232.747 251.741 230.967 251.673V250.571C232.861 250.626 234.736 250.956 236.535 251.552L236.193 252.643Z" fill="white"/>
</g>
<defs>
<clipPath id="clip0_8_4157">
<rect width="505.692" height="430.23" fill="white" transform="translate(0.525879 0.411545)"/>
</clipPath>
</defs>
</svg>
