<svg width="6" height="6" viewBox="0 0 6 6" fill="none" xmlns="http://www.w3.org/2000/svg">
<path d="M5.40231 3.13129C5.40577 3.57476 5.27888 4.00928 5.03775 4.37971C4.79662 4.75015 4.45211 5.0398 4.04794 5.21194C3.64377 5.38407 3.19814 5.43093 2.76759 5.34655C2.33705 5.26218 1.94099 5.05038 1.62966 4.73803C1.31833 4.42569 1.10576 4.02686 1.01893 3.59216C0.93209 3.15745 0.974898 2.70646 1.14192 2.2964C1.30894 1.88633 1.59265 1.53568 1.95705 1.28892C2.32145 1.04216 2.75011 0.910414 3.18867 0.9104C3.77276 0.910382 4.33318 1.1438 4.74782 1.5598C5.16246 1.9758 5.39771 2.54066 5.40231 3.13129Z" fill="#E1FDF6"/>
</svg>
