<svg width="11" height="11" viewBox="0 0 11 11" fill="none" xmlns="http://www.w3.org/2000/svg">
<path d="M10.8428 5.50845C10.8452 6.52297 10.5497 7.51539 9.99365 8.35997C9.43761 9.20454 8.64609 9.86325 7.71938 10.2526C6.79267 10.642 5.77247 10.7445 4.78807 10.5472C3.80366 10.3499 2.89935 9.86162 2.18971 9.14424C1.48008 8.42686 0.997066 7.51268 0.801877 6.51752C0.606688 5.52237 0.708107 4.49104 1.09328 3.55421C1.47846 2.61739 2.13006 1.81723 2.96551 1.25513C3.80097 0.693023 4.78268 0.394278 5.78625 0.396744C7.12632 0.400036 8.41057 0.939646 9.35815 1.89756C10.3057 2.85548 10.8395 4.15375 10.8428 5.50845Z" fill="#FFE2E9"/>
</svg>
