<svg width="11" height="11" viewBox="0 0 11 11" fill="none" xmlns="http://www.w3.org/2000/svg">
<path d="M10.3843 5.50845C10.3867 6.52297 10.0912 7.51539 9.53515 8.35997C8.97912 9.20454 8.1876 9.86325 7.26089 10.2526C6.33417 10.642 5.31398 10.7445 4.32957 10.5472C3.34516 10.3499 2.44085 9.86162 1.73122 9.14424C1.02158 8.42686 0.53857 7.51268 0.343381 6.51752C0.148192 5.52237 0.24961 4.49104 0.634787 3.55421C1.01996 2.61739 1.67156 1.81723 2.50702 1.25513C3.34247 0.693023 4.32418 0.394278 5.32775 0.396744C6.66782 0.400036 7.95207 0.939646 8.89965 1.89756C9.84723 2.85548 10.381 4.15375 10.3843 5.50845Z" fill="#245D92"/>
</svg>
