<svg width="11" height="11" viewBox="0 0 11 11" fill="none" xmlns="http://www.w3.org/2000/svg">
<path d="M10.6548 5.50843C10.6572 6.52243 10.362 7.51435 9.80652 8.35866C9.25103 9.20296 8.46024 9.86168 7.53425 10.2514C6.60826 10.6412 5.58869 10.7444 4.60462 10.5481C3.62055 10.3518 2.71622 9.86478 2.00609 9.14865C1.29597 8.43252 0.811979 7.5195 0.615395 6.52517C0.418811 5.53084 0.518467 4.4999 0.901751 3.56286C1.28503 2.62581 1.93471 1.82478 2.76855 1.26118C3.60238 0.697576 4.58288 0.396732 5.58592 0.396729C6.92813 0.396724 8.21555 0.934879 9.16579 1.89315C10.116 2.85143 10.6515 4.15158 10.6548 5.50843Z" fill="#B4F9E8"/>
</svg>
