<svg width="6" height="5" viewBox="0 0 6 5" fill="none" xmlns="http://www.w3.org/2000/svg">
<path d="M5.1611 2.62708C5.16455 3.07055 5.03767 3.50507 4.79654 3.8755C4.55541 4.24594 4.2109 4.53559 3.80673 4.70773C3.40256 4.87986 2.95693 4.92671 2.52638 4.84234C2.09584 4.75797 1.69978 4.54617 1.38845 4.23382C1.07712 3.92147 0.864551 3.52265 0.777715 3.08794C0.690879 2.65324 0.733687 2.20225 0.900708 1.79218C1.06773 1.38212 1.35144 1.03147 1.71583 0.784706C2.08023 0.537946 2.5089 0.406203 2.94746 0.406189C3.53155 0.406171 4.09197 0.639593 4.50661 1.05559C4.92125 1.47159 5.1565 2.03645 5.1611 2.62708Z" fill="#E1FDF6"/>
</svg>
