<svg width="5" height="6" viewBox="0 0 5 6" fill="none" xmlns="http://www.w3.org/2000/svg">
<path d="M4.63229 3.13131C4.63575 3.57516 4.50864 4.01002 4.26712 4.38065C4.02561 4.75127 3.68059 5.04092 3.2759 5.2128C2.87122 5.38467 2.42514 5.43101 1.99436 5.34592C1.56357 5.26083 1.16752 5.04816 0.856542 4.73492C0.54556 4.42169 0.333683 4.02204 0.247834 3.58675C0.161984 3.15146 0.206039 2.70019 0.374399 2.29028C0.54276 1.88038 0.827825 1.53033 1.19337 1.28464C1.55892 1.03894 1.98844 0.908684 2.42737 0.910417C3.01064 0.910413 3.57016 1.14412 3.98341 1.56036C4.39667 1.97661 4.62999 2.54148 4.63229 3.13131Z" fill="#A7BED3"/>
</svg>
