<svg width="5" height="6" viewBox="0 0 5 6" fill="none" xmlns="http://www.w3.org/2000/svg">
<path d="M4.75876 3.13121C4.76215 3.57316 4.63608 4.00625 4.39645 4.37587C4.15683 4.74549 3.81436 5.03511 3.41222 5.20822C3.01008 5.38133 2.56627 5.43019 2.13671 5.34863C1.70716 5.26708 1.31109 5.05876 0.998426 4.74994C0.685764 4.44111 0.470501 4.0456 0.379769 3.61326C0.289037 3.18092 0.326896 2.73109 0.488575 2.32047C0.650254 1.90985 0.928517 1.55682 1.28829 1.30587C1.64807 1.05492 2.07325 0.917286 2.51026 0.910313C2.80242 0.905651 3.0926 0.959526 3.36406 1.06883C3.63553 1.17814 3.88291 1.34071 4.09194 1.54717C4.30097 1.75363 4.46751 1.9999 4.58196 2.27177C4.69641 2.54364 4.7565 2.83574 4.75876 3.13121Z" fill="#FFF3F6"/>
</svg>
