<svg width="6" height="5" viewBox="0 0 6 5" fill="none" xmlns="http://www.w3.org/2000/svg">
<path d="M5.39157 2.6271C5.39502 3.07094 5.26792 3.50581 5.0264 3.87643C4.78488 4.24706 4.43986 4.53671 4.03518 4.70859C3.6305 4.88046 3.18442 4.9268 2.75363 4.84171C2.32285 4.75662 1.9268 4.54394 1.61582 4.23071C1.30484 3.91748 1.09296 3.51782 1.00711 3.08254C0.921262 2.64725 0.965316 2.19598 1.13368 1.78607C1.30204 1.37616 1.5871 1.02612 1.95265 0.780425C2.3182 0.534729 2.74772 0.404472 3.18664 0.406206C3.76992 0.406201 4.32943 0.639906 4.74269 1.05615C5.15594 1.4724 5.38926 2.03727 5.39157 2.6271Z" fill="#A7BED3"/>
</svg>
