<svg width="5" height="5" viewBox="0 0 5 5" fill="none" xmlns="http://www.w3.org/2000/svg">
<path d="M4.51755 2.62699C4.52094 3.06895 4.39487 3.50203 4.15524 3.87166C3.91562 4.24128 3.57315 4.5309 3.17101 4.70401C2.76887 4.87712 2.32506 4.92597 1.8955 4.84442C1.46595 4.76286 1.06988 4.55455 0.757215 4.24572C0.444553 3.9369 0.22929 3.54139 0.138558 3.10905C0.0478259 2.67671 0.0856851 2.22688 0.247364 1.81626C0.409043 1.40564 0.687306 1.05261 1.04708 0.801659C1.40686 0.55071 1.83204 0.413075 2.26905 0.406101C2.56121 0.401439 2.85139 0.455314 3.12285 0.564619C3.39432 0.673924 3.6417 0.836496 3.85073 1.04296C4.05976 1.24942 4.2263 1.49569 4.34075 1.76756C4.4552 2.03943 4.51528 2.33152 4.51755 2.62699Z" fill="#FFF3F6"/>
</svg>
